<?xml version="1.0" encoding="utf-8"?>
<!-- Generator: Adobe Illustrator 22.0.0, SVG Export Plug-In . SVG Version: 6.00 Build 0)  -->
<svg version="1.1" id="Camada_1" xmlns="http://www.w3.org/2000/svg" xmlns:xlink="http://www.w3.org/1999/xlink" x="0px" y="0px"
	 viewBox="0 0 300 300" style="enable-background:new 0 0 300 300;" xml:space="preserve">
<style type="text/css">
	.st0{fill:#471C70;}
	.st1{fill:none;stroke:#471C70;stroke-width:2;stroke-miterlimit:10;}
	.st2{fill:#C5935D;stroke:#512682;stroke-width:2;stroke-miterlimit:10;}
</style>
<g>
	<circle class="st0" cx="29.8" cy="25.8" r="2.6"/>
</g>
<g>
	<circle class="st0" cx="42.8" cy="25.8" r="2.6"/>
</g>
<g>
	<circle class="st0" cx="55.8" cy="25.8" r="2.6"/>
</g>
<g>
	<circle class="st0" cx="255.8" cy="67.8" r="2.6"/>
</g>
<g>
	<circle class="st0" cx="268.8" cy="67.8" r="2.6"/>
</g>
<g>
	<circle class="st0" cx="29.8" cy="38.8" r="2.6"/>
</g>
<g>
	<circle class="st0" cx="42.8" cy="38.8" r="2.6"/>
</g>
<g>
	<circle class="st0" cx="55.8" cy="38.8" r="2.6"/>
</g>
<g>
	<circle class="st0" cx="255.8" cy="80.8" r="2.6"/>
</g>
<g>
	<circle class="st0" cx="268.8" cy="80.8" r="2.6"/>
</g>
<g>
	<circle class="st0" cx="29.8" cy="51.8" r="2.6"/>
</g>
<g>
	<circle class="st0" cx="42.8" cy="51.8" r="2.6"/>
</g>
<g>
	<circle class="st0" cx="55.8" cy="51.8" r="2.6"/>
</g>
<g>
	<circle class="st0" cx="255.8" cy="93.8" r="2.6"/>
</g>
<g>
	<circle class="st0" cx="268.8" cy="93.8" r="2.6"/>
</g>
<g>
	<circle class="st0" cx="255.8" cy="106.8" r="2.6"/>
</g>
<g>
	<circle class="st0" cx="268.8" cy="106.8" r="2.6"/>
</g>
<g>
	<circle class="st0" cx="195" cy="200.3" r="2.6"/>
</g>
<g>
	<circle class="st0" cx="208" cy="200.3" r="2.6"/>
</g>
<g>
	<circle class="st0" cx="195" cy="213.3" r="2.6"/>
</g>
<g>
	<circle class="st0" cx="208" cy="213.3" r="2.6"/>
</g>
<g>
	<circle class="st0" cx="195" cy="226.3" r="2.6"/>
</g>
<g>
	<circle class="st0" cx="208" cy="226.3" r="2.6"/>
</g>
<g>
	<circle class="st0" cx="109.4" cy="211.8" r="2.6"/>
</g>
<g>
	<circle class="st0" cx="122.4" cy="211.8" r="2.6"/>
</g>
<g>
	<circle class="st0" cx="135.4" cy="211.8" r="2.6"/>
</g>
<g>
	<circle class="st0" cx="109.4" cy="224.8" r="2.6"/>
</g>
<g>
	<circle class="st0" cx="122.4" cy="224.8" r="2.6"/>
</g>
<g>
	<circle class="st0" cx="135.4" cy="224.8" r="2.6"/>
</g>
<g>
	<circle class="st0" cx="109.4" cy="237.8" r="2.6"/>
</g>
<g>
	<circle class="st0" cx="122.4" cy="237.8" r="2.6"/>
</g>
<g>
	<circle class="st0" cx="135.4" cy="237.8" r="2.6"/>
</g>
<g>
	<circle class="st0" cx="109.4" cy="250.8" r="2.6"/>
</g>
<g>
	<circle class="st0" cx="122.4" cy="250.8" r="2.6"/>
</g>
<g>
	<circle class="st0" cx="135.4" cy="250.8" r="2.6"/>
</g>
<g>
	<circle class="st0" cx="35.4" cy="263.8" r="2.6"/>
</g>
<g>
	<circle class="st0" cx="48.4" cy="263.8" r="2.6"/>
</g>
<g>
	<circle class="st0" cx="35.4" cy="276.8" r="2.6"/>
</g>
<g>
	<circle class="st0" cx="48.4" cy="276.8" r="2.6"/>
</g>
<g>
	<circle class="st0" cx="35.4" cy="289.8" r="2.6"/>
</g>
<g>
	<circle class="st0" cx="48.4" cy="289.8" r="2.6"/>
</g>
<polygon class="st1" points="28.6,235.2 32,225.5 38.7,233.2 45.5,241 35.4,243 25.2,244.9 "/>
<circle class="st1" cx="253.7" cy="28.3" r="18.4"/>
<circle class="st2" cx="260.8" cy="263.7" r="13.1"/>
<circle class="st1" cx="269.3" cy="267.6" r="13.1"/>
<rect x="127" y="31.6" transform="matrix(0.4682 -0.8836 0.8836 0.4682 29.577 169.5338)" class="st1" width="57.2" height="57.2"/>
<rect x="59.3" y="125.6" transform="matrix(0.3401 -0.9404 0.9404 0.3401 -83.0427 161.7537)" class="st2" width="28.8" height="28.8"/>
<rect x="50.3" y="130.1" transform="matrix(0.3401 -0.9404 0.9404 0.3401 -93.1699 156.1688)" class="st1" width="28.8" height="28.8"/>
</svg>
