<?xml version="1.0" encoding="utf-8"?>
<!-- Generator: Adobe Illustrator 22.0.0, SVG Export Plug-In . SVG Version: 6.00 Build 0)  -->
<svg version="1.1" id="Camada_1" xmlns="http://www.w3.org/2000/svg" xmlns:xlink="http://www.w3.org/1999/xlink" x="0px" y="0px"
	 viewBox="0 0 300 300" style="enable-background:new 0 0 300 300;" xml:space="preserve">
<style type="text/css">
	.st0{fill:#C67C22;}
	.st1{fill:#7B5C9C;stroke:#C67C22;stroke-width:2;stroke-miterlimit:10;}
	.st2{fill:none;stroke:#C67C22;stroke-width:2;stroke-miterlimit:10;}
</style>
<g>
	<circle class="st0" cx="232.8" cy="211.2" r="2.3"/>
</g>
<g>
	<circle class="st0" cx="244.6" cy="211.2" r="2.3"/>
</g>
<g>
	<ellipse transform="matrix(0.1602 -0.9871 0.9871 0.1602 6.8563 430.4586)" class="st0" cx="256.4" cy="211.2" rx="2.3" ry="2.3"/>
</g>
<g>
	<circle class="st0" cx="232.8" cy="223" r="2.3"/>
</g>
<g>
	<circle class="st0" cx="244.6" cy="223" r="2.3"/>
</g>
<g>
	<ellipse transform="matrix(0.1602 -0.9871 0.9871 0.1602 -4.7913 440.3685)" class="st0" cx="256.4" cy="223" rx="2.3" ry="2.3"/>
</g>
<g>
	<circle class="st0" cx="88" cy="27.7" r="2.3"/>
</g>
<g>
	<circle class="st0" cx="99.9" cy="27.7" r="2.3"/>
</g>
<g>
	<circle class="st0" cx="88" cy="39.5" r="2.3"/>
</g>
<g>
	<circle class="st0" cx="99.9" cy="39.5" r="2.3"/>
</g>
<g>
	<circle class="st0" cx="270.5" cy="128.4" r="2.3"/>
</g>
<g>
	<circle class="st0" cx="282.3" cy="128.4" r="2.3"/>
</g>
<g>
	<circle class="st0" cx="29.9" cy="203.9" r="2.3"/>
</g>
<g>
	<circle class="st0" cx="41.7" cy="203.9" r="2.3"/>
</g>
<g>
	<circle class="st0" cx="270.5" cy="140.2" r="2.3"/>
</g>
<g>
	<circle class="st0" cx="282.3" cy="140.2" r="2.3"/>
</g>
<g>
	<circle class="st0" cx="41.7" cy="215.8" r="2.3"/>
</g>
<g>
	<circle class="st0" cx="53.5" cy="215.8" r="2.3"/>
</g>
<g>
	<circle class="st0" cx="258.7" cy="152.1" r="2.3"/>
</g>
<g>
	<circle class="st0" cx="270.5" cy="152.1" r="2.3"/>
</g>
<g>
	<circle class="st0" cx="282.3" cy="152.1" r="2.3"/>
</g>
<g>
	<circle class="st0" cx="41.7" cy="227.6" r="2.3"/>
</g>
<g>
	<circle class="st0" cx="53.5" cy="227.6" r="2.3"/>
</g>
<g>
	<circle class="st0" cx="258.7" cy="163.9" r="2.3"/>
</g>
<g>
	<circle class="st0" cx="270.5" cy="163.9" r="2.3"/>
</g>
<g>
	<circle class="st0" cx="282.3" cy="163.9" r="2.3"/>
</g>
<g>
	<circle class="st0" cx="215.3" cy="20.4" r="2.3"/>
</g>
<g>
	<circle class="st0" cx="227.1" cy="20.4" r="2.3"/>
</g>
<g>
	<circle class="st0" cx="215.3" cy="32.2" r="2.3"/>
</g>
<g>
	<circle class="st0" cx="227.1" cy="32.2" r="2.3"/>
</g>
<g>
	<circle class="st0" cx="215.3" cy="44.1" r="2.3"/>
</g>
<g>
	<circle class="st0" cx="227.1" cy="44.1" r="2.3"/>
</g>
<g>
	<circle class="st0" cx="215.3" cy="55.9" r="2.3"/>
</g>
<g>
	<circle class="st0" cx="227.1" cy="55.9" r="2.3"/>
</g>
<polygon class="st1" points="43.2,52.2 53.3,42.8 56.4,56.2 59.5,69.6 46.4,65.6 33.2,61.6 "/>
<polygon class="st2" points="34,53.9 44.1,44.4 47.2,57.8 50.3,71.2 37.2,67.3 24,63.3 "/>
<polygon class="st2" points="218,269.1 209.5,258.3 223.1,256.3 236.7,254.4 231.6,267.2 226.5,279.9 "/>
<ellipse transform="matrix(0.2298 -0.9732 0.9732 0.2298 159.6589 289.1377)" class="st2" cx="262.5" cy="43.7" rx="15.2" ry="15.2"/>
<circle class="st2" cx="69.4" cy="264.2" r="21.6"/>
<rect x="199.7" y="98.6" transform="matrix(0.4185 -0.9082 0.9082 0.4185 22.478 257.318)" class="st1" width="25" height="25"/>
<rect x="196.5" y="90.5" transform="matrix(0.4185 -0.9082 0.9082 0.4185 27.9886 249.6822)" class="st2" width="25" height="25"/>
<rect x="34.8" y="133.6" transform="matrix(0.9602 -0.2792 0.2792 0.9602 -39.2235 19.4311)" class="st2" width="27.6" height="27.6"/>
</svg>
