<?xml version="1.0" encoding="utf-8"?>
<!-- Generator: Adobe Illustrator 22.0.0, SVG Export Plug-In . SVG Version: 6.00 Build 0)  -->
<svg version="1.1" id="Camada_1" xmlns="http://www.w3.org/2000/svg" xmlns:xlink="http://www.w3.org/1999/xlink" x="0px" y="0px"
	 viewBox="0 0 4779.5 300" style="enable-background:new 0 0 4779.5 300;" xml:space="preserve">
<style type="text/css">
	.st0{fill:#D7C5AF;}
</style>
<path class="st0" d="M4779.2,271.4V0h-597.4h-597.4H2987h-597.4h-597.4h-597.4H597.4H0v271.4c17.1,0.1,34.2-6.4,47.3-19.4l204-204
	c26-26,68.1-26,94.1,0l204.9,205c13,13,30.1,18.5,47.1,18.5c17.1,0,34.3-6.5,47.3-19.5l204-204c26-26,68.1-26,94.1,0l204.9,205
	c13,13,30.1,18.5,47.1,18.5c17.1,0,34.3-6.5,47.3-19.5l204-203.9c26-26,68.1-26,94.1,0l205,204.9c13,13,30.1,18.5,47.1,18.5
	c17.1,0,34.3-6.5,47.3-19.5l203.9-203.9c26-26,68.1-26,94.1,0l205,204.9c13,13,30.1,18.5,47.1,18.5c17.1,0,34.3-6.5,47.3-19.5
	l204-203.9c26-26,68.1-26,94.1,0l205,204.9c13,13,30.1,18.5,47.1,18.5c17.1,0,34.3-6.5,47.3-19.5l203.9-203.9c26-26,68.1-26,94.1,0
	l205,204.9c13,13,30.1,18.5,47.1,18.5c17.1,0,34.3-6.5,47.3-19.5l204-204c26-26,68.1-26,94.1,0l205,205c13,13,30.1,18.5,47.1,18.5
	c17.1,0,34.3-6.5,47.3-19.5l204-203.9c26-26,68.1-26,94.1,0l205,204.9C4745.5,265.9,4762.5,271.4,4779.2,271.4z"/>
</svg>
