<?xml version="1.0" encoding="utf-8"?>
<!-- Generator: Adobe Illustrator 22.0.0, SVG Export Plug-In . SVG Version: 6.00 Build 0)  -->
<svg version="1.1" id="Camada_1" xmlns="http://www.w3.org/2000/svg" xmlns:xlink="http://www.w3.org/1999/xlink" x="0px" y="0px"
	 viewBox="0 0 15.5 113.5" style="enable-background:new 0 0 15.5 113.5;" xml:space="preserve">
<style type="text/css">
	.st0{fill:#692B82;}
	.st1{fill:#DDC5AE;}
</style>
<rect x="-24.3" y="-7.1" class="st0" width="43.5" height="121.5"/>
<path class="st1" d="M12.6-13.5L7.9-8.7C3-3.9,3,4,7.9,8.8L8,8.9c4.8,4.8,4.8,12.7,0,17.5l-0.2,0.2c-4.8,4.8-4.8,12.7,0,17.5
	l0.7,0.7c4.8,4.8,4.8,12.7,0,17.5l0,0c-4.8,4.8-4.8,12.7,0,17.5L9,80.6c4.8,4.8,4.8,12.7,0,17.5l-1.6,1.6c-4.8,4.8-4.8,12.7,0,17.5
	l7,7c2.3,2.3,5.5,3.6,8.8,3.6h30.6c6.9,0,12.4-5.6,12.4-12.4V-4.7c0-6.9-5.6-12.4-12.4-12.4H21.4C18.1-17.1,14.9-15.8,12.6-13.5z"/>
<rect x="-121" y="-24.3" class="st0" width="75" height="75"/>
<rect x="-121" y="71.8" class="st1" width="82" height="68"/>
</svg>
