<?xml version="1.0" encoding="utf-8"?>
<!-- Generator: Adobe Illustrator 22.0.0, SVG Export Plug-In . SVG Version: 6.00 Build 0)  -->
<svg version="1.1" id="Camada_1" xmlns="http://www.w3.org/2000/svg" xmlns:xlink="http://www.w3.org/1999/xlink" x="0px" y="0px"
	 viewBox="0 0 158.7 116" style="enable-background:new 0 0 158.7 116;" xml:space="preserve">
<style type="text/css">
	.st0{fill:url(#SVGID_1_);}
	.st1{fill:#FFFFFF;}
	.st2{fill:#D8A377;}
	.st3{fill:#C97954;}
	.st4{fill:#6F413A;}
	.st5{fill:#211915;}
	.st6{fill:#6C3F38;}
	.st7{fill:url(#SVGID_2_);}
	.st8{fill:#CA611F;}
	.st9{fill:url(#SVGID_3_);}
	.st10{fill:#ECEDEF;}
</style>
<g>
	
		<radialGradient id="SVGID_1_" cx="28.5194" cy="88.2121" r="71.7361" gradientTransform="matrix(1 0 0 -1 0 116.5833)" gradientUnits="userSpaceOnUse">
		<stop  offset="0.6142" style="stop-color:#253788"/>
		<stop  offset="0.8416" style="stop-color:#243586"/>
		<stop  offset="0.9235" style="stop-color:#23307F"/>
		<stop  offset="0.9817" style="stop-color:#202674"/>
		<stop  offset="1" style="stop-color:#1E216E"/>
	</radialGradient>
	<path class="st0" d="M22.6,87.8c0,0-15.3,0.9-19.2,5.5c-2,2.4-0.6,5.1,1.2,7.2c1.9,2.2,5.1,3.1,7.9,2.2l3.4-1c2-0.6,4.1-0.4,6,0.6
		l6.3,3.6c2.5,1.4,5.6,1.3,8-0.4l1.5-1c2.1-1.5,4.9-1.8,7.3-0.7l2.7,1.2c2.6,1.1,5.6,0.7,7.8-1.1l0,0c2.7-2.2,3.6-6,2-9.1
		c-1.4-2.7-4-5.5-8.9-5.9c-10.4-0.9-9.8-0.5-9.8-0.5"/>
	<path class="st1" d="M24,85.9c0,0-0.4,0-0.9,0c-1.1,0.1-1.9,1.2-1.5,2.3c0.4,1,1.1,1.5,1.1,1.5S28,93,36.7,92
		c8.2-1.3,2.3-4.4,2.3-4.4l-1.7-0.7"/>
	<g>
		<path class="st2" d="M38,85c-0.8,1.6-0.8,3.1,0.2,3.7c0.5,0.3,0.3,1.1-0.3,1.2c-8.4,1.7-12.8-1.4-12.8-1.4s-1.8-1.4-0.4-3.3
			s0.9-5.6,0.9-5.6"/>
		<path class="st3" d="M37.1,85.4l-0.4,1.5c0,0-5.1,0.8-6.6-2.4c-1.6-3.1-0.6-2.4-0.6-2.4l1.8,0.9l1.6,0.7l1.7,0.7L37.1,85.4z"/>
		<path class="st2" d="M25.6,80.5c-1.6-1.7-4.7-8.1-6.3-15.1c-0.2-1-0.4-2-0.3-3.1c0-4.4,1.1-8.4,3.4-15.1c1-3.1,3.2-5.7,6.2-7.2
			c7.7-3.8,15.2-3,15.2-3c5.2-0.1,12,3,12.8,8.1c0,3.6,2.8,3.6,1.8,8.1s0.3,15.3,0,20s-7,14.3-14.5,13.4c-1.8-0.2-3.7-0.6-5.5-1.1
			c-2.1-0.6-7.1-2.7-9-3.5"/>
		<g>
			<path class="st4" d="M50.8,70c-0.8-0.7-1.7-1.2-2.6-1.4c-1-0.2-1.9,0-2.7,0.5c-0.2,0.1-0.4,0.2-0.6,0.4c-0.2,0.2-0.4,0.3-0.5,0.5
				c-0.3,0.4-0.7,0.7-0.9,1.1s-0.3,0.8-0.3,1.2c0,0.4,0.2,0.8,0.5,1.2c0.5,0.7,1.4,1.3,2.2,1.8c0.4,0.2,0.8,0.3,1.3,0.3
				c0.3,0,0.6,0,0.9,0.1c0.3,0.1,0.6,0.4,0.8,0.7c0.3,0.6,0.1,1.4-0.4,1.8s-1.1,0.6-1.6,0.6c-0.6,0-1.1-0.1-1.6-0.1
				c-0.2,0-0.5,0-0.7,0.1s-0.3,0.4-0.4,0.6c0-0.3,0.1-0.5,0.3-0.7s0.5-0.2,0.8-0.3c0.5,0,1,0,1.5-0.1s0.9-0.3,1.2-0.6
				c0.3-0.3,0.4-0.7,0.2-1s-0.5-0.3-1-0.3s-1.2-0.1-1.7-0.3c-1-0.5-1.9-1.1-2.6-2c-0.3-0.5-0.6-1-0.7-1.7c0-0.6,0.2-1.3,0.5-1.7
				c0.3-0.5,0.7-0.9,1.1-1.3c0.4-0.4,0.9-0.7,1.4-0.9c1-0.5,2.2-0.7,3.2-0.3C49.3,68.5,50.2,69.1,50.8,70z"/>
		</g>
		<path class="st3" d="M47.9,65.8c0,0,0.1,1.8,1.4,2.1c0.8,0.2,1.4,0.3,2.1,0.3c0.8-0.1,1.5-0.7,1.7-1.5c0.1-0.4,0-0.7,0-0.7
			l-0.7,0.6l-0.6,0.3H51l-1.1-0.2l-1-0.5L47.9,65.8L47.9,65.8z"/>
		<g>
			<path class="st4" d="M50.8,62c0.8,0.4,1.7,0.9,2.3,1.7c0.3,0.4,0.6,0.9,0.6,1.5c0.1,0.6-0.3,1.2-0.6,1.6
				c-0.2,0.2-0.4,0.3-0.6,0.5c-0.2,0.1-0.5,0.2-0.8,0.3c-0.5,0.1-1.1,0-1.6-0.1c-0.9-0.3-1.7-1-2.2-1.7c0.8,0.4,1.6,0.8,2.4,1
				c0.8,0.1,1.5,0,2.1-0.6c0.6-0.5,0.5-1.1,0.1-1.9C52.1,63.3,51.4,62.7,50.8,62z"/>
		</g>
	</g>
	<path class="st5" d="M43.4,55.8c0,0-0.7,2.2,1.4,2.2c2.1,0.1,1.8-2,1.8-2L43.4,55.8z"/>
	<path class="st5" d="M53.9,56.2c0,0-0.5,1.9,1.2,1.9c1.8,0.1,1.5-1.7,1.5-1.7L53.9,56.2z"/>
	<path class="st5" d="M43.8,86.8c0,0-0.1-3.1,0.7-3.6c1.1-0.7,2.4-1.3,4-0.9s1.9,1.9,2.1,2.6c-1.1,0.7-2.1,1.2-2.1,1.2l-1.2,0.4
		l-1.5,0.3l-1.2,0.1L43.8,86.8z"/>
	<path class="st5" d="M56.3,43c-1.9-4.1-7.8-6.5-12.5-6.4c0,0-7.7-0.9-15.6,3c-3,1.5-5.2,4.2-6.3,7.3c-2.3,6.8-3.4,10.9-3.4,15.4
		c0,1.1,0.1,2.1,0.3,3.1c0.6,2.6,1.3,5.1,2.2,7.3c0.9-0.3,2.4-1.3,2.3-3.8c0.5-6.1-1.9-8.1,2.4-9.9c1.7,3.3,1.3,3.5,3.2,5.6
		c-1.1-3.1-2.4-13.8,5.8-13.3c0.9-5.7,0.2-8.1,1.7-8.7C38,42.1,49.7,41.8,56.3,43z"/>
	<path class="st5" d="M40.3,51.1c0,0,3.7-2.8,8.6-0.4c0.2-0.8,0.2-0.8,0-1.7c-0.7-0.8-6.5-1.6-8.9,0.3C40,49.8,40,50.7,40.3,51.1z"
		/>
	<path class="st5" d="M53.6,49.3c0,0-0.2,1,0,1.4c0.8-0.3,3.2-1.1,4.6,0c-0.1-0.9-0.3-1.4-0.3-1.4S57.7,48.1,53.6,49.3z"/>
	<g>
		<g>
			<path class="st2" d="M26.6,58.8L26.6,58.8c-1.2-1.1-2.9-0.9-3.9,0.2c-1.3,1.5-2.1,2.7-1.4,5.6c0.2,0.7,0.5,1.3,1,1.8
				c1.7,1.7,2.5,2.1,3.5,2.2c1.2,0.1,2.9-1.4,2.1-2.5"/>
			<path class="st6" d="M26.6,58.8c-0.7-0.6-1.6-0.7-2.4-0.5c-0.4,0.1-0.8,0.3-1.1,0.5c-0.3,0.3-0.5,0.6-0.8,1
				c-0.5,0.7-0.9,1.4-1,2.2c-0.1,0.8,0,1.6,0.2,2.4c0.2,0.8,0.6,1.4,1.2,2s1.2,1.2,1.9,1.6c0.3,0.2,0.7,0.3,1.1,0.3s0.8-0.1,1.1-0.3
				c0.3-0.2,0.7-0.5,0.9-0.8c0.2-0.3,0.3-0.8,0-1.2c0.3,0.3,0.3,0.9,0.1,1.3c-0.2,0.4-0.5,0.8-0.9,1c-0.4,0.3-0.8,0.5-1.3,0.5
				s-0.9-0.1-1.4-0.3c-0.9-0.4-1.5-1-2.2-1.6s-1.2-1.4-1.4-2.4c-0.2-0.9-0.3-1.8-0.1-2.7c0.2-0.9,0.6-1.8,1.2-2.4
				c0.3-0.3,0.6-0.7,0.9-1c0.4-0.3,0.8-0.5,1.3-0.5C25.1,57.8,26.1,58.1,26.6,58.8z"/>
		</g>
		<g>
			<g>
				<path class="st4" d="M25.4,60.1c-0.8,0.4-1.5,0.9-1.8,1.5c-0.1,0.3-0.2,0.7-0.2,1c0,0.4,0.1,0.8,0.2,1.1
					c0.1,0.4,0.2,0.7,0.4,0.8c0.1,0.1,0.4,0.1,0.8-0.1c0.5-0.2,1.1-0.2,1.5,0.1c0.2,0.2,0.4,0.5,0.3,0.7c0,0.3-0.1,0.5-0.3,0.6
					c0.1-0.4,0-0.8-0.3-0.9s-0.7,0-0.9,0.1c-0.3,0.2-1,0.5-1.6,0.1c-0.5-0.4-0.7-0.9-0.9-1.3c-0.1-0.5-0.2-0.9-0.2-1.4
					s0.2-1,0.5-1.4C23.6,60.4,24.6,60.1,25.4,60.1z"/>
			</g>
			<g>
				<path class="st4" d="M23,63.7c-0.1-0.6,0.3-1.1,0.8-1.4c0.3-0.1,0.6-0.2,0.9-0.1c0.3,0,0.6,0.2,0.7,0.5
					c-0.6,0.2-0.9,0.4-1.2,0.5C23.9,63.3,23.6,63.5,23,63.7z"/>
			</g>
		</g>
	</g>
	
		<radialGradient id="SVGID_2_" cx="-108.1924" cy="106.6968" r="101.7029" gradientTransform="matrix(-1 0 0 -1 19 116.5833)" gradientUnits="userSpaceOnUse">
		<stop  offset="0.8528" style="stop-color:#B74360"/>
		<stop  offset="0.9155" style="stop-color:#B33353"/>
		<stop  offset="1" style="stop-color:#AD183D"/>
	</radialGradient>
	<path class="st7" d="M110.5,101.4c0.7-0.3,1.5-0.6,2.3-0.8c4.9-1,23.2-4.3,35.1,1.1c3.5,1.6,5.5,3.3,6.5,4.9
		c2.6,4.2-1.5,9.3-6.2,7.9l-5.3-1.6c-2.9-0.9-6-0.7-8.7,0.6l-3.5,1.6c-2.1,1-4.6,1-6.7,0.1l-5.7-2.5c-2.8-1.2-5.9-1.3-8.8-0.2
		l-3.7,1.4c-3.4,1.3-6.4-2.5-4.4-5.6C102.8,106.1,105.5,103.8,110.5,101.4z"/>
	<path class="st1" d="M133,96.9c0,0,1.8,2,3,2c0.4,1.3-1.8,5.8-8.8,5.7c-6.7-0.1-6.4-5.3-6.4-5.3s2.3-0.3,3.2-1.8"/>
	<path class="st2" d="M132.9,88.1c0,0-1.7,8.5,1.3,11.5c-2.6,2.9-7.8,5.6-11.3,0.9c1.8-3.4,2.2-6.4,1.8-8.4"/>
	<path class="st3" d="M124.5,89.5c0,0,0.4,1.6,1.4,5.3c2.5,1.9,5.6-4.8,6.9-8.4C128,86.8,124.5,89.5,124.5,89.5z"/>
	<path class="st2" d="M111.5,54.7c0,0-2.2,10.7-4.6,15.4c-0.6,1.3-0.9,2.7-1,4.1c-0.1,5,0.5,8,4.3,13.8c4.4,6.8,4.3,6.4,5.7,6.6
		s4.3-1,4.3-1s10.9-3.4,14.2-6.8s7.3-10.8,7.3-10.8l-1.4-12.1l-2.6-11.2l-10.4-5.8h-7.4l-5.8,2.8L111.5,54.7z"/>
	<path class="st5" d="M133.1,58.3c0,0-12-2.5-12.9-8.3l0,0c-2.5,3.5-5.5,7-9.7,6.3c-4.2-0.6,0.5-14.8,15.7-12.8
		c15.2,2.3,20.8,15.9,20.8,30.4l0,0c0,0-3,9.2,0,13.6c-5.3,4-10.9,5-17-0.7l0,0c6.5-6,6-9,6.3-11.6s3.4-2.8,3.4-2.8l-4.4-3.3
		c0,0-2.9,1.3-4.2,2.7C133.2,66.7,134,59.7,133.1,58.3z"/>
	<g>
		<path class="st2" d="M134.8,69.9c0,0-0.3-2.4,2.5-2.6c2.8,0.5,3.8,4.7,2.9,6.4c-0.8,1.7-3,3.4-3.7,3.5c-0.6,0.1-1.8,0.1-1.8-1.1"
			/>
		<path class="st6" d="M134.8,69.9c-0.1-0.7,0-1.4,0.5-2c0.2-0.3,0.6-0.5,0.9-0.6c0.3-0.1,0.7-0.2,1.1-0.3l0,0l0,0
			c0.7,0.1,1.4,0.4,1.9,0.9s0.9,1.1,1.2,1.7c0.5,1.3,0.7,2.7,0.2,4.1c-0.6,1.3-1.6,2.2-2.7,2.9c-0.3,0.2-0.6,0.4-0.9,0.5
			c-0.1,0.1-0.3,0.1-0.5,0.2c-0.2,0-0.3,0-0.5,0c-0.3,0-0.7-0.1-1-0.4c-0.3-0.2-0.3-0.6-0.3-0.9c0,0.3,0.2,0.6,0.4,0.8
			c0.2,0.2,0.6,0.2,0.9,0.2c0.2,0,0.3,0,0.5-0.1c0.1,0,0.2-0.1,0.4-0.2c0.3-0.2,0.5-0.3,0.8-0.5c0.9-0.8,1.8-1.8,2.3-2.8
			c0.2-0.5,0.2-1.1,0.2-1.7c-0.1-0.6-0.2-1.2-0.4-1.8c-0.4-1.1-1.3-2.1-2.4-2.4h0.1c-0.3,0-0.6,0-1,0.1c-0.3,0.1-0.6,0.2-0.8,0.4
			C135,68.6,134.8,69.2,134.8,69.9z"/>
	</g>
	<path class="st5" d="M125.3,65.6c0,0-1.2-1.6-6.5-0.9c-1.3-2.1,0.3-3.5,0.3-3.5s-0.2,1.8,1.3,1.8C121.9,63.1,125.3,63.8,125.3,65.6
		z"/>
	<path class="st5" d="M114.3,64c0,0-2.4-0.5-3.5,0c-0.4-1.2-0.1-1.7,0.5-2.8c0.2,1.5,0.3,1.3,0.3,1.3S113.8,62.2,114.3,64z"/>
	<path class="st5" d="M122.7,64c0,0,0.3,2.2-0.9,2.3c-1.2,0-1.3-1.7-1.2-2.5C120.7,63,122.7,64,122.7,64z"/>
	<path class="st5" d="M112.7,63.5c0,0,0.4,1.6-0.5,1.8c-0.9,0.1-1.1-1.2-1-1.8C111.2,62.9,112.7,63.5,112.7,63.5z"/>
	<path class="st3" d="M115.9,73.3c0,0,0,1.1-1.1,1.3c-1,0.2-2.8,0.2-3.1-0.2s0.5-1.3,0.7-1.6s0.5,0.4,0.5,0.4L115.9,73.3z"/>
	<g>
		<g>
			<path class="st4" d="M114.3,78.6c1.5-0.4,3.1-0.8,4.8-0.3c0.2,0.1,0.4,0.2,0.6,0.3c0.2,0.1,0.4,0.3,0.5,0.4
				c0.3,0.3,0.6,0.7,0.8,1.1c0.4,0.8,0.3,1.9-0.2,2.7c-0.5,0.8-1.4,1.3-2.3,1.4s-1.8-0.2-2.4-0.3c-0.2,0-0.3,0-0.4,0.1
				s-0.3,0.2-0.4,0.3c-0.2,0.2-0.3,0.5-0.2,0.8c0.1,0.1,0.2,0.3,0.3,0.4c0.1,0,0.1,0.1,0.2,0.1s0.2,0.1,0.3,0.1
				c0.4,0.3,0.5,0.8,0.3,1.1c0.2-0.4-0.1-0.8-0.4-0.9c-0.1,0-0.2-0.1-0.2-0.1s-0.3,0-0.4-0.1c-0.2-0.1-0.4-0.3-0.5-0.5
				c-0.3-0.4-0.2-1,0.1-1.4c0.2-0.2,0.3-0.3,0.5-0.5c0.2-0.1,0.5-0.2,0.7-0.2c0.9,0,1.6,0.3,2.3,0.1c0.7-0.1,1.3-0.5,1.6-1
				c0.4-0.5,0.4-1.2,0.2-1.8c-0.1-0.3-0.3-0.6-0.5-0.9s-0.5-0.4-0.8-0.6c-0.6-0.3-1.4-0.4-2.2-0.5C115.8,78.5,115,78.6,114.3,78.6z"
				/>
		</g>
		<g>
			<path class="st4" d="M136.5,69.7c0.7,0,1.6,0.2,2.1,0.9c0.3,0.4,0.4,0.8,0.4,1.2c0,0.4,0,0.8-0.1,1.2c-0.1,0.4-0.3,0.8-0.8,1.2
				c-0.5,0.3-1.2,0.1-1.4-0.1c-0.4-0.3-1.2-0.3-1,0.6c-0.1-0.1-0.2-0.3-0.3-0.5c0-0.2,0.1-0.5,0.3-0.6c0.4-0.3,0.9-0.3,1.3-0.1
				c0.4,0.1,0.5,0.1,0.6,0s0.2-0.3,0.3-0.6c0.1-0.3,0.1-0.6,0.2-0.9c0-0.3,0-0.6-0.1-0.8C137.8,70.5,137.2,70.1,136.5,69.7z"/>
		</g>
		<g>
			<path class="st4" d="M138.6,72.7c-0.5-0.1-0.8-0.3-1.1-0.4l-1-0.5c0.1-0.3,0.4-0.4,0.6-0.5c0.3-0.1,0.5,0,0.8,0.1
				C138.4,71.7,138.7,72.2,138.6,72.7z"/>
		</g>
		<g>
			<path class="st4" d="M115,68.5c-0.1,0.8-0.3,1.5-0.6,2.3c-0.3,0.7-0.7,1.4-1.2,2.1c-0.1,0.1-0.1,0.2-0.2,0.2
				c-0.1,0.1-0.2,0.2-0.1,0c0-0.1,0-0.2-0.1-0.3l-0.1-0.1h0.1c0.4,0,0.8,0,1.2,0.1c0.8,0.1,1.5,0.2,2.3,0.4
				c-0.8,0.2-1.5,0.3-2.3,0.4c-0.4,0-0.8,0.1-1.2,0.1c-0.1,0-0.1,0-0.2,0s-0.3-0.1-0.4-0.2c-0.2-0.2-0.3-0.5-0.2-0.8
				c0-0.1,0.2-0.3,0.2-0.3l0.1-0.1c0.1-0.1,0.1-0.1,0.2-0.2c0.5-0.5,0.9-1.1,1.3-1.8C114.1,69.8,114.5,69.2,115,68.5z"/>
		</g>
	</g>
	<path class="st5" d="M127.4,61c0,0-3.5-2.9-9.1-1.5c-0.1-1.5,0.6-1.8,0.6-1.8S127.5,57.7,127.4,61z"/>
	<path class="st5" d="M114.3,59.3c0,0,0.5-0.8,0.3-1.7c-1,0.1-3-0.4-3.8,0.4c-0.2,1.1-0.2,1.1-0.2,1.1S112,58.2,114.3,59.3z"/>
	<path class="st8" d="M61.8,42.8c0,0,6.8-4.3,5.5-9.2c-8-2.7-22.4-13.3-16.2-21.5S73.3-1.4,83,0.7s26.8,16.9,13.1,24.9
		S75,34.3,75,34.3S70.6,42.1,61.8,42.8z"/>
	
		<linearGradient id="SVGID_3_" gradientUnits="userSpaceOnUse" x1="70.6268" y1="64.8219" x2="110.193" y2="64.8219" gradientTransform="matrix(1 0 0 -1 0 116.5833)">
		<stop  offset="0" style="stop-color:#B74360"/>
		<stop  offset="1" style="stop-color:#B74360"/>
	</linearGradient>
	<path class="st9" d="M90.9,59.8c0,0-20.3,7.5-20.2-3.3c0-10.4,1.5-14.8,22.1-24.2s22.1,10.2,9.1,24s-3.8,15.4-2,17.4
		C95.8,72,90.8,75.3,90.9,59.8z"/>
	<g>
		<path class="st5" d="M41.1,56.8c0-0.4,0.4-0.8,0.7-1c0.4-0.2,0.8-0.4,1.2-0.4c0.8-0.2,1.7-0.1,2.4,0l1.2,0.1
			c0.5,0,1.1,0.5,1.1,0.5s-0.1,0-0.1,0.1c0,0,0,0,0-0.1s0-0.3,0-0.5c-0.1-0.4-0.2-0.7-0.3-1.1c0.3,0.3,0.6,0.6,0.8,1
			c0.1,0.2,0.2,0.4,0.2,0.7c0,0.1,0,0.3-0.1,0.5s-0.4,0.3-0.6,0.3c-0.4,0-0.6-0.2-0.7-0.3c-0.2-0.1-0.2-0.1-0.4-0.1
			c-0.3,0-0.8,0-1.2-0.1c-0.8-0.1-1.5-0.2-2.2-0.2S41.6,56.2,41.1,56.8z"/>
	</g>
	<g>
		<path class="st5" d="M52.7,56.9c0.4-0.5,0.9-0.8,1.4-1.1c0.6-0.2,1.2-0.4,1.9-0.3c0.3,0,0.7,0.1,0.9,0.3l0.4,0.2
			c0.1,0,0,0-0.1,0.1c0,0.1,0.1-0.2,0.1-0.3c0-0.2-0.1-0.3-0.2-0.3h-0.2c-0.2-0.2-0.4-0.3-0.5-0.6c-0.1-0.2-0.3-0.5-0.1-0.7
			c0,0.2,0.2,0.4,0.4,0.5s0.4,0.2,0.6,0.3h-0.2c0.2,0,0.5,0,0.6,0.2c0.2,0.2,0.3,0.3,0.3,0.5c0.1,0.2,0.1,0.4,0.1,0.6
			c0,0.2-0.1,0.5-0.3,0.7c-0.3,0.2-0.7,0.2-0.9,0.1l-0.4-0.2c-0.2-0.1-0.4-0.2-0.7-0.2C54.9,56.3,53.8,56.6,52.7,56.9z"/>
	</g>
</g>
<g>
	<path class="st10" d="M66.3,20.6c-0.4,0.2-1.2,0.3-2.1,0.2l-0.3,0.5c0.4,0.1,0.8,0.5,0.8,1c-0.1,0.7-0.7,0.9-1.3,0.9
		c-0.3,0-0.6-0.1-0.8-0.3l0.2-0.5c0.2,0.1,0.4,0.2,0.7,0.2s0.5-0.1,0.5-0.3c0-0.3-0.3-0.5-0.9-0.6l0.6-0.9c-1.9-0.4-3.2-1.9-3-4.3
		c0.2-2.5,2.1-4.1,4.6-3.9c1,0.1,1.6,0.4,1.9,0.5l-0.3,0.8c-0.4-0.2-0.9-0.4-1.6-0.5c-1.9-0.2-3.2,0.9-3.4,3c-0.2,2,0.9,3.3,2.8,3.5
		c0.6,0.1,1.3,0,1.7-0.2L66.3,20.6z"/>
	<path class="st10" d="M69.4,15.1c0.1,0,0.3,0,0.4,0c0.2,0,0.4,0.1,0.6,0.2s0.4,0.2,0.5,0.2s0.3,0.1,0.3,0.2
		c0.1,0.1,0.1,0.1,0.1,0.2s0,0.2,0,0.4c0,0.6-0.1,1.2-0.1,1.9c0,0.7,0,1.1,0.1,1.4c0,0.1,0,0.1,0,0.1c0,0.1-0.1,0.2-0.2,0.3
		c-0.1,0.1-0.2,0.1-0.3,0.1c-0.1,0-0.1,0-0.2,0c-0.1-0.1-0.2-0.2-0.2-0.4s-0.1-0.4-0.1-0.6s0-0.3-0.1-0.3c0,0-0.1,0.1-0.3,0.3
		c-0.3,0.3-0.5,0.5-0.7,0.6s-0.5,0.2-0.8,0.1h-0.2c-0.1,0-0.2-0.1-0.4-0.3c-0.2-0.2-0.3-0.3-0.3-0.5c-0.1-0.4-0.2-0.8-0.1-1.3
		c0-0.2,0-0.3,0.1-0.5c0.1-0.5,0.4-1,0.8-1.5C68.6,15.5,69,15.2,69.4,15.1z M69.9,16.2c-0.1-0.1-0.2-0.1-0.2-0.1s-0.1,0-0.2,0.1
		c-0.3,0.1-0.6,0.3-0.8,0.7c-0.2,0.4-0.4,0.7-0.4,1.1c0,0.2,0,0.3,0,0.6c0,0.2,0.1,0.3,0.1,0.4s0.1,0.1,0.1,0.1
		c0.2,0,0.5-0.2,0.8-0.7c0.1-0.2,0.3-0.4,0.3-0.5c0.1-0.2,0.2-0.4,0.3-0.7c0.1-0.3,0.1-0.4,0.1-0.5C70.2,16.4,70.1,16.3,69.9,16.2z"
		/>
	<path class="st10" d="M78.9,15.3c0.1,0,0.1,0,0.2,0s0.3,0.1,0.4,0.2s0.1,0.2,0.1,0.3c0,0.1-0.1,0.3-0.3,0.7c-0.4,0.7-0.7,1.3-1,2
		c0,0.1-0.1,0.1-0.1,0.3c0,0.1-0.1,0.2-0.1,0.2L78,19.2c0,0.1-0.1,0.2-0.1,0.2c-0.3,0.8-0.5,1.2-0.6,1.4c-0.1,0.1-0.2,0.1-0.3,0.1
		c-0.3,0-0.4-0.2-0.5-0.4c-0.1-0.1-0.1-0.4-0.2-0.8s-0.1-0.6-0.1-0.7s0-0.2-0.1-0.2C76,18.7,76,18.6,76,18.4
		c-0.2-1.4-0.5-2.2-0.6-2.4c-0.1-0.1-0.2-0.3-0.1-0.4c0-0.2,0.1-0.3,0.3-0.4c0.1,0,0.2-0.1,0.3-0.1c0.1,0,0.3,0.1,0.4,0.2
		s0.2,0.2,0.2,0.2s0,0.2,0.1,0.6c0.1,0.2,0.2,0.8,0.4,1.7c0.1,0.6,0.2,0.8,0.2,0.8s0,0,0.1-0.1c0.1-0.4,0.4-0.9,0.7-1.6
		c0.3-0.7,0.6-1.2,0.8-1.4C78.8,15.4,78.9,15.3,78.9,15.3z"/>
	<path class="st10" d="M82.3,16.3c0.1,0,0.3,0,0.4,0c0.2,0,0.4,0.1,0.6,0.2s0.4,0.2,0.5,0.2s0.3,0.1,0.3,0.2
		c0.1,0.1,0.1,0.1,0.1,0.2s0,0.2,0,0.4c0,0.6-0.1,1.2-0.1,1.9c0,0.7,0,1.1,0.1,1.4c0,0.1,0,0.1,0,0.1c0,0.1-0.1,0.2-0.2,0.3
		c0,0.1-0.1,0.1-0.2,0.1s-0.1,0-0.2,0c-0.1-0.1-0.2-0.2-0.2-0.4c-0.1-0.2-0.1-0.4-0.1-0.6s0-0.3-0.1-0.3c0,0-0.1,0.1-0.3,0.3
		c-0.3,0.3-0.5,0.5-0.7,0.6s-0.5,0.2-0.8,0.1h-0.2c-0.1,0-0.2-0.1-0.4-0.3c-0.2-0.2-0.3-0.3-0.3-0.5c-0.1-0.4-0.2-0.8-0.1-1.3
		c0-0.2,0-0.3,0.1-0.5c0.1-0.5,0.4-1,0.8-1.5C81.6,16.6,81.9,16.3,82.3,16.3z M82.8,17.3c-0.1-0.1-0.2-0.1-0.2-0.1s-0.1,0-0.2,0.1
		c-0.3,0.1-0.6,0.3-0.8,0.7c-0.2,0.4-0.4,0.7-0.4,1.1c0,0.2,0,0.3,0,0.6c0,0.2,0.1,0.3,0.1,0.4s0.1,0.1,0.1,0.1
		c0.2,0,0.5-0.2,0.8-0.7c0.1-0.2,0.3-0.4,0.3-0.5c0.1-0.2,0.2-0.4,0.3-0.7c0.1-0.3,0.1-0.4,0.1-0.5C83.1,17.5,83,17.4,82.8,17.3z"/>
	<path class="st10" d="M89.4,14.6c0.2-0.1,0.4-0.1,0.6-0.1c0.5,0,0.8,0.2,1.1,0.6c0.3,0.3,0.4,0.7,0.4,1.2c0,0.1,0,0.2-0.1,0.4
		c-0.1,0.3-0.2,0.5-0.4,0.7c-0.2,0.2-0.5,0.6-0.9,1c-0.3,0.3-0.5,0.5-0.6,0.6s-0.1,0.2-0.1,0.3c0,0.2-0.1,0.3-0.2,0.4
		s-0.2,0.1-0.3,0.1c-0.1,0-0.3-0.1-0.3-0.2c-0.1-0.1-0.1-0.2-0.2-0.4v-0.1c0-0.3,0.3-0.7,0.8-1.3c0.7-0.7,1.1-1.2,1.1-1.6
		c0-0.2,0-0.4-0.2-0.5c-0.1-0.1-0.2-0.2-0.4-0.2c-0.2,0-0.3,0-0.5,0.1c-0.1,0.1-0.2,0.1-0.2,0.2l0,0l0,0v0.1c0,0.2-0.1,0.4-0.3,0.4
		c-0.1,0-0.1,0-0.2,0s-0.1,0-0.2-0.1c-0.3-0.1-0.4-0.4-0.4-0.6s0.1-0.5,0.4-0.7C88.8,14.8,89.1,14.7,89.4,14.6z M89.2,21.3
		c0.1-0.1,0.3-0.1,0.4-0.1s0.2,0,0.2,0.1c0.1,0,0.1,0.1,0.2,0.2s0.1,0.2,0.1,0.3c0,0.1-0.1,0.2-0.2,0.3c-0.1,0.1-0.2,0.1-0.4,0.2
		h-0.1c-0.1,0-0.2-0.1-0.3-0.2c-0.1-0.1-0.2-0.3-0.2-0.4C89,21.5,89.1,21.4,89.2,21.3z"/>
</g>
<g>
	<path class="st10" d="M79.8,46.2c0.1-0.1,0.2-0.2,0.3-0.3c0.1,0,0.2,0,0.2,0c0.1,0,0.3,0,0.7-0.1c0.7-0.2,1.4-0.2,2.1,0.2
		c0.4,0.2,0.6,0.5,0.7,0.7c0,0.1,0,0.2,0,0.4s-0.1,0.3-0.2,0.5s-0.2,0.4-0.3,0.5s-0.1,0.2-0.1,0.2s0.1,0.1,0.4,0.1
		c0.4,0.1,0.7,0.2,1,0.4s0.5,0.4,0.5,0.7c0.1,0.2,0.1,0.4,0,0.6c-0.1,0.2-0.2,0.4-0.3,0.6c-0.2,0.2-0.4,0.4-0.6,0.6
		c-0.5,0.3-0.8,0.6-1.1,0.7c-0.3,0.1-0.4,0.2-0.5,0.3s-0.1,0.1-0.2,0.2c-0.1,0-0.3,0-0.4-0.1s-0.2-0.2-0.3-0.3
		c-0.1-0.2-0.4-1.1-0.9-2.5c-0.5-1.5-0.9-2.4-1-2.7c0-0.1-0.1-0.1-0.1-0.2C79.7,46.5,79.7,46.4,79.8,46.2z M82.1,46.7
		c-0.3-0.1-0.6,0-0.9,0.1c-0.1,0-0.1,0-0.2,0.1L80.9,47l0.3,0.8c0.2,0.5,0.3,0.8,0.3,0.8l0,0c0.1,0,0.2-0.2,0.6-0.5
		c0.3-0.3,0.5-0.5,0.6-0.7l0.2-0.3L82.7,47C82.5,46.8,82.3,46.7,82.1,46.7z M83.6,49.4c-0.3-0.1-0.5-0.1-0.7-0.1s-0.4,0-0.4,0.1
		c0,0-0.1,0-0.2,0.1c-0.1,0-0.1,0.1-0.2,0.1l-0.2,0.1l0.2,0.4c0.1,0.3,0.2,0.6,0.3,0.8c0.1,0.2,0.1,0.3,0.2,0.3c0,0,0.1,0,0.2,0
		s0.3-0.1,0.5-0.3s0.4-0.3,0.6-0.4c0.1-0.1,0.2-0.2,0.4-0.4c0.1-0.2,0.1-0.2,0.1-0.3c0,0,0-0.1-0.1-0.1
		C84.1,49.6,83.9,49.5,83.6,49.4z"/>
	<path class="st10" d="M84.9,44.7c0.1-0.1,0.2-0.2,0.3-0.2c0.1,0,0.2,0,0.4,0c0.1,0.1,0.2,0.2,0.3,0.3c0,0.1,0,0.3,0,0.4
		c-0.1,0.2-0.2,0.3-0.3,0.3c-0.2,0.1-0.3,0-0.5-0.1C85,45.3,85,45.3,85,45.2C84.8,45.1,84.8,44.9,84.9,44.7z M85.5,46.1
		c0-0.1,0.1-0.2,0.3-0.2c0.2-0.1,0.3,0,0.5,0.1c0.1,0.1,0.2,0.2,0.3,0.4c0.1,0.2,0.3,0.8,0.6,1.8l0.7,2.1l-0.1,0.2
		c-0.1,0.1-0.2,0.2-0.3,0.2c-0.2,0.1-0.3,0-0.5-0.2c-0.1,0-0.3-0.8-0.8-2.2c-0.3-0.8-0.5-1.4-0.5-1.7C85.5,46.4,85.5,46.2,85.5,46.1
		z"/>
	<path class="st10" d="M88.7,44.6c0.2-0.1,0.3-0.2,0.5-0.3s0.4-0.1,0.5,0c0.3,0,0.5,0.1,0.7,0.2c0.2,0.1,0.4,0.3,0.6,0.6
		c0.1,0.1,0.1,0.2,0.1,0.3c0.1,0.4,0.1,0.8-0.2,1.2c-0.2,0.4-0.6,0.8-1.1,1c-0.1,0.1-0.2,0.1-0.4,0.2c-0.1,0-0.1,0-0.2,0H89l0.2,0.5
		c0.1,0.3,0.2,0.6,0.4,0.7c0.1,0.1,0.2,0.2,0.2,0.2s0.1,0,0.3,0h0.1c0.2,0,0.4-0.2,0.7-0.5c0.3-0.3,0.5-0.5,0.7-0.5
		c0.1,0,0.2,0,0.3,0c0.1,0.1,0.2,0.1,0.2,0.2c0.1,0.2-0.1,0.6-0.6,1.1c-0.2,0.2-0.4,0.3-0.5,0.4c-0.1,0.1-0.3,0.1-0.5,0.2
		c-0.4,0.1-0.5,0.2-0.6,0.2s-0.2,0-0.3-0.1c-0.2-0.1-0.4-0.2-0.6-0.4s-0.3-0.3-0.3-0.4s-0.1-0.3-0.3-0.7l-0.1-0.3
		c-0.4-1.3-0.4-2.4,0-3.2C88.4,44.9,88.5,44.7,88.7,44.6z M89.7,45.3c-0.1,0-0.2,0-0.3,0c-0.1,0-0.2,0.1-0.3,0.3
		c-0.1,0.1-0.1,0.3-0.2,0.6s-0.1,0.5,0,0.6V47l0.4-0.1c0.3-0.1,0.4-0.2,0.6-0.3c0.1-0.1,0.2-0.3,0.3-0.4c0.1-0.2,0.1-0.3,0.1-0.4
		c0-0.1-0.1-0.2-0.2-0.3C89.9,45.4,89.8,45.3,89.7,45.3z"/>
	<path class="st10" d="M94.4,43.2c0.1-0.2,0.3-0.3,0.5-0.4c0.3-0.1,0.6,0,0.8,0.2s0.4,0.8,0.7,1.5c0.2,0.7,0.4,1.7,0.7,3.2
		c0.1,0.4,0,0.7-0.3,0.8c-0.2,0.1-0.3,0-0.4,0s-0.2-0.2-0.3-0.5c0-0.2-0.1-0.4-0.2-0.7c-0.2-1-0.4-1.9-0.6-2.6
		c-0.1-0.4-0.2-0.6-0.3-0.6c-0.1,0-0.2,0.5-0.4,1.4c-0.2,0.9-0.3,1.8-0.4,2.6c-0.1,0.4-0.1,0.7-0.2,0.8c0,0.2-0.1,0.2-0.2,0.3
		c0,0-0.1,0-0.2,0c-0.2,0-0.4-0.1-0.5-0.4c-0.2-0.3-0.4-0.8-0.6-1.5c-0.1-0.5-0.2-0.8-0.3-1.1c-0.2-0.9-0.4-1.4-0.4-1.6
		c0-0.2,0-0.4,0.1-0.6c0-0.1,0.1-0.1,0.2-0.2c0.1,0,0.2,0,0.3,0c0.1,0,0.2,0.1,0.2,0.2c0,0,0.1,0.5,0.4,1.4c0.1,0.4,0.2,0.7,0.2,0.8
		c0.1,0.2,0.1,0.3,0.2,0.3c0,0,0.1-0.3,0.2-0.9C93.8,44.4,94.1,43.6,94.4,43.2z"/>
	<path class="st10" d="M98.8,39.9C98.9,39.9,98.9,39.9,98.8,39.9c0.3-0.1,0.4-0.1,0.6,0.1c0.1,0.1,0.3,0.6,0.6,1.5l0.3,1.1L101,45
		l-0.1,0.2c-0.1,0.1-0.2,0.2-0.3,0.2c-0.1,0-0.2,0-0.4-0.1l-0.2-0.1l-0.8-2.5c-0.4-1.2-0.6-2-0.7-2.2s-0.1-0.4,0-0.5
		C98.8,40,98.8,39.9,98.8,39.9z M100.6,46.2c0.1-0.2,0.2-0.3,0.3-0.3c0.1,0,0.3,0,0.4,0c0.1,0.1,0.2,0.2,0.3,0.4c0,0.2,0,0.3,0,0.4
		c-0.1,0.1-0.2,0.2-0.3,0.3c-0.2,0-0.3,0-0.5-0.1c-0.1-0.1-0.2-0.2-0.3-0.3C100.5,46.5,100.5,46.3,100.6,46.2z"/>
</g>
</svg>
