<?xml version="1.0" encoding="utf-8"?>
<!-- Generator: Adobe Illustrator 22.0.0, SVG Export Plug-In . SVG Version: 6.00 Build 0)  -->
<svg version="1.1" id="Camada_1" xmlns="http://www.w3.org/2000/svg" xmlns:xlink="http://www.w3.org/1999/xlink" x="0px" y="0px"
	 viewBox="0 0 257 280.5" style="enable-background:new 0 0 257 280.5;" xml:space="preserve">
<style type="text/css">
	.st0{fill:#642A7B;}
</style>
<g>
	<g>
		<path class="st0" d="M172.5,276.1l-37.4-69.9c-2.8-5.2-10.2-5.2-13.1,0l-37.9,69.9c-1.3,2.4-3.8,3.9-6.5,3.9H7.4
			c-5.7,0-9.3-6.2-6.4-11.1l75.5-130.8c1.3-2.3,1.3-5.2,0-7.5L5.9,11.5C3,6.5,6.5,0.3,12.3,0.3h69.5c2.7,0,5.3,1.5,6.6,3.9
			l33.3,62.9c2.8,5.2,10.3,5.3,13.1,0l33.6-62.9c1.3-2.4,3.8-3.9,6.5-3.9h68.5c5.7,0,9.3,6.2,6.4,11.1l-70,120.6
			c-1.3,2.3-1.3,5.2,0,7.5l75.5,129.3c2.9,4.9-0.7,11.2-6.4,11.2H179C176.3,280,173.8,278.5,172.5,276.1z"/>
	</g>
</g>
</svg>
