<?xml version="1.0" encoding="utf-8"?>
<!-- Generator: Adobe Illustrator 22.0.0, SVG Export Plug-In . SVG Version: 6.00 Build 0)  -->
<svg version="1.1" id="Camada_1" xmlns="http://www.w3.org/2000/svg" xmlns:xlink="http://www.w3.org/1999/xlink" x="0px" y="0px"
	 viewBox="0 0 95.4 94.5" style="enable-background:new 0 0 95.4 94.5;" xml:space="preserve">
<style type="text/css">
	.st0{clip-path:url(#SVGID_2_);fill:#559AFF;}
	.st1{clip-path:url(#SVGID_2_);}
	.st2{fill:#250302;}
	.st3{fill:#BC1746;}
	.st4{fill:#F1DCDF;}
	.st5{fill:#C07953;}
	.st6{fill:#6E3A26;}
	.st7{fill:#3F1906;}
	.st8{fill:#D88A68;}
	.st9{fill:#F4F4F4;}
	.st10{fill:#FCFCFC;}
	.st11{fill:#AD2727;}
	.st12{fill:#F27575;}
	.st13{fill:#703419;}
	.st14{fill:#EFBB45;}
	.st15{fill:#1B0100;}
	.st16{fill:#EAB99A;}
	.st17{opacity:0.75;fill:#BA7C5E;}
	.st18{fill:#C26B65;}
	.st19{clip-path:url(#SVGID_4_);}
	.st20{fill:#FFFEFD;}
	.st21{fill:#FFFFFF;}
	.st22{clip-path:url(#SVGID_6_);}
	.st23{fill:#4C8C3E;}
	.st24{fill:#C37B5B;}
	.st25{fill:#CA8966;}
	.st26{fill:#784532;}
	.st27{fill:#49230D;}
	.st28{fill:#592C16;}
	.st29{fill:#0C0908;}
	.st30{clip-path:url(#SVGID_8_);fill:#0C0C0C;}
	.st31{clip-path:url(#SVGID_8_);fill:#FFFFFF;}
	.st32{clip-path:url(#SVGID_8_);fill:#B73416;}
</style>
<g>
	<defs>
		<path id="SVGID_1_" d="M95,47.4c0,26-21.1,47.2-47.2,47.2S0.7,73.4,0.7,47.4S-23.9-14.4,47.9,0.2C118.4-5,95,21.3,95,47.4z"/>
	</defs>
	<clipPath id="SVGID_2_">
		<use xlink:href="#SVGID_1_"  style="overflow:visible;"/>
	</clipPath>
	<circle class="st0" cx="47.9" cy="47.4" r="47.2"/>
	<g class="st1">
		<path class="st2" d="M89.2,8.9c0,0,5.3,39.5,3.1,43.7c-7.9,0-10.4-0.9-10.4-0.9s0.4-43.4,1.8-45.6C87.1,8.3,89.2,8.9,89.2,8.9z"/>
		<path class="st3" d="M96.9,53L96.9,53c-1.4-1.4-2.9-2.4-4.4-3.1c-3.5-1.5-7.1-2.4-10.8-2.8l-2.3-0.3c0,0,0,0,0,0l-7.9-0.2
			c-1.8,0-3.6,0.3-5.3,1L64.9,48c-1.6,0.6-3.2,1.4-4.7,2.3L57.5,52c-2,1.2-3.8,3.3-5.2,6c-1.2,2.4-1.8,6.4-1.8,9.5
			c0,1.2,0.2,2.4,0.6,3.4c0.4,1.1,1,2,1.8,2.5v0c0.8,0.6,1.6,0.8,2.4,0.8h0.4c0.5,0,1.1-0.3,1.6-0.7c4,3.7,11.2,9.2,18.7,8.3
			c11.3-1.3,20.6-9.2,21.1-12.6c0.1-0.5,0-1.2-0.1-1.8c0.3-0.2,0.6-0.4,0.9-0.6c0.1-0.1,0.1-0.1,0.2-0.2c0.1-0.1,0.2-0.2,0.2-0.2
			c0.1-0.1,0.3-0.3,0.4-0.5c0,0,0,0,0.1-0.1c0,0,0,0,0,0c0.5-0.7,1-1.6,1.4-2.8C102.1,57.4,96.9,53,96.9,53z"/>
		<path class="st4" d="M83.5,47c-0.3-1.2-1.8-2-1.8-2L76,47.6c0-0.1-0.1-0.1-0.1-0.1c-0.1,0-0.1,0-0.1,0.1L70,45c0,0-1.5,0.9-1.8,2
			s0,2.1,0.3,2.4c0.2,0.3,1.9,2.2,7.3,2.2c0,0,0,0,0,0c0,0,0,0,0,0c0,0,0,0,0,0c5.4,0,7.1-2,7.3-2.2C83.4,49.2,83.7,48.2,83.5,47z"
			/>
		<path class="st5" d="M69,38.6c0,0,0.5,6.9,0.2,7.9c-0.3,1,2,3.7,7,3.6s6.4-2.2,6.3-3.5c-0.2-1.3-0.4-5.8-0.2-7.8
			C75.4,38.6,69,38.6,69,38.6z"/>
		<path class="st6" d="M69.2,39c0,0,2.1,6.2,6.5,6.2c5.3,0,6.9-6.4,6.9-6.4L69.2,39z"/>
		<path class="st2" d="M61.8,11.9c0,0-8.8,58.9-6.7,63.3c7.6,0,16.2,4.2,16.2,4.2S69.4,8.5,68.1,6.2C64.7,8.5,61.8,11.9,61.8,11.9z"
			/>
		<path class="st5" d="M87.6,23.6c-0.2-1-0.1-3-0.6-7.3c-0.3-2.6-2.1-6.1-3.3-7.5c-0.4-0.5-1.1-1-1.9-1.4c-1.3-0.6-3.8-0.8-5.2-0.9
			c-1.8-0.1-3.5,0.3-5.6,0.8l0,0c-0.8,0.2-2,0.4-2.6,1c-1.9,1.8-3.1,3.7-3.8,7.5c-0.7,4.3-0.7,6.3-0.9,7.3c-0.2,1,0.6,4.3,0.7,4.8
			c0,0.5,1,6.6,2,8.2s4.7,5.9,6.4,6.7c1.7,0.8,3.7,0.2,3.7,0.2s2.3,0,3.4-0.8s5.3-4.4,5.7-6c0.3-1.5,1.7-8.6,1.8-9.9
			C87.5,25.2,87.7,24.1,87.6,23.6z"/>
		<path class="st7" d="M73.3,27.6c-0.3,0.3-0.5,0.6-0.5,1c-0.1,0.4-0.1,0.8,0,1.2l0,0c0.1,0.2,0.4,0.4,0.6,0.5
			c0.1,0.1,0.2,0.1,0.3,0.2c0.1,0.1,0.2,0.2,0.2,0.3l0,0c-0.1-0.1-0.2-0.2-0.3-0.2l-0.4-0.2c-0.1-0.1-0.3-0.1-0.4-0.2
			c-0.1-0.1-0.3-0.2-0.4-0.3l0,0l0,0c0-0.2-0.1-0.4-0.1-0.6c0-0.2,0-0.4,0.1-0.6C72.7,28.2,72.9,27.8,73.3,27.6L73.3,27.6z"/>
		<path class="st7" d="M78.8,27.6c0.3,0.3,0.5,0.7,0.6,1c0.1,0.4,0.1,0.8,0,1.2l0,0l0,0c-0.2,0.2-0.4,0.4-0.7,0.5
			c-0.1,0.1-0.2,0.1-0.3,0.2c-0.1,0.1-0.2,0.2-0.2,0.3l0,0c0-0.2,0.1-0.3,0.2-0.4c0.1-0.1,0.2-0.2,0.3-0.3c0.1-0.1,0.2-0.2,0.3-0.3
			c0.1-0.1,0.2-0.2,0.2-0.2l0,0.1c0-0.4,0.1-0.7,0-1.1C79.1,28.3,79,28,78.8,27.6L78.8,27.6z"/>
		<path class="st7" d="M73.8,26.5c-0.2,0.4-0.3,0.8-0.4,1.2c-0.1,0.4-0.1,0.8-0.1,1.2l0,0c-0.1-0.2-0.2-0.4-0.2-0.6
			c0-0.2,0-0.4,0-0.7c0.1-0.2,0.1-0.4,0.2-0.6C73.5,26.8,73.6,26.6,73.8,26.5L73.8,26.5z"/>
		<path class="st7" d="M78,29.4c-0.6-0.2-1.4,0.9-1.8,1.3c-0.1,0-0.3,0.1-0.4,0.1c-0.1,0-0.3,0-0.4-0.1c-0.4-0.3-1.2-1.5-1.8-1.3
			c-0.6,0.2,1.5,1,1.6,1.2c0.1,0.2,0.1,0.2,0.2,0.2c0,0,0.1,0,0.2,0c0.1,0,0.1,0,0.2,0c0,0,0,0,0,0c0,0,0,0,0,0c0.1,0,0.1,0,0.2,0
			c0.1,0,0.2,0,0.2,0c0.1,0,0.1,0,0.2-0.2C76.5,30.4,78.6,29.5,78,29.4z"/>
		<path class="st8" d="M76.6,27.7c-0.5-0.3-1.1-0.3-1.6,0c-0.2,0.1-0.3,0.2-0.3,0.4c0,0.4,0.5,0.8,0.8,1c0.2,0.1,0.4,0.1,0.6,0
			c0.4-0.2,0.8-0.7,0.8-1C76.9,27.9,76.8,27.8,76.6,27.7z"/>
		<g>
			<path class="st2" d="M72.3,21.5c-0.4-0.3-0.8-0.6-1.3-0.9c-0.4-0.2-0.9-0.5-1.4-0.5c-0.5,0-1,0-1.5,0.2c-0.5,0.2-0.8,0.6-1.1,1
				l-0.1-0.1c0-0.6,0.3-1.3,0.9-1.7c0.3-0.2,0.6-0.3,0.9-0.4c0.3-0.1,0.5-0.1,0.9-0.1c0.9,0.1,1.4,0.4,1.8,0.8
				C71.9,20.4,72.2,20.9,72.3,21.5L72.3,21.5z"/>
		</g>
		<circle class="st2" cx="69.6" cy="21" r="1.1"/>
		<circle class="st2" cx="81.8" cy="21" r="1.1"/>
		<g>
			<path class="st2" d="M79.1,21.5c0.2-0.6,0.5-1.1,1-1.5c0.4-0.4,0.9-0.7,1.8-0.8c0.4,0,0.6,0,0.9,0.1c0.3,0.1,0.6,0.2,0.9,0.4
				c0.6,0.4,0.9,1,0.9,1.7l-0.1,0.1c-0.3-0.4-0.7-0.8-1.1-1c-0.5-0.2-1-0.2-1.5-0.2c-0.5,0-1,0.2-1.4,0.5
				C80,20.9,79.5,21.2,79.1,21.5L79.1,21.5z"/>
		</g>
		<path class="st2" d="M72.7,18.3c0,0-0.2-1.2-0.6-1.4c-0.4-0.1-3.4-1-5-0.6c-1.6,0.4-2.4,1.3-2.5,3.4c0.5-1,1-2.4,3.4-2.5
			c2,0,2.5,0.6,3.8,0.9c0.1,0,0-0.9,0-0.9c0.1,0,0.3,0.9,0.4,0.9C72.4,18.2,72.5,18.3,72.7,18.3z"/>
		<path class="st2" d="M78.8,18.5c0,0,0.2-1.2,0.6-1.4c0.4-0.1,3.4-1,5-0.6c1.6,0.4,2.4,1.3,2.5,3.4c-0.5-1-1-2.4-3.4-2.5
			c-1.7,0-2.5,0.5-3.5,0.9c-0.1,0,0-0.9-0.1-0.9c-0.1,0-0.2,1-0.4,1C79.3,18.4,79,18.5,78.8,18.5z"/>
		<path class="st7" d="M78.8,19.7c0,0-1.3,0.9-1,3C78.1,21.3,78,21.2,78.8,19.7z"/>
		<circle class="st9" cx="69.3" cy="20.9" r="0.3"/>
		<circle class="st9" cx="81.5" cy="20.9" r="0.3"/>
		<g>
			<polygon class="st10" points="71.7,34.2 71.7,34.6 73.3,36 75.2,36.3 77.7,36.3 78.9,35.5 79.6,34.6 79.5,34.1 78.8,34.1 
				77.6,33.6 76.7,33.4 75.5,33.6 74.5,33.5 73,34.1 			"/>
			<path class="st11" d="M79.6,34.5c-0.2,0.3-2.1,1.2-4,1.3c-1.9-0.1-3.7-1-4-1.3c-0.3-0.3-0.8,0-0.3,1.1c0.6,1,1.6,2.6,4.2,2.3
				c2.6,0.3,3.7-1.3,4.2-2.3C80.5,34.5,79.9,34.2,79.6,34.5z"/>
			<path class="st11" d="M76.7,33.1c-0.1,0-0.1,0-0.2,0c-0.5,0.2-0.5,0.2-0.7,0.3c-0.3-0.1-0.3-0.1-0.7-0.3c-0.1,0-0.1,0-0.2,0
				c-3,1.6-3.2,0.6-3.3,1.1c0.3,0.6,1.7,0.2,2.4-0.1c0.1,0,0.1,0,0.2,0c0.4,0.2,1.2,0.4,1.7,0.4c0,0,0,0,0.1,0c0,0,0,0,0.1,0
				c0.4-0.1,1.3-0.2,1.7-0.4c0.1,0,0.1,0,0.2,0c0.7,0.3,1.7,0.7,2.2,0.1C79.7,33.7,79.7,34.7,76.7,33.1z"/>
		</g>
		<path class="st12" d="M74.6,36.2c0,0-0.3,0.1-0.3,0.6c0,0.4,0.2,0.6,0.4,0.4c0.1-0.2,0.3,0.2,0.5,0.1c0.2,0,0.3-0.2,0.5-0.2
			s0.4,0.3,0.7,0.3s0.3-0.3,0.5-0.4c0.2,0,0.1,0.3,0.2,0.3s0.4-1-0.2-1.1c-0.6-0.1-0.8,0.1-1.1,0.1C75.5,36.2,74.8,36.1,74.6,36.2z"
			/>
		<g>
			<path class="st13" d="M76.3,32.6c-0.1,0.1-0.3,0.2-0.5,0.2c-0.2,0-0.4-0.2-0.3-0.4c0-0.2,0.1-0.3,0.1-0.5
				c0.1-0.2,0.1-0.3,0.3-0.4l0,0c-0.1,0.1-0.1,0.3-0.1,0.5c0,0.2,0,0.3-0.1,0.5l0,0.1c0,0,0,0,0,0c0,0,0-0.1,0-0.1l0,0
				c0,0,0.1,0,0.1,0.1C75.9,32.6,76.1,32.6,76.3,32.6L76.3,32.6z"/>
		</g>
		<path class="st2" d="M75.3,4.5c-13.4,0.5-12.2,11-12.2,11s0.2-0.4,0.6-0.9c-0.2,1.5-0.2,2.8,0.1,3.4c0.8-3.5,2-4.2,3-5.6
			c0.4-0.6,0.7-1.4,1-2.2c0.3-1.1,1-1.9,1.9-2.3c2.3-1,6.4-2,11.9-0.2c1,0.3,1.7,1.2,2.1,2.4c0.3,0.8,0.6,1.7,1,2.3
			c1,1.4,2.3,2.1,3,5.6c0.4-0.7,0.3-2.8-0.2-4.9c0.7,0.7,1,1,1,1S88.8,4,75.3,4.5z"/>
		<path class="st2" d="M61.8,11.3c0,0,1-10.3,13.2-10.3c3.3-1,6.7-0.4,8.6,1.5c1.6,0.6,5.3,3,5.6,6.5c0.3,3.5-5.8-0.6-5.8-0.6
			l-2.8-1.9l-4.4-0.7L69.7,7l-3.3,2.5L61.8,11.3z"/>
		<path class="st2" d="M76.2,0.8c0,0-15.1-2.8-15.1,16.1c3.8-5.1,7.7-9.8,9.2-10.3S76.2,0.8,76.2,0.8z"/>
		<path class="st2" d="M61.8,11.6c0,0-2.7,5.4-3.1,34.2C60.8,36.4,61.5,13.3,61.8,11.6z"/>
		<path class="st2" d="M66,3.9c0,0-4.8,0.9-6.4,21.1C66.6,7.2,66.6,5.9,66,3.9z"/>
		<path class="st2" d="M88.6,7.2c0,0,3,1.9,4,34.3C89.9,36.6,86.7,9.1,88.6,7.2z"/>
	</g>
	<g class="st1">
		<path class="st14" d="M43.1,59.9L42.8,59c-1.3-1.4-2.8-2.6-4.3-3.3c-3.5-1.6-7.1-2.8-10.8-3.5l-2.1,0.4c0,0-0.3-0.8-0.3-0.8
			l-7.9,0c-1.8-0.1-3.7,0.1-5.5,0.6l-1.3,0.4c-1.7,0.5-3.3,1.1-5,1.8l-2.9,1.4c-2.2,1-4.1,2.9-5.7,5.4c-1.4,2.2-2.3,6-2.5,8.9
			c-0.1,1.2,0,2.3,0.4,3.3c0.4,1.1,0.9,2,1.6,2.6l0,0c0.8,0.6,1.6,0.9,2.4,1l0.4,0c0.5,0,1.1-0.2,1.7-0.6c3.8,3.9,10.8,9.6,18.6,9.3
			c11.6-0.4,21.8-7.3,22.5-10.5c0.1-0.5,0.1-1.1,0.1-1.8c0.3-0.1,0.7-0.3,1-0.5c0.1-0.1,0.1-0.1,0.2-0.2c0.1-0.1,0.2-0.1,0.3-0.2
			c0.1-0.1,0.3-0.3,0.4-0.4c0,0,0,0,0.1-0.1c0,0,0,0,0,0c0.6-0.6,1.1-1.4,1.7-2.6C48.1,64.5,43.1,59.9,43.1,59.9z"/>
		<path class="st4" d="M28.5,52.2c-0.3-1.2-2-2.2-2-2.2l-6.4,2.8c0-0.1-0.1-0.1-0.2-0.1c-0.1,0-0.1,0-0.1,0.1L13.4,50
			c0,0-1.7,0.9-2,2.2c-0.3,1.2,0.1,2.3,0.3,2.6c0.3,0.3,2.1,2.4,8.2,2.4c0,0,0,0,0,0c0,0,0,0,0,0c0,0,0,0,0,0c6.1,0,8-2.1,8.2-2.4
			C28.5,54.5,28.8,53.4,28.5,52.2z"/>
		<g>
			<g>
				<path class="st15" d="M35.6,24.5c0,0,1.7,6.8,0.8,11.6c-0.1-5.9-1.3-10.9-2-12.3C35.7,24.9,35.6,24.5,35.6,24.5z"/>
				<path class="st15" d="M34.3,38.8c0,0,3.6-3.4,1.4-12.8c-1.7-0.3-1.6,0-1.6,0S37.4,32.4,34.3,38.8z"/>
				<path class="st15" d="M30.9,42c0,0,6-5,4.5-14.9c-2-8.4-5-8-5-8S34.6,35.9,30.9,42z"/>
			</g>
			<g>
				<path class="st15" d="M33.6,34.6c0,0,0,0.1,0.1,0.2c0.3,0.9,1.2,4.7-1.3,9.3c-2.9,5.2-7.1,4-7.1,4L30,35.9"/>
				<path class="st15" d="M29.2,45.6c0,0-0.1,2.7-1.1,3c1.7-0.7,2.6-2.6,2.4-3C30.2,45.2,29.2,45.6,29.2,45.6z"/>
			</g>
			<g>
				<path class="st15" d="M6.3,34.2c0,0,0,0.1-0.1,0.2c-0.2,0.9-1,4.7,1.1,9.2c2.5,5.2,6.1,4,6.1,4l-4-12.1"/>
				<path class="st15" d="M10.2,45.1c0,0,0.1,2.7,0.9,2.9c-1.4-0.7-2.3-2.5-2-2.9C9.2,44.7,10.2,45.1,10.2,45.1z"/>
			</g>
			<g>
				<path class="st16" d="M12.5,44.8c0,0,0.6,6.2,0.2,7.2c-0.4,0.9,2.2,3.4,7.8,3.2c5.6-0.2,7.1-2.1,7-3.3c-0.2-1.2-0.5-5.3-0.2-7.1
					C19.6,44.7,12.5,44.8,12.5,44.8z"/>
				<path class="st17" d="M10.9,42.2c0,0,2.8,8.5,8.9,8.5c7.2,0,8.9-8.8,8.9-8.8L10.9,42.2z"/>
				<path class="st16" d="M32.1,22.7C30.9,9.5,20.9,11.3,20.9,11.3c-0.2,0-0.7,0.1-0.9,0.2c-0.2,0-0.7-0.1-0.9-0.2
					c0,0-10-1.8-11.2,11.4C6.8,35.9,7.1,37.3,7.2,38.2c0.1,0.8,0.8,4.5,5.2,8c4.2,3.3,6.6,3.1,7.6,3.1c1,0,3.4,0.2,7.6-3.1
					c4.4-3.4,5-7.1,5.2-8C32.9,37.3,33.2,35.9,32.1,22.7z"/>
				<path class="st18" d="M17,33.4c0,0-0.6,1.1-0.2,1.6c0.4,0.5,1.8,1.3,3.2,1.2c1.3,0,3.2-0.5,3.2-1.2c0-0.7-0.6-1.7-0.6-1.7
					s0.2,1.3,0,1.5c-0.2,0.2-1.6,0.6-2.6,0.6c-1.1,0-2.9-0.2-3-0.9C16.9,33.8,17,33.4,17,33.4z"/>
				<path class="st18" d="M25,36.2c0.4,0.3,0.8,0.7,1.2,1.1c0.4,0.4,0.8,0.8,1.1,1.2c0.1,0.1,0.2,0.3,0.2,0.5c0,0.2,0,0.3,0,0.4
					c0,0.3-0.1,0.5-0.2,0.8c-0.2,0.5-0.3,1.1-0.8,1.5l0,0c0.3-0.4,0.5-1,0.6-1.5c0.1-0.3,0.1-0.5,0.2-0.8c0-0.3,0.1-0.6-0.1-0.8
					c-0.3-0.5-0.7-0.9-1-1.3C25.8,37,25.4,36.6,25,36.2L25,36.2z"/>
				<path class="st18" d="M14.5,36.3l-1.1,1.2c-0.3,0.4-0.7,0.8-1,1.3c-0.1,0.1-0.1,0.2-0.1,0.3l0,0.4c0,0.3,0.1,0.5,0.1,0.8
					c0.1,0.5,0.2,1.1,0.5,1.5l0,0c-0.3-0.4-0.5-1-0.6-1.5c-0.1-0.3-0.1-0.5-0.2-0.8c0-0.1,0-0.3,0-0.4c0-0.1,0.1-0.3,0.1-0.4
					c0.3-0.5,0.7-0.9,1.1-1.2C13.7,37,14.1,36.6,14.5,36.3L14.5,36.3z"/>
				<g>
					<defs>
						<path id="SVGID_3_" d="M17,27.7l-1.4-0.9l-1-0.1l-1.4,0.2L12.5,27l-0.7,0.3l0,0.4C11.8,27.7,14.2,29,17,27.7z"/>
					</defs>
					<clipPath id="SVGID_4_">
						<use xlink:href="#SVGID_3_"  style="overflow:visible;"/>
					</clipPath>
					<ellipse class="st19" cx="14.4" cy="27.5" rx="1.2" ry="1.2"/>
				</g>
				<path class="st15" d="M22.7,24.9c0,0,0.1-1,1.1-1.3c1-0.3,4.4-0.8,5-0.4c0.6,0.4,1.7,0.7,1.9,2.6c-0.4-0.7-0.6-1.6-1.6-1.7
					C28.4,24.1,23.8,25.1,22.7,24.9z"/>
				<path class="st15" d="M17.5,24.7c0,0-0.1-1-1.1-1.2c-1-0.2-4.4-0.6-5-0.2S9.7,24.1,9.5,26c0.3-0.7,0.6-1.6,1.5-1.8
					C11.7,24.2,16.4,25,17.5,24.7z"/>
				<path class="st20" d="M14.2,39.2c0,0,2.1-0.4,3-0.3c0.9,0.1,3.8,0.3,3.8,0.3l1.7-0.3l2.8,0.3l0,0.3l-2.1,2.3l-1.7,0.5l-2.1,0.2
					L16.9,42l-2-1.4C14.9,40.6,14.1,39.8,14.2,39.2z"/>
				<path class="st15" d="M17.2,27.9c0,0-1.4-2-5.3-0.3c-0.7,0.4-0.9,0-1.1-0.1c0.3,0.1,1.9-0.9,3.6-0.8S17.2,27.5,17.2,27.9z"/>
				<g>
					<path class="st18" d="M22.1,27.1c-0.3,0.5-0.3,1.1,0,1.6l0,0c-0.2-0.1-0.3-0.2-0.4-0.3c-0.1-0.1-0.1-0.3-0.1-0.5
						c0-0.2,0-0.3,0.1-0.5C21.8,27.2,21.9,27.1,22.1,27.1L22.1,27.1z"/>
				</g>
				<ellipse class="st21" cx="14.1" cy="27.3" rx="0.3" ry="0.3"/>
				<g>
					<defs>
						<path id="SVGID_5_" d="M23.2,27.6l1.4-0.9l1-0.1l1.4,0.2l0.7,0.2l0.7,0.3l0,0.4C28.4,27.6,26,28.9,23.2,27.6z"/>
					</defs>
					<clipPath id="SVGID_6_">
						<use xlink:href="#SVGID_5_"  style="overflow:visible;"/>
					</clipPath>
					<ellipse class="st22" cx="25.8" cy="27.4" rx="1.2" ry="1.2"/>
				</g>
				<path class="st15" d="M23.1,27.7c0,0,1.4-2,5.3-0.3c0.7,0.4,0.9,0,1.1-0.1c-0.3,0.1-1.9-0.9-3.6-0.8
					C24,26.5,23.2,27.3,23.1,27.7z"/>
				<ellipse class="st21" cx="25.5" cy="27.2" rx="0.3" ry="0.3"/>
				<path class="st11" d="M25.7,39c-1-0.1-2.3-0.6-3-0.6c-0.7,0-2.3,0.4-2.8,0.5c-0.5-0.1-2.1-0.5-2.8-0.5c-0.7,0-2,0.5-3,0.6
					c-0.5-0.1-0.5,0-0.5,0s1.4,3,2.9,4c1.4,0.9,2.6,0.9,3.4,0.8c0.8,0.1,2,0.1,3.4-0.8c1.5-1,2.9-4,2.9-4S26.2,39,25.7,39z M20,41.8
					L20,41.8c0,0-0.1,0-0.1,0c-0.1,0-0.1,0-0.1,0v0c-0.9,0-3.7-0.2-5.3-2.6c1.1,0.3,2.9,0.6,5.5,0.6c2.6,0,4.4-0.3,5.4-0.6
					C23.7,41.6,20.8,41.8,20,41.8z"/>
			</g>
			<path class="st15" d="M17.1,13.2c0,0-6.2,0.9-6.5,4.9c-0.3,4-1.2,9.8-3.7,9.5C4.4,27.4,5,25,5,25s2.7,1.5,1.7-2.5
				c-1.1-4.2,2.6-12.4,9.7-12C18.9,11.1,17.1,13.2,17.1,13.2z"/>
			<g>
				<path class="st15" d="M19,8.1c-1.3,0.2-2,2-1.9,3.5c0,0.6,0.5,1.1,0.8,1.8c0.9,2.3,10.4,3,12.5,8.8c0.5,1.4,4.8,2.5,6.4,4
					C35.5,12.8,31.5,8.6,25.4,8.2C22.4,7.8,20.2,8,19,8.1z"/>
				<path class="st15" d="M36,22.7c0,0,3.2,8.8,0,10c0.8-1.6,1.7-2.1-1-10C36,22.7,36,22.7,36,22.7z"/>
				<path class="st15" d="M34.8,24.6c0,0,1.6,4.2,0.3,5.5c0.7-0.7,1.7-0.2,1-5.3C35.5,24,34.8,24.6,34.8,24.6z"/>
				<path class="st15" d="M31.5,22.6c0,0,5.4,6.3,0.9,16.6c3-4.9,3.7-8.3,1.1-15.7C32.4,21.8,31.5,22.6,31.5,22.6z"/>
				<path class="st15" d="M29.7,20.1c0,0,2,5.3,1.5,8.7c1.2-2.2,1.3-6.1,0.9-7.1C31.7,20.6,29.7,20.1,29.7,20.1z"/>
				<path class="st15" d="M33.8,22.9c0,0,0.8,8.5-0.3,11c0-2.6-0.2-7-1.3-9.8C31.1,21.2,33.8,22.9,33.8,22.9z"/>
				<path class="st15" d="M31.5,22.1c0,0,1.3,5,1.1,6.6c0.9-2.1,1.1-5.2,0.7-6.6S31.5,22.1,31.5,22.1z"/>
				<path class="st15" d="M35.5,25.3c0,0-0.2,4.1-0.8,4.6c-1.3-5.3-1.8-6.3-0.9-6.7C34.6,22.8,35.5,25.3,35.5,25.3z"/>
				<path class="st15" d="M20.1,8.2c0,0-0.1-1,1.4-1.2c-0.4,0.5-0.9,0.9-0.6,1.7C21.2,9.3,20,9.4,20.1,8.2z"/>
				<path class="st15" d="M20.8,8.5c0,0,0.7-1.2,0.7-1.5c0.7-0.1,1.1,0.2,1.2,0.4c0,0.2-0.1,1.4-0.8,1.5c-0.6,0.1-1-0.2-1-0.2
					L20.8,8.5z"/>
				<path class="st15" d="M22.5,8.8c0,0,0.6-1.3,0-1.7c0.7,0.1,1.7,0,1.7,0.4c0,0.4-0.5,1.6-0.8,1.6S22.5,8.8,22.5,8.8z"/>
				<path class="st15" d="M23.8,9c0,0,0.7-1.2,0.5-1.4C25,7.8,25.6,8,25.6,8.3c0,0.3-1.1,1.4-1.3,1.3s-0.6-0.4-0.6-0.4L23.8,9z"/>
			</g>
			<g>
				<path class="st15" d="M0.8,22.4c0,0,1.7,0,3.2-2.4c0.6-1,1-2.2,1.2-3.3c1-5.7,8.9-10.6,12.9-8.4C7.9,16.2,5.1,26.2,0.8,22.4z"/>
				<path class="st15" d="M5.3,18.7c0,0-6.1,5.5-2.1,12c1.2-6.7,4.9-5.6,5.9-13C5,19,5,19,5,19"/>
				<path class="st15" d="M4.3,25.5c0,0-1.5,5.8-0.6,10c0-5,1-9.3,1.7-10.5C4.2,25.9,4.3,25.5,4.3,25.5z"/>
				<path class="st15" d="M5.7,37.9c0,0-3.5-2.9-1.5-11c1.6-0.3,1.5,0,1.5,0S2.7,32.3,5.7,37.9z"/>
				<path class="st15" d="M9,40.7c0,0-5.9-4.5-4.7-13C6.1,20.5,9.1,21,9.1,21S5.5,35.4,9,40.7z"/>
			</g>
			<path class="st15" d="M10.1,22.4c0,0-0.4-8.4,7.8-8.9c0.6-2.8-1.3-2.5-2.4-2.2c-1.1,0.3-6.7,6-6.4,8.2S10.1,22.4,10.1,22.4z"/>
			<path class="st15" d="M18.7,8.6c0,0-2.8-4.8-6.7,0.5c-0.7,0.8-0.8,0.4-0.8,0.4s3.6-6.5,8.2-1.3C19.1,11.3,18.7,8.6,18.7,8.6z"/>
			<path class="st15" d="M18.4,8.6c0,0-1.7-2.2-2.6-2.1c-0.9,0.1-0.5,0.1-0.5,0.1s1.1-0.2,3,2.1C18.5,8.6,18.4,8.6,18.4,8.6z"/>
			<path class="st15" d="M16.9,8.2c0,0-1.5-1.1-2.8-0.7s-2.2,1.2-3.1,2.3c1.4-0.5,1.3-0.8,1.3-0.8s1-1.2,2.3-1.3s1.9,0.7,1.9,0.7
				L16.9,8.2z"/>
			<path class="st15" d="M5.4,31.6c0,0-0.6,4.8,1.3,10.4C6.9,36.8,5.6,32.3,5.4,31.6z"/>
			<polygon class="st15" points="18,8.2 18.7,8.9 17.7,11.5 14,11.4 15.5,8.9 			"/>
		</g>
	</g>
	<g class="st1">
		<g>
			<path class="st23" d="M76.4,78.1L76.4,78.1c-1.8-1.1-3.7-1.9-5.7-2.4c-4.6-1.1-9.2-1.8-13.9-2.1l-3-0.2c0,0,0,0,0,0l-10.3-0.2
				c-2.3,0-4.6,0.3-6.9,0.8l-1.6,0.4c-2.1,0.5-4.1,1-6.1,1.7l-3.6,1.3c-2.6,0.9-4.9,2.5-6.7,4.6c-1.5,1.8-2.4,4.9-2.4,7.2
				c0,0.9,0.3,1.8,0.8,2.6c0.5,0.9,1.3,1.5,2.3,1.9v0c1,0.4,2.1,0.6,3.2,0.6h0.5c0.7,0,1.4-0.2,2-0.5c5.2,2.8,14.5,7,24.2,6.3
				c14.6-1,26.7-7,27.3-9.6c0.1-0.4,0-0.9-0.1-1.4c0.4-0.1,0.8-0.3,1.2-0.5c0.1,0,0.2-0.1,0.3-0.1c0.1-0.1,0.2-0.1,0.3-0.2
				c0.2-0.1,0.3-0.2,0.5-0.3c0,0,0,0,0.1,0c0,0,0,0,0,0c0.7-0.5,1.3-1.2,1.9-2.1C83,81.5,76.4,78.1,76.4,78.1z"/>
			<path class="st4" d="M58.7,72.8c-0.4-1.4-2.4-2.5-2.4-2.5l-7.9,3.2c0-0.1-0.1-0.1-0.2-0.1c-0.1,0-0.1,0-0.2,0.1l-7.8-3.2
				c0,0-2.1,1.1-2.4,2.5c-0.4,1.4,0.1,2.6,0.4,3s2.6,2.8,10.1,2.8c0,0,0,0,0,0c0,0,0,0,0,0c0,0,0,0,0,0c7.5,0,9.8-2.4,10.1-2.8
				S59,74.2,58.7,72.8z"/>
			<g>
				<path class="st24" d="M61.6,44.3c0,0,1.6-2.4,2.5-2.2s2.1,2,2.9,4.6c0.7,2.6-2.2,5.4-2.5,7.1S62.9,58,61.1,57"/>
				<path class="st24" d="M34.1,44.3c0,0-1.6-2.4-2.5-2.2s-2.1,2-2.9,4.6c-0.7,2.6,2.2,5.4,2.5,7.1c0.4,1.7,1.5,4.2,3.4,3.1"/>
				<path class="st25" d="M39.1,63.8c0,0,0.7,7.3,0.2,8.3s2.6,3.9,9.3,3.7c6.6-0.2,8.5-2.4,8.3-3.8c-0.2-1.4-0.6-6.1-0.2-8.2
					C47.5,63.7,39.1,63.8,39.1,63.8z"/>
				<path class="st26" d="M39.7,64.6c0,0,2.6,7,8,7c6.6,0,8-7.2,8-7.2L39.7,64.6z"/>
				<path class="st27" d="M34,53.3c0,0-0.2-0.6-0.9-0.5c-0.7,0.1-0.6,0.9-0.6,0.9s-2.9-4.8-2.6-6.3c0.3-1.5,0.7-3.5,1.7-3.7
					c0.9-0.2,1.3,1.3,1.7,1.6c0,0.4-1.1-1.6-1.5-1.4s-1.3,1.5-1.4,4c0.4,1.6,0.4,1.9,2,4.7c0.2-0.4,1.7-0.3,1.6,0.4
					C34,53.3,34,53.3,34,53.3z"/>
				<path class="st27" d="M30,48c0-0.4,0-0.8,0.2-1.2c0.1-0.2,0.2-0.4,0.5-0.6c0.3-0.2,0.6,0,0.7,0.1c0.2,0.1,0.4,0,0.5-0.1
					c0.1-0.1,0.2-0.3,0.2-0.5c0-0.4-0.2-0.8-0.4-1.1l0,0c0.3,0.3,0.5,0.7,0.5,1.1c0,0.2,0,0.5-0.2,0.6c-0.2,0.2-0.5,0.2-0.7,0.2
					c-0.3-0.1-0.4-0.1-0.5,0c-0.1,0.1-0.2,0.2-0.3,0.4C30.3,47.3,30.2,47.7,30,48L30,48z"/>
				<path class="st27" d="M31,50.4c0,0,1.4-0.5,1.4-1.4c0.2,0.7-0.6,1.9-1.1,2C31.1,50.6,31,50.4,31,50.4z"/>
				<path class="st27" d="M61.7,53.3c0,0,0.2-0.6,0.9-0.5c0.7,0.1,0.6,0.9,0.6,0.9s2.9-4.8,2.6-6.3s-0.7-3.5-1.7-3.7
					c-0.9-0.2-1.3,1.3-1.7,1.6c0,0.4,1.1-1.6,1.5-1.4s1.3,1.5,1.4,4c-0.4,1.6-0.4,1.9-2,4.7c-0.2-0.4-1.7-0.3-1.6,0.4
					C61.7,53.3,61.7,53.3,61.7,53.3z"/>
				<path class="st27" d="M65.4,48.1c-0.1-0.4-0.2-0.8-0.4-1.2c-0.1-0.2-0.2-0.3-0.3-0.4c-0.1-0.1-0.2,0-0.4,0.1
					c-0.2,0.1-0.5,0.1-0.7-0.1c-0.2-0.2-0.2-0.5-0.2-0.7c0-0.5,0.2-0.9,0.5-1.3l0,0c-0.2,0.4-0.3,0.8-0.3,1.2c0,0.2,0.1,0.4,0.2,0.5
					c0.1,0.1,0.3,0.1,0.4,0c0.1-0.1,0.4-0.3,0.7-0.2c0.2,0.1,0.4,0.4,0.4,0.6C65.4,47.1,65.5,47.6,65.4,48.1L65.4,48.1z"/>
				<path class="st25" d="M62,43.7l0-2.5l-1.5-7.3l-1-2.6l-2.3-2.6l-5.1-1.3l-0.1,1l-4.1,1l-4.1-1l-0.1-1l-5.1,1.3l-2.3,2.6l-1,2.6
					L33.7,41l0,2.8c0,0-1,5.5-0.5,9.4c0.5,3.8,1.8,8.4,2.3,9c0.5,0.6,6.3,5.1,8.4,6.1c1.2,0.6,2.7,0.7,4,0.7c1.2,0,2.7-0.1,4-0.7
					c2.1-1,7.8-5.5,8.4-6.1c0.5-0.6,1.9-5.2,2.3-9C63,49.3,62,43.7,62,43.7z"/>
				<path class="st27" d="M45.1,49.1c0,0-0.5,1-0.2,1.5c0.3,0.5,1.8,1.2,3,1.1c1.3,0,3.1-0.5,3.1-1.1c0-0.7-0.6-1.6-0.6-1.6
					s0.2,1.2,0,1.4c-0.2,0.2-1.5,0.6-2.5,0.6c-1,0-2.8-0.2-2.9-0.9S45.1,49.1,45.1,49.1z"/>
				<path class="st27" d="M49.4,44.8c0,0-0.8-1.4-0.5-2.5c0.3-1.1,0.8-2.1,0.8-2.1s-0.6,2.1-0.4,2.8c0.1,0.6,0.6,2,0.4,2.4
					C49.6,45.1,49.4,44.8,49.4,44.8z"/>
				<path class="st27" d="M47,61.8c0,0,1.3,0.4,2.2,0.3c0.9-0.1,1.9-1,1.9-1s-0.2,1-1.7,1.3C47.9,62.8,47.4,61.9,47,61.8z"/>
			</g>
			<path class="st28" d="M64.7,50.4c0,0-1.4-0.5-1.4-1.4c-0.2,0.7,0.6,1.9,1.1,2C64.6,50.6,64.7,50.4,64.7,50.4z"/>
			<path class="st29" d="M58.3,28.2c-2.6-2.6-7.6-3-9.9-3.1c0,0,0,0,0,0c-0.1,0-0.3,0-0.6,0c-0.2,0-0.4,0-0.6,0c0,0,0,0,0,0
				c-2.3,0.1-7.3,0.6-9.9,3.1c-3.2,3.2-3.8,10.3-3.6,15.6c0-1.6,0.3-3.7,2.2-4.6c0-7.5,1.4-7.4,1.4-7.4c0.8-0.5,7.8-1,10.4-1
				c0.8,0,9.8,0.5,10.6,1c0,0,1.4-0.1,1.4,7.4c2,0.9,2.3,3,2.2,4.6C62.3,38.5,61.5,31.3,58.3,28.2z"/>
			<path class="st29" d="M37.7,41c0,0-0.3-1.5,0.3-1.9s3.6-1.5,7.1-1.3c0.3,1,0.2,1.8,0.2,2c0,0,0,0.1-0.1,0.1
				C44.4,39.8,39.9,39.5,37.7,41z"/>
			<path class="st29" d="M58.2,41c0,0,0.3-1.5-0.3-1.9s-3.6-1.5-7-1.3c-0.3,1-0.2,1.8-0.2,2c0,0,0,0.1,0.1,0.1
				C51.5,39.8,56,39.5,58.2,41z"/>
			<path class="st29" d="M55.8,43.4c0,0.6-0.5,1.1-1.2,1.1c-0.6,0-1.2-0.5-1.2-1.1s0-1.2,1.2-1.1C56.1,42.4,55.8,42.8,55.8,43.4z"/>
			<path class="st29" d="M40.5,43.4c0,0.6,0.5,1.1,1.2,1.1c0.6,0,1.2-0.5,1.2-1.1s0-1.2-1.2-1.1C40.2,42.4,40.5,42.8,40.5,43.4z"/>
			<path class="st29" d="M57.2,43.7c0,0-0.4-1.4-2-1.5c-1.6-0.2-2.7,0.1-2.7,0.1s-0.5,0.5-0.4,0.9c1-0.4,1.4-0.4,2.7-0.4
				C56.2,42.7,56.5,43.1,57.2,43.7z"/>
			<path class="st29" d="M39.1,43.7c0,0,0.4-1.4,2-1.5c1.6-0.2,2.7,0.1,2.7,0.1s0.5,0.5,0.4,0.9c-1-0.4-1.4-0.4-2.7-0.4
				C40.2,42.7,39.9,43.1,39.1,43.7z"/>
			<g>
				<defs>
					<path id="SVGID_7_" d="M42.6,53.6c1.7-0.3,6.5-1,10.6-0.2c0.2,0,0.4,0.3,0.4,0.5c-0.3,2.7-0.7,4.3-1.4,4.9
						c-0.6,0.7-2.3,1.7-3.4,1.9c-1.1,0.1-4.7-1.3-5.2-1.8c-0.4-0.5-1.3-2.1-1.5-4.6C42,54,42.2,53.7,42.6,53.6z"/>
				</defs>
				<clipPath id="SVGID_8_">
					<use xlink:href="#SVGID_7_"  style="overflow:visible;"/>
				</clipPath>
				<rect x="40.3" y="54.6" class="st30" width="15.3" height="4.3"/>
				<path class="st31" d="M41.2,55.5c0,0,9.3,0.5,13.4-0.4c0.4-2.4-1.2-2.7-1.2-2.7h-8.3l-3.5,0.8L41.2,55.5z"/>
				<path class="st32" d="M42.3,57.7c0,0,3.8-1.8,6.1,0.7c-0.6-0.9-1-1.1-1-1.1s2.8-1.2,6.2,0.8c-0.5,2.6-2.5,3.1-2.5,3.1l-1.8,0.7
					L46,61.7l-3.4-2.2L42.3,57.7z"/>
			</g>
			<circle class="st21" cx="41.5" cy="43.4" r="0.3"/>
		</g>
		<circle class="st21" cx="54.5" cy="43.4" r="0.3"/>
	</g>
</g>
</svg>
