<?xml version="1.0" encoding="utf-8"?>
<!-- Generator: Adobe Illustrator 22.0.0, SVG Export Plug-In . SVG Version: 6.00 Build 0)  -->
<svg version="1.1" id="Camada_1" xmlns="http://www.w3.org/2000/svg" xmlns:xlink="http://www.w3.org/1999/xlink" x="0px" y="0px"
	 viewBox="0 0 250 250" style="enable-background:new 0 0 250 250;" xml:space="preserve">
<style type="text/css">
	.st0{fill:#F1D14E;}
	.st1{fill:#C12930;}
</style>
<g>
	<path class="st0" d="M8.3,167.4c-3.9-9.8-6.1-20.1-7.1-30.5c-1.4-15-0.2-29.8,3.8-44.3c0.9-3.4,2.2-6.7,3.3-10
		c1.2-0.9,2.6-0.6,4-0.6c29,0,58,0,87,0c46.1,0,92.2,0,138.3,0c1.4,0,2.9-0.3,4.2,0.6c3.9,9.8,6.1,20.1,7.1,30.5
		c1.4,15,0.2,29.8-3.8,44.3c-0.9,3.4-2.2,6.7-3.3,10c-1.2,0.9-2.6,0.6-4,0.6c-29,0-58,0-87,0c-46.1,0-92.2,0-138.3,0
		C11.1,168.1,9.6,168.4,8.3,167.4z"/>
	<path class="st1" d="M8.5,81.7c8-21.7,21.2-39.6,39.2-54C62.3,16.1,78.7,8.1,96.9,4c28.8-6.5,56.7-3.6,83.1,9.6
		c29.3,14.6,49.8,37.4,61.5,68.1c-0.9,0.6-1.9,0.4-2.8,0.4c-75.8,0-151.5,0-227.3,0C10.4,82.1,9.4,82.3,8.5,81.7z"/>
	<path class="st1" d="M241.5,168.3c-8,21.7-21.2,39.6-39.2,54c-14.5,11.7-30.9,19.6-49.1,23.7c-28.8,6.5-56.7,3.6-83.1-9.6
		C40.8,221.8,20.2,199,8.5,168.3c0.9-0.6,1.9-0.4,2.8-0.4c75.8,0,151.5,0,227.3,0C239.6,167.9,240.6,167.7,241.5,168.3z"/>
</g>
</svg>
