<?xml version="1.0" encoding="utf-8"?>
<!-- Generator: Adobe Illustrator 22.0.0, SVG Export Plug-In . SVG Version: 6.00 Build 0)  -->
<svg version="1.1" id="Camada_1" xmlns="http://www.w3.org/2000/svg" xmlns:xlink="http://www.w3.org/1999/xlink" x="0px" y="0px"
	 viewBox="0 0 76.5 88.9" style="enable-background:new 0 0 76.5 88.9;" xml:space="preserve">
<style type="text/css">
	.st0{fill:#C14DD7;}
	.st1{fill:#AF47C4;}
	.st2{fill:#E8E8E8;}
	.st3{fill:#9600AF;}
	.st4{fill:#EAC113;}
	.st5{fill:#CF4E75;}
	.st6{fill:#EFCE43;}
	.st7{fill:#A63C5C;}
	.st8{fill:#353535;}
	.st9{fill:#FFFFFF;}
</style>
<g>
	<path class="st0" d="M70.1,19.6H47.5v52.7c0.4,0,0.8,0.1,1.1,0.3l24,15c1.3,0.8,3.2,0,3.2-1.5V24.7C75.8,21.9,73.3,19.6,70.1,19.6z
		"/>
</g>
<g>
	<path class="st1" d="M25.8,19.6H48v52.7c-0.4,0-0.8,0.1-1.1,0.3l-23.6,15c-1.3,0.8-3.1,0-3.1-1.5V24.7
		C20.2,21.9,22.7,19.6,25.8,19.6z"/>
</g>
<path class="st2" d="M62.9,66.5h-62V8.7c0-4.2,3.4-7.6,7.6-7.6h46.8c4.2,0,7.6,3.4,7.6,7.6V66.5z"/>
<rect x="0.9" y="55.5" class="st3" width="62" height="13.8"/>
<path class="st4" d="M52.7,15.5l2.7,1.4c0.5,0.2,1-0.2,0.9-0.7l-0.5-3c0-0.2,0-0.4,0.2-0.6l2.2-2.1c0.4-0.4,0.2-1-0.4-1.1l-3-0.4
	c-0.2,0-0.4-0.2-0.5-0.3L52.9,6c-0.2-0.5-0.9-0.5-1.1,0l-1.3,2.7C50.4,8.9,50.2,9,50,9.1l-3,0.4c-0.5,0.1-0.7,0.7-0.4,1.1l2.2,2.1
	c0.1,0.1,0.2,0.4,0.2,0.6l-0.5,3c-0.1,0.5,0.5,0.9,0.9,0.7l2.7-1.4C52.3,15.4,52.5,15.4,52.7,15.5z"/>
<g>
	<path class="st5" d="M39.3,36.5c0,5-4.4,7.4-9.9,7.4s-9.9-2.4-9.9-7.4s4.4-9.1,9.9-9.1S39.3,31.4,39.3,36.5z"/>
	<path class="st5" d="M44,26.7c0,3-2.3,5.4-5.2,5.4s-5.2-2.4-5.2-5.4s1.3-5.3,4.2-5.3S44,23.6,44,26.7z"/>
	<path class="st6" d="M42.9,26.7c0,0,1.1,1.8,3.5,1.8c-1,2.2-3.2,2.5-5.2,1.7C41.2,27.3,42.9,26.7,42.9,26.7z"/>
	<path class="st7" d="M17.7,29.3c0,0,2.1,3.1,4,1.1c2.6-2.7,7-4.9,11.2-2.7s5.3,7.6,2.9,10.1C33.4,40.2,14.7,42.1,17.7,29.3z"/>
	<path class="st5" d="M28.8,40.7c0,0,0.1,5-2.8,6.4c2.2,0,1.9,0,1.9,0s2.3-3.3,2.3-6.4C28.8,40.7,28.8,40.7,28.8,40.7z"/>
	<path class="st5" d="M30.9,40.7c0,0,0.1,5-2.8,6.4c2.2,0,1.9,0,1.9,0s2.3-3.3,2.3-6.4C30.9,40.7,30.9,40.7,30.9,40.7z"/>
	<rect x="23.9" y="47.1" class="st5" width="11" height="0.8"/>
	<path class="st5" d="M30.6,46.2c0,0-0.5,0.9,0.7,0.9c1.1,0.4-0.1,0.8-0.1,0.8l-2.1-0.4L30.6,46.2z"/>
	
		<ellipse transform="matrix(0.9955 -9.479865e-02 9.479865e-02 0.9955 -2.2904 3.9852)" class="st8" cx="40.8" cy="26.1" rx="0.6" ry="0.8"/>
	
		<ellipse transform="matrix(0.9955 -9.479865e-02 9.479865e-02 0.9955 -2.2423 4.2014)" class="st8" cx="43.1" cy="25.7" rx="0.4" ry="0.7"/>
</g>
<g>
	<path class="st9" d="M18.8,63.3v2.3h-1.3v-6.4h2.2c0.6,0,1.1,0.2,1.5,0.6c0.4,0.4,0.6,0.9,0.6,1.5s-0.2,1.1-0.6,1.5
		s-0.9,0.5-1.5,0.5C19.7,63.3,18.8,63.3,18.8,63.3z M18.8,62.2h0.9c0.2,0,0.4-0.1,0.6-0.2s0.2-0.4,0.2-0.7s-0.1-0.6-0.2-0.8
		s-0.3-0.3-0.6-0.3h-0.9V62.2z"/>
	<path class="st9" d="M24.9,64.3h-1.8l-0.3,1.3h-1.4l2-6.4h1.2l2,6.4h-1.4L24.9,64.3z M24.3,57.4h1.4l-1.2,1.4h-1L24.3,57.4z
		 M23.4,63.2h1.2L24,60.9L23.4,63.2z"/>
	<path class="st9" d="M29.3,59.2h1.3v4.4c0,0.6-0.2,1.1-0.5,1.5s-0.8,0.6-1.3,0.6c-0.6,0-1-0.2-1.4-0.5c-0.3-0.3-0.5-0.8-0.5-1.5
		h1.3c0,0.6,0.2,0.9,0.6,0.9s0.6-0.3,0.6-1v-4.4H29.3z"/>
	<path class="st9" d="M34.6,64.3h-1.8l-0.3,1.3h-1.4l2-6.4h1.2l2,6.4h-1.4L34.6,64.3z M33.1,63.2h1.2l-0.6-2.3L33.1,63.2z"/>
	<path class="st9" d="M38.9,63.2h-0.6v2.3H37v-6.4h2c0.6,0,1.1,0.2,1.5,0.5S41,60.4,41,61c0,0.8-0.3,1.4-0.9,1.8l1.1,2.6v0.1h-1.4
		L38.9,63.2z M38.2,62.1H39c0.3,0,0.5-0.1,0.6-0.3s0.2-0.4,0.2-0.7c0-0.6-0.3-1-0.8-1h-0.8V62.1z"/>
	<path class="st9" d="M46.4,62.9c0,0.9-0.2,1.5-0.6,2c-0.4,0.5-1,0.7-1.7,0.7s-1.3-0.2-1.7-0.7s-0.6-1.1-0.6-2v-1.1
		c0-0.9,0.2-1.6,0.6-2.1c0.4-0.5,1-0.7,1.7-0.7s1.3,0.2,1.7,0.7s0.6,1.2,0.6,2V62.9z M45.1,61.9c0-0.6-0.1-1-0.2-1.3
		s-0.4-0.4-0.8-0.4c-0.3,0-0.6,0.1-0.8,0.4c-0.2,0.3-0.2,0.7-0.3,1.2v1.1c0,0.6,0.1,1,0.3,1.2c0.2,0.3,0.4,0.4,0.8,0.4
		c0.3,0,0.6-0.1,0.8-0.4c0.2-0.3,0.2-0.7,0.3-1.2L45.1,61.9L45.1,61.9z"/>
</g>
</svg>
