<?xml version="1.0" encoding="utf-8"?>
<!-- Generator: Adobe Illustrator 22.0.0, SVG Export Plug-In . SVG Version: 6.00 Build 0)  -->
<svg version="1.1" id="Camada_1" xmlns="http://www.w3.org/2000/svg" xmlns:xlink="http://www.w3.org/1999/xlink" x="0px" y="0px"
	 viewBox="0 0 95.5 84" style="enable-background:new 0 0 95.5 84;" xml:space="preserve">
<style type="text/css">
	.st0{fill:#0A1219;}
	.st1{fill:#8F242D;}
	.st2{fill:#AF3B4E;}
	.st3{fill:#D4CF65;}
	.st4{fill:#A12F42;}
	.st5{fill:none;stroke:#8F242D;stroke-miterlimit:10;}
	.st6{fill:#A6190A;}
	.st7{fill:#FFFFFF;}
	.st8{fill:#07A14C;}
	.st9{fill:#595959;}
	.st10{fill:#15B74E;}
	.st11{fill:#F1DCDF;}
	.st12{fill:#DA9A7E;}
	.st13{fill:#BA7C5E;}
	.st14{fill:#72352D;}
	.st15{fill:#3C1716;}
	.st16{fill:#592C16;}
</style>
<g>
	<g>
		<g>
			<path class="st0" d="M79.5,67.7H15.7c-4.1,0-7.5-3.4-7.5-7.5v-36c0-4.1,3.4-7.5,7.5-7.5h63.7c4.1,0,7.5,3.4,7.5,7.5v36
				C87,64.4,83.6,67.7,79.5,67.7z"/>
			<path d="M78.6,69.4h-62c-5.5,0-10-4.5-10-10V25.1c0-5.5,4.5-10,10-10h62c5.5,0,10,4.5,10,10v34.3C88.6,64.9,84.1,69.4,78.6,69.4z
				 M16.6,18.4c-3.7,0-6.7,3-6.7,6.7v34.3c0,3.7,3,6.7,6.7,6.7h62c3.7,0,6.7-3,6.7-6.7V25.1c0-3.7-3-6.7-6.7-6.7
				C78.6,18.4,16.6,18.4,16.6,18.4z"/>
		</g>
		<g>
			<g>
				<circle class="st1" cx="79.3" cy="27" r="0.6"/>
			</g>
		</g>
		<g>
			<g>
				<circle class="st1" cx="82.5" cy="27" r="0.6"/>
			</g>
		</g>
		<g>
			<g>
				<circle class="st1" cx="79.3" cy="30.1" r="0.6"/>
			</g>
		</g>
		<g>
			<g>
				<circle class="st1" cx="82.5" cy="30.1" r="0.6"/>
			</g>
		</g>
		<g>
			<g>
				<circle class="st1" cx="19.2" cy="20.9" r="0.6"/>
			</g>
		</g>
		<g>
			<g>
				<circle class="st1" cx="22.3" cy="20.9" r="0.6"/>
			</g>
		</g>
		<g>
			<g>
				<circle class="st1" cx="25.5" cy="20.9" r="0.6"/>
			</g>
		</g>
		<g>
			<g>
				<circle class="st1" cx="74.9" cy="46.6" r="0.6"/>
			</g>
		</g>
		<g>
			<g>
				<circle class="st1" cx="78" cy="46.6" r="0.6"/>
			</g>
		</g>
		<g>
			<g>
				<circle class="st1" cx="74.9" cy="49.8" r="0.6"/>
			</g>
		</g>
		<g>
			<g>
				<circle class="st1" cx="78" cy="49.8" r="0.6"/>
			</g>
		</g>
		<g>
			<g>
				<circle class="st1" cx="31.3" cy="50.8" r="0.6"/>
			</g>
		</g>
		<g>
			<g>
				<circle class="st1" cx="67.8" cy="55.7" r="0.6"/>
			</g>
		</g>
		<g>
			<g>
				<circle class="st1" cx="64.7" cy="58.8" r="0.6"/>
			</g>
		</g>
		<g>
			<g>
				<circle class="st1" cx="67.8" cy="58.8" r="0.6"/>
			</g>
		</g>
		<g>
			<g>
				<circle class="st1" cx="64.7" cy="61.9" r="0.6"/>
			</g>
		</g>
		<g>
			<g>
				<circle class="st1" cx="67.8" cy="61.9" r="0.6"/>
			</g>
		</g>
		<g>
			<g>
				<circle class="st1" cx="41.7" cy="54" r="0.6"/>
			</g>
		</g>
		<g>
			<g>
				<circle class="st1" cx="44.9" cy="54" r="0.6"/>
			</g>
		</g>
		<g>
			<g>
				<circle class="st1" cx="48" cy="54" r="0.6"/>
			</g>
		</g>
		<g>
			<g>
				<circle class="st1" cx="41.7" cy="57.1" r="0.6"/>
			</g>
		</g>
		<g>
			<g>
				<circle class="st1" cx="44.9" cy="57.1" r="0.6"/>
			</g>
		</g>
		<g>
			<g>
				<circle class="st1" cx="48" cy="57.1" r="0.6"/>
			</g>
		</g>
		<g>
			<g>
				<circle class="st1" cx="41.7" cy="60.3" r="0.6"/>
			</g>
		</g>
		<g>
			<g>
				<circle class="st1" cx="44.9" cy="60.3" r="0.6"/>
			</g>
		</g>
		<g>
			<g>
				<circle class="st1" cx="48" cy="60.3" r="0.6"/>
			</g>
		</g>
		<g>
			<g>
				<circle class="st1" cx="41.7" cy="63.4" r="0.6"/>
			</g>
		</g>
		<g>
			<g>
				<circle class="st1" cx="44.9" cy="63.4" r="0.6"/>
			</g>
		</g>
		<g>
			<g>
				<circle class="st1" cx="48" cy="63.4" r="0.6"/>
			</g>
		</g>
		<g>
			<g>
				<path class="st2" d="M0.5,65.2l10.2-5.7l-0.1,11.7L0.5,65.2z M8.8,62.8l-4.5,2.5L8.8,68V62.8z"/>
			</g>
		</g>
		<g>
			<path class="st1" d="M67.4,46l-14.2-7.5l7.5-14.2l14.2,7.5L67.4,46z M56.2,37.6L66.5,43l5.4-10.2l-10.2-5.4L56.2,37.6z"/>
		</g>
		<g>
			<rect x="24.1" y="33.1" transform="matrix(0.3401 -0.9404 0.9404 0.3401 -16.2078 50.1312)" class="st3" width="7" height="7"/>
			<path class="st4" d="M30.3,42.5l-8.6-3.1l3.1-8.6l8.6,3.1L30.3,42.5z M24.5,38.1l4.4,1.6l1.6-4.4l-4.4-1.6L24.5,38.1z"/>
		</g>
		<g>
			<path class="st1" d="M24.8,45.8l-8.6-3.1l3.1-8.6l8.6,3.1L24.8,45.8z M19,41.4l4.4,1.6l1.6-4.4L20.6,37L19,41.4z"/>
		</g>
		<g>
			<path class="st2" d="M81.9,22.4c-3.6,0-6.5-2.9-6.5-6.5s2.9-6.5,6.5-6.5s6.5,2.9,6.5,6.5S85.4,22.4,81.9,22.4z M81.9,11.3
				c-2.5,0-4.5,2-4.5,4.5s2,4.5,4.5,4.5s4.5-2,4.5-4.5S84.4,11.3,81.9,11.3z"/>
		</g>
		<circle class="st5" cx="23.1" cy="54.8" r="2.7"/>
	</g>
	<g>
		<path class="st6" d="M78.9,64.6L78.9,64.6c-1.8-1.2-3.8-2.1-5.9-2.6c-4.7-1.2-9.5-2-14.4-2.4l-3.1-0.2l0,0L45,59.1
			c-2.4,0-4.8,0.3-7.1,0.9l-1.6,0.4c-2.1,0.5-4.2,1.2-6.3,2l-3.7,1.4c-2.7,1-5.1,2.8-6.9,5.1c-1.6,2-2.5,5.4-2.5,8.1
			c0,1,0.3,2,0.8,2.9c0.6,1,1.4,1.7,2.4,2.2l0,0c1,0.5,2.1,0.7,3.3,0.7h0.5c1.8,0,3.6-0.6,5.1-1.7c0.5-0.4,1.1-0.8,1.7-1.1
			c2.3-1.4,5.4-1.3,7.7,0l0,0c0.1,0.1,0.3,0.2,0.4,0.3c1.3,1.1,10.7,7.5,18.7-0.3c0.5-0.4,0.9-0.9,1.3-1.4l0.9-1.1
			c0.1-0.2,0.3-0.3,0.4-0.5c2.2-2.3,5.5-2.8,8.4-1.6l2.4,1c0.2,0.1,0.5,0.2,0.7,0.3l0,0c0,0,4.9,2,8.8-0.1c0.1-0.1,0.2-0.1,0.3-0.2
			c0.1-0.1,0.2-0.1,0.3-0.2c0.2-0.1,0.3-0.2,0.5-0.4c0,0,0,0,0.1-0.1l0,0c0.7-0.6,1.3-1.4,1.9-2.4C85.8,68.4,78.9,64.6,78.9,64.6z"
			/>
	</g>
	<g>
		<circle class="st7" cx="87.4" cy="54.2" r="6.5"/>
		<path class="st2" d="M87.4,61.7c-1.7,0-3.3-0.6-4.7-1.6c-1.6-1.3-2.5-3-2.8-5c-0.2-2,0.4-3.9,1.6-5.5s3-2.5,5-2.8
			c2-0.2,3.9,0.4,5.5,1.6c1.6,1.3,2.5,3,2.8,5l0,0c0.4,4.1-2.5,7.8-6.6,8.3C88,61.7,87.7,61.7,87.4,61.7z M87.4,48.7
			c-0.2,0-0.4,0-0.6,0c-1.5,0.2-2.8,0.9-3.7,2c-0.9,1.1-1.3,2.6-1.2,4s0.9,2.8,2,3.7s2.6,1.3,4,1.2c3-0.3,5.2-3,4.9-6.1
			c-0.2-1.5-0.9-2.8-2-3.7C89.9,49.1,88.7,48.7,87.4,48.7z"/>
	</g>
	<g>
		<g>
			<path class="st2" d="M83.9,53.8c0-0.2,0.1-0.2,0.3-0.2c0.3,0,0.5-0.1,0.8-0.1h0.1c0.5-0.4,1-0.7,1.5-1.1c0.1,0,0.1-0.1,0.2-0.1
				s0.2,0.1,0.2,0.2c0,0,0,0,0,0.1c0.1,1.1,0.2,2.2,0.4,3.4v0.1c0,0.2-0.2,0.2-0.3,0.2c-0.2-0.1-0.4-0.2-0.6-0.3
				c-0.4-0.2-0.8-0.3-1.1-0.5h-0.1c-0.3,0-0.5,0.1-0.8,0.1c-0.2,0-0.3,0-0.3-0.2C84,54.8,83.9,54.3,83.9,53.8z"/>
		</g>
		<g>
			<path class="st2" d="M90.9,53.8c0.1,0.7,0,1.4-0.3,2.1c-0.1,0.1-0.1,0.2-0.2,0.4c-0.1,0.1-0.2,0.1-0.3,0.1
				c-0.1,0-0.2-0.1-0.2-0.2c0-0.1,0-0.1,0-0.2c0.1-0.2,0.2-0.5,0.3-0.7c0.1-0.3,0.2-0.7,0.2-1c0-0.5-0.1-1-0.3-1.4
				c-0.1-0.3-0.3-0.6-0.6-0.9l-0.1-0.1c-0.1-0.1-0.1-0.2,0-0.3s0.2-0.1,0.3,0l0.1,0.1c0.4,0.5,0.7,1,0.8,1.6
				C90.8,53.4,90.9,53.6,90.9,53.8z"/>
		</g>
		<g>
			<path class="st2" d="M89.7,53.9c0.1,0.6-0.1,1.2-0.4,1.7c-0.1,0.1-0.2,0.2-0.3,0.1c-0.1-0.1-0.2-0.2-0.1-0.3
				c0.1-0.3,0.3-0.5,0.3-0.8c0.1-0.5,0-1-0.3-1.4c-0.1-0.1-0.2-0.3-0.3-0.4c-0.1-0.1-0.1-0.3,0.1-0.4c0.1,0,0.2,0,0.3,0.1
				C89.4,52.9,89.6,53.4,89.7,53.9C89.6,53.8,89.7,53.9,89.7,53.9z"/>
		</g>
		<g>
			<path class="st2" d="M88.4,54c0,0.4,0,0.7-0.2,0.9C88.1,55,88.1,55,87.9,55c-0.1,0-0.2-0.1-0.2-0.2c0-0.1,0-0.1,0-0.2
				c0.1-0.2,0.1-0.4,0.1-0.6c0-0.2-0.1-0.4-0.2-0.5l-0.1-0.1c-0.1-0.1-0.1-0.2,0-0.3s0.2-0.1,0.3,0c0.2,0.2,0.3,0.4,0.4,0.6
				C88.4,53.9,88.4,54,88.4,54z"/>
		</g>
	</g>
</g>
<g>
	<g>
		<path class="st0" d="M84.7,78.9H13.6c-1.7,0-3.1-1.4-3.1-3.1v-1c0-1.7,1.4-3.1,3.1-3.1h71.1c1.7,0,3.1,1.4,3.1,3.1v1
			C87.8,77.5,86.4,78.9,84.7,78.9z"/>
	</g>
	<g>
		<path class="st8" d="M79.2,76.4H14.1c-0.5,0-0.8-0.4-0.8-0.8V75c0-0.5,0.4-0.8,0.8-0.8h65.2c0.5,0,0.8,0.4,0.8,0.8v0.5
			C80.1,76,79.7,76.4,79.2,76.4z"/>
	</g>
	<g>
		<path class="st9" d="M83.7,76.4H46.6c-0.5,0-0.9-0.4-0.9-0.9v-0.3c0-0.5,0.4-0.9,0.9-0.9h37.1c0.5,0,0.9,0.4,0.9,0.9v0.3
			C84.7,76,84.3,76.4,83.7,76.4z"/>
	</g>
	<g>
		<circle class="st10" cx="45.4" cy="75.3" r="4"/>
		<path class="st0" d="M45.4,80.2c-2.7,0-4.9-2.2-4.9-4.9c0-2.7,2.2-4.9,4.9-4.9s4.9,2.2,4.9,4.9C50.3,78,48.1,80.2,45.4,80.2z
			 M45.4,72.1c-1.8,0-3.2,1.4-3.2,3.2c0,1.8,1.4,3.2,3.2,3.2s3.2-1.4,3.2-3.2C48.6,73.5,47.2,72.1,45.4,72.1z"/>
	</g>
</g>
<g>
	<g>
		<g>
			<path class="st11" d="M59.7,58.7c-0.4-1.2-2.3-2.1-2.3-2.1l-7.6,2.7c0-0.1-0.1-0.1-0.2-0.1c-0.1,0-0.1,0-0.2,0.1l-7.5-2.7
				c0,0-2,0.9-2.3,2.1c-0.4,1.2,0.1,2.2,0.4,2.5c0.3,0.3,2.5,2.4,9.7,2.4l0,0l0,0l0,0c7.2,0,9.4-2.1,9.7-2.4
				C59.6,60.9,60,59.9,59.7,58.7z"/>
		</g>
		<g>
			<path class="st12" d="M40.5,49.8c0.1,2.4,0.2,5.8,0.4,7.9c0.1,1.2,0.8,2.1,1.8,2.5c2.9,0.9,8.5,1.7,13.7,0c1-0.3,1.8-1.4,1.8-2.6
				c0.1-3.6,0.2-10.8-0.9-10.7c-1.8,0.2-10,0.1-14.2,0C41.6,46.8,40.4,48.1,40.5,49.8z"/>
		</g>
		<g>
			<path class="st13" d="M40,49.7c0,0,5.3,9.2,9.3,9.2c5.7,0,9.3-9.5,9.3-9.5"/>
		</g>
		<g>
			<path class="st12" d="M65,27.9c0,0,0.9-1.7,2.3-1.4c1.9,0.4,1.7,4.8,0.8,6.4c-0.9,1.6-1.9,3.2-2,4.3c-0.6,1.2-1.5,0.7-1.9,0.4"/>
		</g>
		<g>
			<path class="st14" d="M65.8,28.7c0-0.2,0.1-0.5,0.2-0.7s0.3-0.4,0.6-0.5c0.1,0,0.1,0,0.2,0s0.1,0.1,0.2,0.1
				c0.1,0.1,0.2,0.2,0.3,0.3c0.1,0.2,0.3,0.4,0.4,0.6c0.2,0.4,0.3,0.9,0.3,1.4s-0.1,1-0.4,1.5l0,0c-0.3,0.7-0.6,1.4-1,2.1l-0.5,1
				c-0.2,0.3-0.3,0.7-0.4,1l0,0c0,0.1-0.1,0.1-0.2,0.1s-0.1-0.1-0.1-0.2c0-0.3,0-0.5-0.1-0.8c-0.1-0.2-0.3-0.5-0.6-0.5
				c0.3,0,0.6,0.2,0.7,0.4c0.2,0.3,0.2,0.6,0.2,0.9h-0.3c0.1-0.4,0.2-0.8,0.4-1.1c0.1-0.4,0.3-0.7,0.5-1.1c0.3-0.7,0.6-1.4,0.9-2.1
				l0,0c0.4-0.7,0.4-1.6,0.1-2.4c-0.1-0.2-0.2-0.4-0.3-0.6c-0.1-0.2-0.3-0.3-0.4-0.3c-0.2,0-0.3,0.1-0.5,0.3
				C66,28.3,65.9,28.5,65.8,28.7z"/>
		</g>
		<g>
			<path class="st14" d="M66.1,30.4c0,0.2,0.1,0.5,0.1,0.7c0,0.3-0.1,0.5-0.1,0.7c0,0.2,0,0.4,0.1,0.6c0.1,0.1,0.3,0.1,0.5,0.1
				l-0.1,0.6c-0.3,0-0.6-0.2-0.8-0.5c-0.2-0.3-0.1-0.6-0.1-0.8c0.1-0.3,0.2-0.5,0.2-0.7C66.1,30.9,66.1,30.7,66.1,30.4z"/>
		</g>
		<g>
			<path class="st12" d="M33.9,28c0,0-0.8-1.8-2.2-1.5c-2.1,0.3-1.9,4.8-1.1,6.4c0.8,1.6,1.8,3.3,1.9,4.3c0.6,1.2,1.5,0.8,1.8,0.4"
				/>
		</g>
		<g>
			<path class="st14" d="M33.1,28.7c-0.1-0.2-0.2-0.4-0.3-0.6s-0.3-0.3-0.5-0.3c-0.1,0-0.3,0.1-0.4,0.3c-0.1,0.2-0.2,0.4-0.3,0.6
				c-0.3,0.8-0.4,1.7,0,2.4l0,0c0.3,0.7,0.6,1.4,0.8,2.1c0.1,0.4,0.3,0.7,0.4,1.1c0.1,0.4,0.3,0.7,0.3,1.2h-0.3
				c0-0.3,0.1-0.6,0.2-0.9c0.2-0.3,0.4-0.4,0.7-0.4c-0.3,0.1-0.5,0.3-0.6,0.5S33,35.2,33,35.5c0,0.1-0.1,0.2-0.1,0.2
				c-0.1,0-0.1,0-0.2-0.1l0,0c-0.1-0.4-0.2-0.7-0.4-1l-0.5-1c-0.3-0.7-0.6-1.4-0.9-2.2l0,0c-0.3-0.5-0.3-1-0.3-1.5s0.2-1,0.4-1.4
				c0.1-0.2,0.2-0.4,0.4-0.6c0.1-0.1,0.2-0.2,0.3-0.3c0.1,0,0.1-0.1,0.2-0.1s0.2,0,0.2,0c0.3,0.1,0.4,0.3,0.5,0.5
				C33,28.3,33,28.5,33.1,28.7z"/>
		</g>
		<g>
			<path class="st14" d="M32.7,30.4c0,0.2,0,0.5,0,0.7s0.1,0.4,0.2,0.7c0.1,0.2,0.1,0.6-0.1,0.8C32.6,32.9,32.3,33,32,33v-0.6
				c0.2,0,0.4,0,0.5-0.1s0.2-0.3,0.1-0.5c0-0.2-0.1-0.5,0-0.7C32.6,30.9,32.7,30.7,32.7,30.4z"/>
		</g>
		<g>
			<path class="st12" d="M63.4,15.9c-4.3-7.6-14-7.3-14-7.3s-9.7-0.4-14,7.3c-2.2,4-1.7,14.7-1.5,16.7s0,8,2.8,13.1s8.4,8.6,9.4,9.1
				s1.8,1,3.4,1s2.4-0.5,3.4-1s6.6-4,9.4-9.1s2.6-11.1,2.8-13.1C65.1,30.6,65.7,19.9,63.4,15.9z"/>
		</g>
		<g>
			<g>
				<path class="st7" d="M44,41l10.7-0.9c0,0,0.1,4.3-5.5,4.3S44,41,44,41z"/>
			</g>
			<g>
				<path class="st14" d="M44,41c1.5-0.4,3.3-0.7,5.2-0.9C50.1,40,51,40,52,40c0.9,0,1.8,0,2.7-0.1h0.2v0.2c0,1.3-0.4,2.7-1.5,3.6
					c-1,0.9-2.4,1.3-3.7,1.3c-1.3,0.1-2.6-0.1-3.9-0.7C44.6,43.7,43.6,42.3,44,41z M44.1,41.1c0.1,0.5,0.4,1.1,0.7,1.5
					c0.4,0.4,0.9,0.7,1.4,0.9c1.1,0.4,2.3,0.4,3.4,0.4c1.2,0,2.3-0.2,3.2-0.9c0.9-0.6,1.6-1.7,1.7-2.9l0.2,0.2
					c-0.9,0.1-1.8,0.2-2.6,0.3c-0.9,0.2-1.7,0.3-2.5,0.4C47.8,41.1,46.1,41.2,44.1,41.1z"/>
			</g>
		</g>
		<g>
			<path class="st14" d="M48.8,45.9c0.6,0.1,1.2,0.2,1.7,0.1c0.3,0,0.5-0.1,0.8-0.2c0.3-0.1,0.5-0.3,0.8-0.4
				c-0.1,0.3-0.4,0.5-0.6,0.7c-0.3,0.2-0.6,0.3-0.9,0.3C49.9,46.5,49.3,46.3,48.8,45.9z"/>
		</g>
		<g>
			<g>
				<path class="st14" d="M45.6,37.7c0,0,0.3-1.5,1.8-1c0.3,0.5,0.1,0.7,0.1,0.7S47.4,37,47.2,37C47,36.9,46.5,36.8,45.6,37.7z"/>
			</g>
			<g>
				<path class="st14" d="M45.6,37.7c0.1-0.4,0.3-0.8,0.6-1c0.2-0.1,0.4-0.2,0.6-0.2c0.2,0,0.4,0,0.6,0.1l0,0l0,0
					c0.1,0.1,0.1,0.2,0.2,0.4c0,0.1,0,0.3-0.1,0.4l-0.1,0.1v-0.2c-0.1-0.2-0.2-0.4-0.3-0.4c-0.2,0-0.4,0-0.5,0
					C46.2,37.2,45.9,37.5,45.6,37.7z M45.6,37.7c0.1-0.2,0.3-0.3,0.4-0.4c0.2-0.1,0.3-0.2,0.5-0.3s0.4-0.1,0.6-0.1
					c0.3,0.1,0.3,0.3,0.4,0.5h-0.1c0,0,0.1-0.2,0-0.3c0-0.1-0.1-0.2-0.1-0.3l0,0c-0.2-0.1-0.4-0.1-0.6-0.1c-0.2,0-0.4,0-0.5,0.1
					C46,37,45.7,37.4,45.6,37.7z"/>
			</g>
		</g>
		<g>
			<g>
				<path class="st14" d="M53.7,37.7c0,0,0.1-1-1.1-1c-0.5,0-0.3-0.3-0.5-0.3c-0.2,0.5-0.1,1-0.1,1s0.2-0.4,0.4-0.5
					C52.7,36.9,53.1,36.9,53.7,37.7z"/>
			</g>
			<g>
				<path class="st14" d="M53.7,37.7c0-0.4-0.2-0.7-0.6-0.9c-0.2-0.1-0.4-0.1-0.5-0.1s-0.2,0-0.3-0.1c-0.1,0-0.1-0.1-0.1-0.2l0,0
					l0,0h0.1c-0.1,0.3-0.2,0.6-0.1,0.9H52c0.1-0.2,0.2-0.4,0.4-0.5s0.4,0,0.6,0C53.3,37.1,53.5,37.4,53.7,37.7z M53.7,37.7
					c-0.2-0.3-0.5-0.5-0.8-0.6c-0.2,0-0.4,0-0.5,0c-0.1,0.1-0.2,0.2-0.3,0.4L52,37.7l0-0.3c-0.1-0.4-0.1-0.7,0.1-1.1l0,0l0,0
					c0,0,0.1,0,0.2,0v0.1c0,0,0,0.1,0.1,0.1s0.1,0,0.2,0.1c0.2,0,0.4,0,0.6,0.1c0.2,0.1,0.4,0.2,0.4,0.4
					C53.7,37.3,53.8,37.5,53.7,37.7z"/>
			</g>
		</g>
		<g>
			<g>
				<path class="st14" d="M48.4,38.3c0,0,4.5,0.9,3.3-3.6c1.5,2.7-0.3,3.6-0.7,3.7C50.7,38.6,49,38.7,48.4,38.3z"/>
			</g>
			<g>
				<path class="st14" d="M48.4,38.3c0.5,0.1,1,0.1,1.5,0s1-0.3,1.3-0.7s0.5-0.9,0.5-1.4c0-0.3,0-0.5,0-0.8l-0.2-0.8L51.4,34
					l0.3,0.5c0.3,0.5,0.5,1.1,0.6,1.7c0.1,0.6-0.1,1.3-0.6,1.7c-0.2,0.2-0.5,0.4-0.8,0.5s-0.6,0.1-0.9,0.1
					C49.6,38.6,48.9,38.6,48.4,38.3z M48.4,38.3c0.5,0.3,1.1,0.3,1.7,0.2c0.3,0,0.6-0.1,0.9-0.1c0.3-0.1,0.5-0.3,0.7-0.5
					c0.4-0.4,0.6-1,0.5-1.6s-0.3-1.1-0.6-1.6l0.2-0.1l0.1,0.8c0,0.3,0,0.5,0,0.8c0,0.5-0.2,1.1-0.6,1.5c-0.4,0.4-0.9,0.6-1.4,0.7
					C49.5,38.4,48.9,38.4,48.4,38.3z"/>
			</g>
		</g>
		<g>
			<path class="st15" d="M41.8,27.6c0,0-0.2,0.8,0,1.3s0.5,0.9,1.1,0.9s1.1-0.4,1.2-0.9c0.1-0.5,0.1-0.8,0.1-1.3
				C43.7,27.5,42.7,27.3,41.8,27.6z"/>
		</g>
		<g>
			<path class="st14" d="M50.8,28.3c0,0-0.6,2.3,0.1,3.1C49.9,30.5,50.2,29.2,50.8,28.3z"/>
		</g>
		<g>
			<path class="st16" d="M46.2,24.1c0,0,0-1.4-0.8-1.8c-1-0.1-6.1-0.3-6.7,1.9C40.9,23.7,43.9,23.2,46.2,24.1z"/>
		</g>
		<g>
			<path class="st16" d="M52.2,26c0,0,0.1-1.5,0.9-1.9c1-0.1,6.4,0,7,2.4C57.8,25.9,54.6,25.2,52.2,26z"/>
		</g>
		<g>
			<circle class="st7" cx="42.9" cy="28.5" r="0.3"/>
		</g>
		<g>
			<path class="st16" d="M54,28.7c0,0,2.5,0.6,4.3,0c-1.3,1-3.1,0.6-4.2,0.5C53.8,28.8,54,28.7,54,28.7z"/>
		</g>
		<g>
			<path class="st16" d="M56.4,28.9c0,0,1.2-0.1,1.6-0.6c-0.2,0.3-0.3,0.6-1.5,0.8C56.6,29,56.4,28.9,56.4,28.9z"/>
		</g>
		<g>
			<path class="st16" d="M45.5,28.5c-0.5-0.7-1.9-1.7-3.4-1.3l0,0l0,0c-0.1,0-0.3,0.1-0.4,0.2c-0.3,0.1-0.7,0.2-1,0.2l-0.2,0.7
				l0.2-0.1C41.4,28.1,42.6,27.1,45.5,28.5z"/>
		</g>
		<g>
			<g>
				<path class="st16" d="M45.2,13.6c0,0-4.9-2.5-3.5-7s4.1-5.5,5.9-5.7c3.2-0.4,4.8,0,6.8,1.4s3.5,6.8,0.1,10.5
					C48.5,13.1,45.2,13.6,45.2,13.6z"/>
			</g>
			<g>
				<path class="st16" d="M44.3,3.3c0,0-2.5-0.5-3.8,0.7s-2.3,6.3-1.5,8s8.4-1.2,8.4-1.2L44.3,3.3z"/>
			</g>
			<g>
				<path class="st16" d="M52.7,3.3c0,0,2.5-0.5,3.8,0.8s2.3,6.6,1.5,8.4c-0.7,1.8-8.4-1.3-8.4-1.3L52.7,3.3z"/>
			</g>
			<g>
				<path class="st16" d="M35.6,18.2c0,0-1.4-0.2-1.5-2.6s1-3.8,1-3.8l3.4,2.4L35.6,18.2z"/>
			</g>
			<g>
				<path class="st16" d="M37,16.4c0,0-2.8-3.5-1.8-6.8S39,6.3,39,6.3l0.9,5.1L37,16.4z"/>
			</g>
			<g>
				<path class="st16" d="M63.5,18.2c0,0,1.4-0.3,1.3-2.9s-1.8-4-1.8-4l-2.8,2.8L63.5,18.2z"/>
			</g>
			<g>
				<path class="st16" d="M61.7,15.9c0,0,2.8-3.2,1.8-6.2s-3.8-3-3.8-3l-0.9,4.6L61.7,15.9z"/>
			</g>
			<g>
				<path class="st16" d="M44.1,3.3c0,0-5.4-1.3-7,5c4.2,4.3,7.2,4.8,7.2,4.8l1.9-2.6L44.1,3.3z"/>
			</g>
			<g>
				<path class="st16" d="M52.7,3.3c0,0,6.4-1.5,8.5,4c1,3.6,0.2,4.8,0.2,4.8l-4.2-0.8l-3.8,0.3L52.7,3.3z"/>
			</g>
		</g>
		<g>
			<path class="st16" d="M33.9,31.5c0.2-3.7,1-9.5,4-10.8c1-0.5,0.4-4.2,0.7-5.5c0.4-1.3,1.1-1.6,1.7-1.6c0.7,0,6.2,0.6,8.6,0.5l0,0
				c2.5,0.1,8.3-0.6,9-0.5c0.7,0,1.4,0.3,1.8,1.6c0.4,1.3-0.3,5,0.7,5.5c3.2,1.2,4.1,7,4.3,10.8H65c1.2-14.2-2.1-16.3-2.1-16.3
				s0.3-1.9-1.9-5S49,7.5,49,7.5l0,0c0,0-9.3-0.4-11.4,2.7c-2.1,3.1-1.8,5-1.8,5s-3.2,2-2,16.3H33.9z"/>
		</g>
	</g>
	<path class="st16" d="M39.1,6.8c0,0-0.7-1.6-2.7,0.4c1.1-0.4,1.4,0.7,1.4,0.7L39.1,6.8z"/>
	<path class="st16" d="M36.9,11.5c0,0-1.2-1.3-2.5,1.2C35.4,12,36,13,36,13L36.9,11.5z"/>
	<path class="st16" d="M59,6.4c0,0,1-1.5,2.9,0.7c-1.2-0.5-1.6,0.6-1.6,0.6L59,6.4z"/>
	<path class="st16" d="M61.8,11.2c0,0,1.5-1.1,2.5,1.5c-0.9-0.8-1.7,0.1-1.7,0.1L61.8,11.2z"/>
</g>
<path class="st16" d="M43,4c0,0,0.5-1.1-0.2-1.1c0.5-0.3,1.1-0.2,1.2,0.4C43.5,4,43,4,43,4z"/>
<path class="st16" d="M54.4,3.2c0,0,0.6-1,1.3-0.7c-0.4,0.2-0.2,1.5,0,1.5C56,4,54.8,3.7,54.4,3.2z"/>
<g>
	<g>
		<path class="st7" d="M87.4,56.7l-1,6.3c-0.1,0.6,0.5,1.1,1.1,0.9l1.4-0.6c0.4-0.2,1,0,1.1,0.5l0.5,1.6c0.1,0.5,0.6,0.7,1.1,0.5
			l0.6-0.2c0.4-0.2,0.6-0.6,0.4-1.1l-0.8-2c-0.2-0.4,0-0.9,0.4-1l1.3-0.6c0.6-0.3,0.6-1.1,0.1-1.4l-5-3.3
			C88.1,55.8,87.5,56.1,87.4,56.7z"/>
		<path d="M91.3,66.5c-0.2,0-0.4,0-0.6-0.1c-0.4-0.2-0.6-0.5-0.8-0.9l-0.5-1.6c0-0.1-0.1-0.1-0.1-0.1h-0.1l-1.4,0.6
			c-0.5,0.2-1.1,0.1-1.5-0.2c-0.4-0.3-0.6-0.9-0.6-1.4l1-6.3c0.1-0.5,0.4-0.9,0.9-1.1c0.5-0.2,1-0.2,1.4,0.1l5,3.3
			c0.4,0.3,0.7,0.8,0.7,1.3s-0.3,1-0.8,1.2l-1.3,0.6c-0.1,0-0.1,0.1-0.1,0.2l0.8,2c0.2,0.4,0.2,0.8,0,1.1c-0.2,0.4-0.4,0.6-0.8,0.8
			l-0.6,0.2C91.7,66.5,91.5,66.5,91.3,66.5z M89.2,62.5c0.2,0,0.4,0,0.6,0.1c0.4,0.2,0.7,0.5,0.8,0.9l0.5,1.6c0,0.1,0.1,0.1,0.1,0.1
			h0.1l0.6-0.2c0.1,0,0.1-0.1,0.1-0.1v-0.1l-0.8-2c-0.3-0.7,0-1.6,0.7-1.9l1.3-0.6c0.1,0,0.1-0.1,0.1-0.1s0-0.1-0.1-0.1l-5-3.3
			c-0.1,0-0.1,0-0.2,0c0,0-0.1,0-0.1,0.1L87,63c0,0.1,0,0.1,0.1,0.2c0,0,0.1,0.1,0.2,0l1.4-0.6C88.8,62.5,89,62.5,89.2,62.5z"/>
	</g>
</g>
</svg>
