<?xml version="1.0" encoding="utf-8"?>
<!-- Generator: Adobe Illustrator 22.0.0, SVG Export Plug-In . SVG Version: 6.00 Build 0)  -->
<svg version="1.1" id="Camada_1" xmlns="http://www.w3.org/2000/svg" xmlns:xlink="http://www.w3.org/1999/xlink" x="0px" y="0px"
	 viewBox="0 0 80 56.4" style="enable-background:new 0 0 80 56.4;" xml:space="preserve">
<style type="text/css">
	.st0{fill:#009245;}
	.st1{fill:#F2F2F2;}
	.st2{fill:#F03729;}
	.st3{fill:#F6D536;}
	.st4{fill:#27DF23;}
	.st5{fill:#6698C6;}
	.st6{fill:#CEB81D;}
	.st7{fill:#43BF25;}
	.st8{fill:#8E8D8D;}
	.st9{fill:#57E854;}
	.st10{fill:#F9D53D;}
	.st11{fill:#FFD15F;}
	.st12{fill:#F3955A;}
</style>
<path class="st0" d="M76.1,0.7H3.9c-1.8,0-3.2,1.5-3.2,3.2v6.4v1.5v39.1c0.4,3.2,2.3,5,4.7,4.7h69.2c2.6,0,4.7-2.1,4.7-4.6V11.8
	c0,0,0-1,0-1.5c0-2,0-6.4,0-6.4C79.3,2.1,77.8,0.7,76.1,0.7z M76.3,51c0,1-0.8,1.7-1.7,1.7H5.4c-1,0-1.7-0.8-1.7-1.7V13.3h72.6V51z"
	/>
<path class="st1" d="M76.8,12.3H3.2V50c0,1.6,1.4,3.1,3.1,3.1h67.4c1.7,0,3.1-1.3,3.1-3.1C76.8,50.1,76.8,12.3,76.8,12.3z"/>
<circle class="st2" cx="7.2" cy="6.3" r="2.4"/>
<circle class="st3" cx="14.8" cy="6.3" r="2.4"/>
<circle class="st4" cx="22.4" cy="6.3" r="2.4"/>
<g>
	<g>
		<path class="st5" d="M57.7,33.4h1.1c0.5,0,0.9,0.4,0.9,0.9v11.1c0,0.5-0.4,0.9-0.9,0.9h-1.1c-0.5,0-0.9-0.4-0.9-0.9V34.3
			C56.8,33.8,57.2,33.4,57.7,33.4z"/>
		<path class="st6" d="M62,37.1h1.1c0.5,0,0.9,0.4,0.9,0.9v7.4c0,0.5-0.4,0.9-0.9,0.9H62c-0.5,0-0.9-0.4-0.9-0.9V38
			C61.1,37.5,61.5,37.1,62,37.1z"/>
		<path class="st7" d="M66.5,41.1h1.1c0.5,0,0.9,0.4,0.9,0.9v3.3c0,0.5-0.4,0.9-0.9,0.9h-1.1c-0.5,0-0.9-0.4-0.9-0.9V42
			C65.6,41.5,66,41.1,66.5,41.1z"/>
		<path class="st7" d="M48.7,41.1h1.1c0.5,0,0.9,0.4,0.9,0.9v3.3c0,0.5-0.4,0.9-0.9,0.9h-1.1c-0.5,0-0.9-0.4-0.9-0.9V42
			C47.8,41.5,48.2,41.1,48.7,41.1z"/>
		<path class="st6" d="M53,37.1h1.1c0.5,0,0.9,0.4,0.9,0.9v7.4c0,0.5-0.4,0.9-0.9,0.9H53c-0.5,0-0.9-0.4-0.9-0.9V38
			C52.1,37.5,52.5,37.1,53,37.1z"/>
	</g>
	<path class="st8" d="M51.5,23.6h-1.6c-0.5,0-1-0.4-1-1v-2c0-0.5,0.4-1,1-1h1.6c0.5,0,1,0.4,1,1v2C52.4,23.2,52,23.6,51.5,23.6z"/>
	<path class="st8" d="M56.4,23.6h-1.6c-0.5,0-1-0.4-1-1v-2c0-0.5,0.4-1,1-1h1.6c0.5,0,1,0.4,1,1v2C57.3,23.2,56.9,23.6,56.4,23.6z"
		/>
	<path class="st8" d="M61.6,23.6H60c-0.5,0-1-0.4-1-1v-2c0-0.5,0.4-1,1-1h1.6c0.5,0,1,0.4,1,1v2C62.6,23.2,62.1,23.6,61.6,23.6z"/>
	<path class="st8" d="M66.5,23.6h-1.6c-0.5,0-1-0.4-1-1v-2c0-0.5,0.4-1,1-1h1.6c0.5,0,1,0.4,1,1v2C67.5,23.2,67,23.6,66.5,23.6z"/>
	<circle class="st9" cx="50.7" cy="28.1" r="1.8"/>
	<circle class="st9" cx="55.6" cy="28.1" r="1.8"/>
	<circle class="st9" cx="60.8" cy="28.1" r="1.8"/>
	<circle class="st10" cx="65.7" cy="28.1" r="1.8"/>
	<g>
		<path class="st11" d="M19.4,45.6L25,32.3l0,0l0-0.1l6.7-12.8c-0.1,0-0.1,0-0.2-0.1c-7.4-3.1-15.9,0.4-19,7.8
			C9.7,34.2,12.8,42.2,19.4,45.6z"/>
		<path class="st12" d="M21.5,46.5c0.9,0.3,1.9,0.5,2.9,0.6c7.6,0.9,14.5-4.2,15.9-11.6l-13.5-1.6L21.5,46.5z"/>
		<path class="st5" d="M33.7,20.4l-1,2l-5,9.4l12.8,1.5C40.8,28,38.3,23.2,33.7,20.4z"/>
	</g>
</g>
</svg>
