<?xml version="1.0" encoding="utf-8"?>
<!-- Generator: Adobe Illustrator 22.0.0, SVG Export Plug-In . SVG Version: 6.00 Build 0)  -->
<svg version="1.1" id="Camada_1" xmlns="http://www.w3.org/2000/svg" xmlns:xlink="http://www.w3.org/1999/xlink" x="0px" y="0px"
	 viewBox="0 0 187.5 146.5" style="enable-background:new 0 0 187.5 146.5;" xml:space="preserve">
<style type="text/css">
	.st0{fill:#2E3873;}
	.st1{fill:#364291;}
	.st2{fill:#4754AC;}
	.st3{fill:#FFFFFF;}
	.st4{fill:#5964AF;}
</style>
<g>
	<g>
		<g>
			<path class="st0" d="M89.7,72.5L89.7,72.5C87.2,61.2,68.6,52.4,46,52.4c-21.7,0-39.7,8.1-43.3,18.8l0,0c0,0-0.3,0.4-0.5,1.9l0,0
				l0,0c-0.2,1.2-0.3,3.1-0.3,6.2l0,0C1.8,83.4,1.8,88.4,2.3,90c0,0,0,0,0-0.1C4.8,101.2,23.4,110,46,110c22.2,0,40.5-8.5,43.5-19.5
				l0,0c0,0,0.1-0.4,0.2-0.9l0,0c0,0,0.3-0.5,0.3-3.1l0,0C90.2,82.7,90.4,74.5,89.7,72.5z"/>
			<g>
				<path class="st1" d="M89.7,60.2L89.7,60.2C87.2,48.9,68.6,40.1,46,40.1c-21.7,0-39.7,8.1-43.3,18.8l0,0c0,0-0.3,0.4-0.5,1.9l0,0
					l0,0C2,62.1,1.8,64,1.9,67l0,0c-0.1,4.1-0.1,9.1,0.4,10.7c0,0,0,0,0-0.1C4.8,88.9,23.4,97.7,46,97.7c22.2,0,40.5-8.5,43.5-19.5
					l0,0c0,0,0.1-0.4,0.2-0.9l0,0c0,0,0.3-0.5,0.3-3.1l0,0C90.2,70.5,90.4,62.2,89.7,60.2z"/>
				<g>
					<ellipse class="st2" cx="46" cy="62.5" rx="44" ry="22.7"/>
				</g>
				<path class="st3" d="M35,50.7v0.7c0,0.6-1.1,0.8-1.1,0.8l0,0c-5.5,1.1-9.1,3.6-9.1,6.7v7c0,0.8,1.4,1.4,3,1.4h5.5
					c1.5,0,1.6,0.6,1.6,0.7v0.4c0,0.8,1.4,1.4,3.1,1.4h4.1c1.7,0,3.1-0.6,3.1-1.4v-0.3c0,0,0.1-0.7,1.6-0.7h17.1c1.7,0,3-0.6,3-1.4
					v-2.6c0-0.8-1.4-1.4-3-1.4h-5.6c-1.7,0-3-0.6-3-1.4V59c0-3.1-3.6-5.6-9.1-6.7l0,0c0,0-1.1-0.2-1.1-0.8l0,0v-0.7
					c0-0.8-1.4-1.4-3-1.4h-4.2C36.4,49.3,35,49.9,35,50.7z M45.3,59.7V62H35v-2.3c0-1.4,2.1-2.4,5.1-2.4
					C43.2,57.3,45.3,58.2,45.3,59.7z"/>
			</g>
		</g>
	</g>
	<g>
		<g>
			<path class="st0" d="M89.7,53.5L89.7,53.5C87.2,42.2,68.6,33.4,46,33.4c-21.7,0-39.7,8.1-43.3,18.8l0,0c0,0-0.3,0.4-0.5,1.9l0,0
				l0,0c-0.2,1.2-0.3,3.1-0.3,6.2l0,0C1.8,64.4,1.8,69.4,2.3,71c0,0,0,0,0-0.1C4.8,82.2,23.4,91,46,91c22.2,0,40.5-8.5,43.5-19.5
				l0,0c0,0,0.1-0.4,0.2-0.9l0,0c0,0,0.3-0.5,0.3-3.1l0,0C90.2,63.7,90.4,55.5,89.7,53.5z"/>
			<g>
				<path class="st1" d="M89.7,41.2L89.7,41.2C87.2,29.9,68.6,21.1,46,21.1c-21.7,0-39.7,8.1-43.3,18.8l0,0c0,0-0.3,0.4-0.5,1.9l0,0
					l0,0C2,43.1,1.8,45,1.9,48l0,0c-0.1,4.1-0.1,9.1,0.4,10.7c0,0,0,0,0-0.1C4.8,69.9,23.4,78.7,46,78.7c22.2,0,40.5-8.5,43.5-19.5
					l0,0c0,0,0.1-0.4,0.2-0.9l0,0c0,0,0.3-0.5,0.3-3.1l0,0C90.2,51.5,90.4,43.2,89.7,41.2z"/>
				<g>
					<ellipse class="st2" cx="46" cy="43.5" rx="44" ry="22.7"/>
				</g>
				<path class="st3" d="M35,31.7v0.7c0,0.6-1.1,0.8-1.1,0.8l0,0c-5.5,1.1-9.1,3.6-9.1,6.7v7c0,0.8,1.4,1.4,3,1.4h5.5
					c1.5,0,1.6,0.6,1.6,0.7v0.4c0,0.8,1.4,1.4,3.1,1.4h4.1c1.7,0,3.1-0.6,3.1-1.4v-0.3c0,0,0.1-0.7,1.6-0.7h17.1c1.7,0,3-0.6,3-1.4
					v-2.6c0-0.8-1.4-1.4-3-1.4h-5.6c-1.7,0-3-0.6-3-1.4V40c0-3.1-3.6-5.6-9.1-6.7l0,0c0,0-1.1-0.2-1.1-0.8l0,0v-0.7
					c0-0.8-1.4-1.4-3-1.4h-4.2C36.4,30.3,35,30.9,35,31.7z M45.3,40.7V43H35v-2.3c0-1.4,2.1-2.4,5.1-2.4
					C43.2,38.3,45.3,39.2,45.3,40.7z"/>
			</g>
		</g>
	</g>
	<g>
		<g>
			<path class="st0" d="M89.7,34.5L89.7,34.5C87.2,23.2,68.6,14.4,46,14.4c-21.7,0-39.7,8.1-43.3,18.8l0,0c0,0-0.3,0.4-0.5,1.9l0,0
				l0,0c-0.2,1.2-0.3,3.1-0.3,6.2l0,0C1.8,45.4,1.8,50.4,2.3,52c0,0,0,0,0-0.1C4.8,63.2,23.4,72,46,72c22.2,0,40.5-8.5,43.5-19.5
				l0,0c0,0,0.1-0.4,0.2-0.9l0,0c0,0,0.3-0.5,0.3-3.1l0,0C90.2,44.7,90.4,36.5,89.7,34.5z"/>
			<g>
				<path class="st1" d="M89.7,22.2L89.7,22.2C87.2,10.9,68.6,2.1,46,2.1c-21.7,0-39.7,8.1-43.3,18.8l0,0c0,0-0.3,0.4-0.5,1.9l0,0
					l0,0C2,24.1,1.8,26,1.9,29l0,0c-0.1,4.1-0.1,9.1,0.4,10.7c0,0,0,0,0-0.1C4.8,50.9,23.4,59.7,46,59.7c22.2,0,40.5-8.5,43.5-19.5
					l0,0c0,0,0.1-0.4,0.2-0.9l0,0c0,0,0.3-0.5,0.3-3.1l0,0C90.2,32.5,90.4,24.2,89.7,22.2z"/>
				<g>
					<ellipse class="st2" cx="46" cy="24.5" rx="44" ry="22.7"/>
				</g>
				<path class="st3" d="M35,12.7v0.7c0,0.6-1.1,0.8-1.1,0.8l0,0c-5.5,1.1-9.1,3.6-9.1,6.7v7c0,0.8,1.4,1.4,3,1.4h5.5
					c1.5,0,1.6,0.6,1.6,0.7v0.4c0,0.8,1.4,1.4,3.1,1.4h4.1c1.7,0,3.1-0.6,3.1-1.4v-0.3c0,0,0.1-0.7,1.6-0.7h17.1c1.7,0,3-0.6,3-1.4
					v-2.6c0-0.8-1.4-1.4-3-1.4h-5.6c-1.7,0-3-0.6-3-1.4V21c0-3.1-3.6-5.6-9.1-6.7l0,0c0,0-1.1-0.2-1.1-0.8l0,0v-0.7
					c0-0.8-1.4-1.4-3-1.4h-4.2C36.4,11.3,35,11.9,35,12.7z M45.3,21.7V24H35v-2.3c0-1.4,2.1-2.4,5.1-2.4
					C43.2,19.3,45.3,20.2,45.3,21.7z"/>
			</g>
		</g>
	</g>
</g>
<g>
	<path class="st0" d="M185.2,79.7C185.2,79.8,185.2,79.8,185.2,79.7c-2.5-11.3-21.1-20.1-43.7-20.1c-21.7,0-39.7,8.1-43.3,18.8l0,0
		c0,0-0.3,0.4-0.5,1.9l0,0l0,0c-0.2,1.2-0.3,3.1-0.3,6.2l0,0c-0.1,4.1-0.1,9.1,0.4,10.7c0,0,0,0,0-0.1c2.5,11.3,21.1,20.1,43.7,20.1
		c22.2,0,40.5-8.5,43.5-19.5l0,0c0,0,0.1-0.4,0.2-0.9l0,0c0,0,0.3-0.5,0.3-3.1l0,0C185.7,90,185.9,81.8,185.2,79.7z"/>
	<g>
		<path class="st1" d="M185.2,67.5L185.2,67.5c-2.5-11.3-21.1-20.1-43.7-20.1c-21.7,0-39.7,8.1-43.3,18.8l0,0c0,0-0.3,0.4-0.5,1.9
			l0,0l0,0c-0.2,1.2-0.3,3.1-0.3,6.2l0,0c-0.1,4.1-0.1,9.1,0.4,10.7c0,0,0,0,0-0.1c2.5,11.3,21.1,20.1,43.7,20.1
			c22.2,0,40.5-8.5,43.5-19.5l0,0c0,0,0.1-0.4,0.2-0.9l0,0c0,0,0.3-0.5,0.3-3.1l0,0C185.7,77.8,185.9,69.5,185.2,67.5z"/>
		<g>
			<ellipse class="st2" cx="141.5" cy="69.8" rx="44" ry="22.7"/>
		</g>
		<path class="st3" d="M130.6,58v0.7c0,0.6-1.1,0.8-1.1,0.8l0,0c-5.5,1.1-9.1,3.6-9.1,6.7v7c0,0.8,1.4,1.4,3,1.4h5.5
			c1.5,0,1.6,0.6,1.6,0.7v0.4c0,0.8,1.4,1.4,3.1,1.4h4.1c1.7,0,3.1-0.6,3.1-1.4v-0.3c0,0,0.1-0.7,1.6-0.7h17.1c1.7,0,3-0.6,3-1.4
			v-2.6c0-0.8-1.4-1.4-3-1.4H154c-1.7,0-3-0.6-3-1.4v-1.6c0-3.1-3.6-5.6-9.1-6.7l0,0c0,0-1.1-0.2-1.1-0.8l0,0V58
			c0-0.8-1.4-1.4-3-1.4h-4.2C131.9,56.6,130.6,57.2,130.6,58z M140.8,67v2.3h-10.2V67c0-1.4,2.1-2.4,5.1-2.4
			C138.7,64.6,140.8,65.5,140.8,67z"/>
	</g>
</g>
<g>
	<path class="st0" d="M185.2,55.8L185.2,55.8c-2.5-11.3-21.1-20.1-43.7-20.1c-21.7,0-39.7,8.1-43.3,18.8l0,0c0,0-0.3,0.4-0.5,1.9
		l0,0l0,0c-0.2,1.2-0.3,3.1-0.3,6.2l0,0c-0.1,4.1-0.1,9.1,0.4,10.7c0,0,0,0,0-0.1c2.5,11.3,21.1,20.1,43.7,20.1
		c22.2,0,40.5-8.5,43.5-19.5l0,0c0,0,0.1-0.4,0.2-0.9l0,0c0,0,0.3-0.5,0.3-3.1l0,0C185.7,66.1,185.9,57.8,185.2,55.8z"/>
	<g>
		<path class="st1" d="M185.2,43.5C185.2,43.5,185.2,43.6,185.2,43.5c-2.5-11.3-21.1-20.1-43.7-20.1c-21.7,0-39.7,8.1-43.3,18.8l0,0
			c0,0-0.3,0.4-0.5,1.9l0,0l0,0c-0.2,1.2-0.3,3.1-0.3,6.2l0,0c-0.1,4.1-0.1,9.1,0.4,10.7c0,0,0,0,0-0.1
			c2.5,11.3,21.1,20.1,43.7,20.1c22.2,0,40.5-8.5,43.5-19.5l0,0c0,0,0.1-0.4,0.2-0.9l0,0c0,0,0.3-0.5,0.3-3.1l0,0
			C185.7,53.8,185.9,45.6,185.2,43.5z"/>
		<g>
			<ellipse class="st2" cx="141.5" cy="45.9" rx="44" ry="22.7"/>
		</g>
		<path class="st3" d="M130.6,34.1v0.7c0,0.6-1.1,0.8-1.1,0.8l0,0c-5.5,1.1-9.1,3.6-9.1,6.7v7c0,0.8,1.4,1.4,3,1.4h5.5
			c1.5,0,1.6,0.6,1.6,0.7v0.4c0,0.8,1.4,1.4,3.1,1.4h4.1c1.7,0,3.1-0.6,3.1-1.4v-0.3c0,0,0.1-0.7,1.6-0.7h17.1c1.7,0,3-0.6,3-1.4
			v-2.6c0-0.8-1.4-1.4-3-1.4H154c-1.7,0-3-0.6-3-1.4v-1.6c0-3.1-3.6-5.6-9.1-6.7l0,0c0,0-1.1-0.2-1.1-0.8l0,0v-0.7
			c0-0.8-1.4-1.4-3-1.4h-4.2C131.9,32.6,130.6,33.3,130.6,34.1z M140.8,43v2.3h-10.2V43c0-1.4,2.1-2.4,5.1-2.4
			C138.7,40.6,140.8,41.5,140.8,43z"/>
	</g>
</g>
<g>
	<ellipse class="st1" cx="89.6" cy="92.8" rx="44.2" ry="43.9"/>
	<ellipse class="st1" cx="89.6" cy="92.9" rx="44.2" ry="43.9"/>
	<ellipse class="st1" cx="89.6" cy="92.9" rx="44.2" ry="43.9"/>
	<ellipse class="st1" cx="89.6" cy="93" rx="44.2" ry="43.9"/>
	<ellipse class="st1" cx="89.6" cy="93.1" rx="44.2" ry="43.9"/>
	<ellipse class="st1" cx="89.6" cy="93.1" rx="44.2" ry="43.9"/>
	<ellipse class="st1" cx="89.6" cy="93.2" rx="44.2" ry="43.9"/>
	<ellipse class="st1" cx="89.6" cy="93.3" rx="44.2" ry="43.9"/>
	<ellipse class="st1" cx="89.6" cy="93.3" rx="44.2" ry="43.9"/>
	<ellipse class="st1" cx="89.6" cy="93.4" rx="44.2" ry="43.9"/>
	<ellipse class="st1" cx="89.6" cy="93.5" rx="44.2" ry="43.9"/>
	<ellipse class="st1" cx="89.6" cy="93.6" rx="44.2" ry="43.9"/>
	<ellipse class="st1" cx="89.6" cy="93.6" rx="44.2" ry="43.9"/>
	<ellipse class="st1" cx="89.6" cy="93.7" rx="44.2" ry="43.9"/>
	<ellipse class="st1" cx="89.6" cy="93.8" rx="44.2" ry="43.9"/>
	<ellipse class="st1" cx="89.6" cy="93.8" rx="44.2" ry="43.9"/>
	<ellipse class="st1" cx="89.6" cy="93.9" rx="44.2" ry="43.9"/>
	<ellipse class="st1" cx="89.6" cy="94" rx="44.2" ry="43.9"/>
	<ellipse class="st1" cx="89.6" cy="94" rx="44.2" ry="43.9"/>
	<ellipse class="st1" cx="89.6" cy="94.1" rx="44.2" ry="43.9"/>
	<ellipse class="st1" cx="89.6" cy="94.2" rx="44.2" ry="43.9"/>
	<ellipse class="st1" cx="89.6" cy="94.3" rx="44.2" ry="43.9"/>
	<ellipse class="st1" cx="89.6" cy="94.3" rx="44.2" ry="43.9"/>
	<ellipse class="st1" cx="89.6" cy="94.4" rx="44.2" ry="43.9"/>
	<ellipse class="st1" cx="89.6" cy="94.5" rx="44.2" ry="43.9"/>
	<ellipse class="st1" cx="89.6" cy="94.5" rx="44.2" ry="43.9"/>
	<ellipse class="st1" cx="89.6" cy="94.6" rx="44.2" ry="43.9"/>
	<ellipse class="st1" cx="89.6" cy="94.7" rx="44.2" ry="43.9"/>
	<ellipse class="st1" cx="89.6" cy="94.7" rx="44.2" ry="43.9"/>
	<ellipse class="st1" cx="89.6" cy="94.8" rx="44.2" ry="43.9"/>
	<ellipse class="st1" cx="89.6" cy="94.9" rx="44.2" ry="43.9"/>
	<ellipse class="st1" cx="89.6" cy="94.9" rx="44.2" ry="43.9"/>
	<ellipse class="st1" cx="89.6" cy="95" rx="44.2" ry="43.9"/>
	<ellipse class="st1" cx="89.6" cy="95.1" rx="44.2" ry="43.9"/>
	<ellipse class="st1" cx="89.6" cy="95.2" rx="44.2" ry="43.9"/>
	<ellipse class="st1" cx="89.6" cy="95.2" rx="44.2" ry="43.9"/>
	<ellipse class="st1" cx="89.6" cy="95.3" rx="44.2" ry="43.9"/>
	<ellipse class="st1" cx="89.6" cy="95.4" rx="44.2" ry="43.9"/>
	<ellipse class="st1" cx="89.6" cy="95.4" rx="44.2" ry="43.9"/>
	<ellipse class="st1" cx="89.6" cy="95.5" rx="44.2" ry="43.9"/>
	<ellipse class="st1" cx="89.6" cy="95.6" rx="44.2" ry="43.9"/>
	<ellipse class="st1" cx="89.6" cy="95.6" rx="44.2" ry="43.9"/>
	<ellipse class="st1" cx="89.6" cy="95.7" rx="44.2" ry="43.9"/>
	<ellipse class="st1" cx="89.6" cy="95.8" rx="44.2" ry="43.9"/>
	<ellipse class="st1" cx="89.6" cy="95.9" rx="44.2" ry="43.9"/>
	<ellipse class="st1" cx="89.6" cy="95.9" rx="44.2" ry="43.9"/>
	<ellipse class="st1" cx="89.6" cy="96" rx="44.2" ry="43.9"/>
	<ellipse class="st1" cx="89.6" cy="96.1" rx="44.2" ry="43.9"/>
	<ellipse class="st1" cx="89.6" cy="96.1" rx="44.2" ry="43.9"/>
	<ellipse class="st1" cx="89.6" cy="96.2" rx="44.2" ry="43.9"/>
	<ellipse class="st1" cx="89.6" cy="96.3" rx="44.2" ry="43.9"/>
	<ellipse class="st1" cx="89.6" cy="96.3" rx="44.2" ry="43.9"/>
	<ellipse class="st1" cx="89.6" cy="96.4" rx="44.2" ry="43.9"/>
	<ellipse class="st1" cx="89.6" cy="96.5" rx="44.2" ry="43.9"/>
	<ellipse class="st1" cx="89.6" cy="96.6" rx="44.2" ry="43.9"/>
	<ellipse class="st1" cx="89.6" cy="96.6" rx="44.2" ry="43.9"/>
	<ellipse class="st1" cx="89.6" cy="96.7" rx="44.2" ry="43.9"/>
	<ellipse class="st1" cx="89.6" cy="96.8" rx="44.2" ry="43.9"/>
	<ellipse class="st1" cx="89.6" cy="96.8" rx="44.2" ry="43.9"/>
	<ellipse class="st1" cx="89.6" cy="96.9" rx="44.2" ry="43.9"/>
	<ellipse class="st1" cx="89.6" cy="97" rx="44.2" ry="43.9"/>
	<ellipse class="st1" cx="89.6" cy="97" rx="44.2" ry="43.9"/>
	<ellipse class="st1" cx="89.6" cy="97.1" rx="44.2" ry="43.9"/>
	<ellipse class="st1" cx="89.6" cy="97.2" rx="44.2" ry="43.9"/>
	<ellipse class="st1" cx="89.6" cy="97.2" rx="44.2" ry="43.9"/>
	<ellipse class="st1" cx="89.6" cy="97.3" rx="44.2" ry="43.9"/>
	<ellipse class="st1" cx="89.6" cy="97.4" rx="44.2" ry="43.9"/>
	<ellipse class="st1" cx="89.6" cy="97.5" rx="44.2" ry="43.9"/>
	<ellipse class="st1" cx="89.6" cy="97.5" rx="44.2" ry="43.9"/>
	<ellipse class="st1" cx="89.6" cy="97.6" rx="44.2" ry="43.9"/>
	<ellipse class="st1" cx="89.6" cy="97.7" rx="44.2" ry="43.9"/>
	<ellipse class="st1" cx="89.6" cy="97.7" rx="44.2" ry="43.9"/>
	<ellipse class="st1" cx="89.6" cy="97.8" rx="44.2" ry="43.9"/>
	<ellipse class="st1" cx="89.6" cy="97.9" rx="44.2" ry="43.9"/>
	<ellipse class="st1" cx="89.6" cy="97.9" rx="44.2" ry="43.9"/>
	<ellipse class="st1" cx="89.6" cy="98" rx="44.2" ry="43.9"/>
	<ellipse class="st1" cx="89.6" cy="98.1" rx="44.2" ry="43.9"/>
	<ellipse class="st1" cx="89.6" cy="98.2" rx="44.2" ry="43.9"/>
	<ellipse class="st1" cx="89.6" cy="98.2" rx="44.2" ry="43.9"/>
	<ellipse class="st1" cx="89.6" cy="98.3" rx="44.2" ry="43.9"/>
	<ellipse class="st1" cx="89.6" cy="98.4" rx="44.2" ry="43.9"/>
	<ellipse class="st1" cx="89.6" cy="98.4" rx="44.2" ry="43.9"/>
	<ellipse class="st1" cx="89.6" cy="98.5" rx="44.2" ry="43.9"/>
	<ellipse class="st1" cx="89.6" cy="98.6" rx="44.2" ry="43.9"/>
	<ellipse class="st1" cx="89.6" cy="98.6" rx="44.2" ry="43.9"/>
	<ellipse class="st1" cx="89.6" cy="98.7" rx="44.2" ry="43.9"/>
	<ellipse class="st1" cx="89.6" cy="98.8" rx="44.2" ry="43.9"/>
	<ellipse class="st1" cx="89.6" cy="98.8" rx="44.2" ry="43.9"/>
	<ellipse class="st1" cx="89.6" cy="98.9" rx="44.2" ry="43.9"/>
	<ellipse class="st1" cx="89.6" cy="99" rx="44.2" ry="43.9"/>
	<ellipse class="st1" cx="89.6" cy="99.1" rx="44.2" ry="43.9"/>
	<ellipse class="st1" cx="89.6" cy="99.1" rx="44.2" ry="43.9"/>
	<ellipse class="st1" cx="89.6" cy="99.2" rx="44.2" ry="43.9"/>
	<ellipse class="st1" cx="89.6" cy="99.3" rx="44.2" ry="43.9"/>
	<ellipse class="st1" cx="89.6" cy="99.3" rx="44.2" ry="43.9"/>
	<ellipse class="st1" cx="89.6" cy="99.4" rx="44.2" ry="43.9"/>
	<ellipse class="st1" cx="89.6" cy="99.5" rx="44.2" ry="43.9"/>
	<ellipse class="st1" cx="89.6" cy="99.5" rx="44.2" ry="43.9"/>
	<ellipse class="st1" cx="89.6" cy="99.6" rx="44.2" ry="43.9"/>
	<ellipse class="st1" cx="89.6" cy="99.7" rx="44.2" ry="43.9"/>
	<ellipse class="st1" cx="89.6" cy="99.8" rx="44.2" ry="43.9"/>
	<ellipse class="st1" cx="89.6" cy="99.8" rx="44.2" ry="43.9"/>
	<ellipse class="st1" cx="89.6" cy="99.9" rx="44.2" ry="43.9"/>
	<ellipse class="st1" cx="89.6" cy="100" rx="44.2" ry="43.9"/>
	<ellipse class="st1" cx="89.6" cy="100" rx="44.2" ry="43.9"/>
	<ellipse class="st1" cx="89.6" cy="100.1" rx="44.2" ry="43.9"/>
	<ellipse class="st1" cx="89.6" cy="100.2" rx="44.2" ry="43.9"/>
	<ellipse class="st1" cx="89.6" cy="100.2" rx="44.2" ry="43.9"/>
	<ellipse class="st1" cx="89.6" cy="100.3" rx="44.2" ry="43.9"/>
	<ellipse class="st1" cx="89.6" cy="100.4" rx="44.2" ry="43.9"/>
	<ellipse class="st1" cx="89.6" cy="100.5" rx="44.2" ry="43.9"/>
	<ellipse class="st1" cx="89.6" cy="100.5" rx="44.2" ry="43.9"/>
	<ellipse class="st1" cx="89.6" cy="100.6" rx="44.2" ry="43.9"/>
	<ellipse class="st1" cx="89.6" cy="100.7" rx="44.2" ry="43.9"/>
	<ellipse class="st1" cx="89.6" cy="100.7" rx="44.2" ry="43.9"/>
	<ellipse class="st1" cx="89.6" cy="100.8" rx="44.2" ry="43.9"/>
	<ellipse class="st1" cx="89.6" cy="100.9" rx="44.2" ry="43.9"/>
	<ellipse class="st1" cx="89.6" cy="100.9" rx="44.2" ry="43.9"/>
</g>
<circle class="st4" cx="89.6" cy="101.2" r="44.2"/>
<path class="st3" d="M110.9,90.2h-1.5c-1.3,0-1.7-1.1-1.7-1.1h-0.1c-2.3-5.5-7.7-9.1-14.4-9.1h-15c-1.7,0-3,1.4-3,3v5.5
	c0,1.5-1.3,1.6-1.5,1.6h-0.8c-1.7,0-3.1,1.4-3.1,3.1v4.1c0,1.7,1.4,3.1,3.1,3.1h0.7c0,0,1.5,0.1,1.5,1.7v17.2c0,1.7,1.4,3,3,3h5.6
	c1.7,0,3-1.4,3-3v-5.6c0-1.7,1.4-3,3-3H93c6.7,0,12-3.6,14.4-9.1l0,0c0,0,0.4-1.1,1.7-1.1h0.1h1.5c1.7,0,3.1-1.4,3.1-3.1v-4.2
	C113.9,91.6,112.5,90.2,110.9,90.2z M91.8,100.5h-4.9V90.2h4.9c3.1,0,5.1,2.1,5.1,5.1C96.9,98.4,94.9,100.5,91.8,100.5z"/>
</svg>
