<?xml version="1.0" encoding="utf-8"?>
<!-- Generator: Adobe Illustrator 22.0.0, SVG Export Plug-In . SVG Version: 6.00 Build 0)  -->
<svg version="1.1" id="Camada_1" xmlns="http://www.w3.org/2000/svg" xmlns:xlink="http://www.w3.org/1999/xlink" x="0px" y="0px"
	 viewBox="0 0 250 250" style="enable-background:new 0 0 250 250;" xml:space="preserve">
<style type="text/css">
	.st0{fill:#F1F0F0;}
	.st1{fill:#225099;}
	.st2{fill:#C12930;}
</style>
<g>
	<path class="st0" d="M167.4,241.7c-3,1.8-6.4,2.5-9.7,3.3c-8,2.1-16,3.4-24.3,4c-15.4,1.2-30.4-0.9-45.2-5
		c-1.8-0.5-3.5-1.2-5.2-1.8c-0.8-0.5-1.1-1.3-1.1-2.3c0-0.8,0-1.6,0-2.4c0-75,0-149.9,0-224.9c0-1.6-0.6-3.4,1.1-4.7
		c7.6-2.7,15.4-4.6,23.4-5.8c7.6-1.1,15.3-1.7,22.9-1.4c11.4,0.5,22.7,2.2,33.6,5.9c1.5,0.5,3.2,0.5,4.4,1.7c1,1.2,0.7,2.6,0.7,3.9
		c0,28.3,0,56.5,0,84.8c0,46.8,0,93.6,0,140.4C168.1,238.9,168.4,240.4,167.4,241.7z"/>
	<path class="st1" d="M81.1,241.3c-9-3.1-17.3-7.5-25.2-12.8c-17.5-11.8-31.3-27-41.1-45.7c-7.1-13.5-11.5-27.9-13.3-43.1
		c-2.4-20.6,0.2-40.6,7.7-60c7.3-18.7,18.7-34.7,33.7-48C53.9,22,66.1,14.5,79.8,9.2c0.4-0.2,0.9-0.3,1.4-0.4
		c1.1,1.1,0.7,2.6,0.7,3.9c0,26.5,0,53,0,79.5c0,48.3,0,96.6,0,144.9C81.8,238.5,82.2,240,81.1,241.3z"/>
	<path class="st2" d="M168.9,8.8c11.8,4.2,22.6,10.4,32.4,18.1c16.6,13,29.3,29.1,37.7,48.5c8.8,20.3,11.9,41.4,9.5,63.5
		c-1.9,17.4-7.2,33.6-16,48.7c-11.8,20.2-28.1,35.9-48.7,47.1c-4.8,2.6-9.7,4.9-14.9,6.6c-1.1-1.1-0.7-2.6-0.7-3.9
		c0-26.6,0-53.1,0-79.7c0-48.2,0-96.5,0-144.7C168.2,11.6,167.8,10.1,168.9,8.8z"/>
</g>
</svg>
