<?xml version="1.0" encoding="utf-8"?>
<!-- Generator: Adobe Illustrator 22.0.0, SVG Export Plug-In . SVG Version: 6.00 Build 0)  -->
<svg version="1.1" id="Camada_1" xmlns="http://www.w3.org/2000/svg" xmlns:xlink="http://www.w3.org/1999/xlink" x="0px" y="0px"
	 viewBox="0 0 171.9 135.2" style="enable-background:new 0 0 171.9 135.2;" xml:space="preserve">
<style type="text/css">
	.st0{fill:#67A17E;}
	.st1{fill:#551517;}
	.st2{fill:#B47261;}
	.st3{fill:#885243;}
	.st4{fill:#3C1716;}
	.st5{fill:#F1DCDF;}
	.st6{fill:#C5897B;}
	.st7{fill:#FFFFFF;}
	.st8{fill:#BCA436;}
	.st9{fill:#8C4520;}
	.st10{fill:#6E391B;}
	.st11{fill:#DA9A7E;}
	.st12{fill:#BA7C5E;}
	.st13{fill:#F0DBDC;}
	.st14{fill:#72352D;}
	.st15{fill:#801836;}
	.st16{fill:#592C16;}
	.st17{fill:none;stroke:#C06E36;stroke-width:1.5;stroke-miterlimit:10;}
	.st18{fill:#C06E36;}
	.st19{fill:#A5A5A5;}
	.st20{fill:#59896D;}
	.st21{fill:#A08B32;}
	.st22{fill:#ABEDAB;}
	.st23{fill:#E09B10;}
</style>
<path class="st0" d="M135,89.6c-0.8-0.1-1.6,0-2.4,0.2c-0.8,0-2.1,0-3.8,0.2c-6.9,0.7-8,2.8-16.9,5.2c-1.2,0.3-3.9,1-6.9,2.8
	c-1.8,1.1-2.4,1.8-2.8,2.1c-1.7,1.7-2.5,4-2.1,6.4l0.2,1.4c0.5,2.9,2.6,5.3,5.5,5.9l0,0c2.3,0.6,4.8,0.3,6.9-0.6l6.7-3
	c2.2-1,4.8-1,7-0.1l11.6,5c0.9,0.4,1.9,0.6,2.9,0.6h0c3.3,0,6.5-1.2,9-3.4l2.9-2.6c1.7-1.5,4-2.2,6.2-1.7l2.2,0.4
	c2.7,0.5,5.5-0.5,7.2-2.7l0.1-0.1c0.4-0.7,2.3-3.6,1.2-6.4c-0.8-2.1-2.7-3.1-5.3-4.3c-3.3-1.6-6-2-11.2-2.9
	c-1.8-0.3-5.2-0.9-9.5-1.7L135,89.6z"/>
<path class="st1" d="M124.5,54.1c0,0-5.6,6-9.7,6.4c-0.5,0.1-1-0.2-1.2-0.7c-1.6-3,0.1-7.5,2.4-7.8c-2.6,1-2.6-1.8-2.6-1.8
	s-0.1-4.9,5.8-8.6c-5-1.8-1-5.7-0.5-6.2c0.4-0.5,3.9-3,10.4-1.8c-0.7-4.6,10.2-6.2,12.7-5.6c2.5,0.6,4.3,3.1,2.9,5.2
	c6.6-1.2,12.2,5.1,12.4,8c0.2,2.9-1.7,3.1-1.7,3.1s5.7,3.9,3.8,9.2c-0.8,2.1-2.4,1.7-2.4,1.7s3.2,1.3,1.8,4.8
	c-1.4,3.5-16-3.1-16-3.1l-8-4.8L124.5,54.1z"/>
<path class="st2" d="M122.9,57.5c0,0-3.4-5.3-6.8-0.8c-3,5.3,0.4,8.3,0.4,8.3s1.3,2.2,3.8,0.3C121.9,62.9,122.9,57.5,122.9,57.5z"/>
<path class="st2" d="M149.3,57.5c0,0,3.4-5.3,6.8-0.8c3,5.3-0.4,8.3-0.4,8.3s-1.3,2.2-3.8,0.3C150.3,62.9,149.3,57.5,149.3,57.5z"/>
<path class="st3" d="M153.5,62.3l0.4-0.4l0.3-0.2l0.4-0.2l0.4,0.1l0.4,0.5l0.2,0.5l0.3-0.1c0,0,0.2-2.7-0.2-3.1
	c-0.3,0.2-0.6,0.4-0.6,0.4l-0.5,0.1l-0.4-0.2C153.9,59.6,154.9,60.3,153.5,62.3z"/>
<path class="st3" d="M152.1,57c0,0,1.1-1.2,2.7,2.7c0.3-0.2,0.7-0.6,0.7-0.6S153.6,55.3,152.1,57z"/>
<path class="st4" d="M155.8,59.3c-0.2,0.2-0.4,0.4-0.6,0.5c-0.2,0.1-0.6,0.2-0.9,0.1c-0.3-0.1-0.5-0.3-0.6-0.5
	c-0.1-0.2-0.2-0.5-0.3-0.7c0.1,0.2,0.3,0.4,0.4,0.6c0.2,0.2,0.4,0.3,0.5,0.3c0.2,0,0.3-0.1,0.5-0.2c0.1-0.1,0.3-0.3,0.4-0.5
	L155.8,59.3z"/>
<path class="st4" d="M151.8,57.6c0-0.4,0.2-0.8,0.6-1.1c0.4-0.2,0.9-0.1,1.3,0.1c0.7,0.4,1.3,1,1.8,1.7c0.4,0.7,0.7,1.5,0.8,2.3
	c0.1,0.8-0.1,1.7-0.5,2.4l-0.6-0.1l-0.1-0.5c0-0.1-0.1-0.3-0.1-0.4c-0.1-0.3-0.3-0.4-0.5-0.4c-0.3,0.1-0.5,0.3-0.8,0.5
	c-0.2,0.2-0.5,0.5-0.7,0.7c0.1-0.3,0.3-0.6,0.5-0.9c0.2-0.3,0.4-0.6,0.8-0.7c0.1,0,0.2,0,0.3-0.1c0.1,0,0.2,0,0.3,0.1
	c0.1,0.1,0.2,0.1,0.3,0.2l0.2,0.2c0.2,0.3,0.3,0.7,0.4,1l-0.6-0.1c0.6-1.3,0.4-2.9-0.3-4.2c-0.3-0.6-0.8-1.2-1.4-1.6
	c-0.3-0.2-0.6-0.3-0.9-0.2C152.2,56.9,151.9,57.2,151.8,57.6z"/>
<path class="st5" d="M148.3,89.5c-0.4-1.5-2.8-2.6-2.8-2.6l-9,3.3c0-0.1-0.1-0.1-0.2-0.1c-0.1,0-0.2,0-0.2,0.1l-9-3.3
	c0,0-2.4,1.1-2.8,2.6c-0.4,1.5,0.1,2.7,0.4,3.1s3,2.8,11.6,2.8c0,0,0,0,0,0c0,0,0,0,0,0c0,0,0,0,0,0c8.6,0,11.2-2.5,11.6-2.8
	C148.3,92.1,148.8,90.9,148.3,89.5z"/>
<path class="st2" d="M125.6,80.3c0.1,2.5,0.2,6,0.4,8.1c0.1,1.2,1,2.2,2.1,2.5c3.4,1,10.1,1.7,16.2,0c1.2-0.4,2.1-1.4,2.1-2.7
	c0.1-3.7,0.3-11.2-1-11.1c-2.1,0.2-11.8,0.1-16.9,0C126.9,77.2,125.5,78.6,125.6,80.3z"/>
<path class="st3" d="M127,80.3c0,0-0.2,8.8,9,8.8s9-9,9-9L127,80.3z"/>
<path class="st2" d="M125.5,80.3c0.1,2.5,0.2,6,0.4,8.1c0.1,1.2,1,2.2,2.1,2.5c3.4,1,10.1,1.7,16.2,0c1.2-0.4,2.1-1.4,2.1-2.7
	c0.1-3.7,0.3-11.2-1-11.1c-2.1,0.2-11.8,0.1-16.9,0C126.8,77.2,125.5,78.6,125.5,80.3z"/>
<path class="st3" d="M125.9,80.3c0,0,3.2,8.8,10.1,8.8c8.2,0,10.1-9,10.1-9L125.9,80.3z"/>
<path class="st2" d="M151.7,61.7c-0.1-0.3-0.2-0.6-0.3-0.9c-1.3-3.9-2.2-9.3-2.4-10.6c-0.2-1.3-2.2-7.8-12.9-8
	c-10.7,0.2-12.7,6.6-12.9,8c-0.2,1.3-1.1,6.7-2.4,10.6c-0.1,0.3-0.2,0.6-0.3,0.9c-1.1,3.7-3.8,5.9-2.2,10.9c0.6,1.8,1.6,3.4,2.8,4.8
	c8.1,9.3,15,9.1,15,9.1s6.9,0.1,15-9.1c1.2-1.4,2.2-3,2.8-4.8C155.5,67.6,152.7,65.5,151.7,61.7z"/>
<path class="st4" d="M131.5,67.6c0-0.4,0.3-0.7,0.7-0.8c0.3-0.2,0.7-0.2,1.1-0.2l0.1,0l0.1,0.1c0.3,0.4,0.8,0.8,1.2,1.1
	c0.5,0.2,1,0.3,1.5,0.2v0.9c-0.6,0-1.3-0.2-1.8-0.6c-0.5-0.4-0.9-0.9-1.2-1.4l0.1,0.1c-0.3,0-0.7,0-1,0
	C131.9,67,131.6,67.3,131.5,67.6z"/>
<path class="st4" d="M140.6,67.6c-0.1-0.3-0.4-0.6-0.7-0.7c-0.3-0.1-0.7-0.1-1,0l0.1-0.1c-0.3,0.5-0.7,1-1.2,1.4
	c-0.5,0.4-1.2,0.5-1.8,0.6v-0.9c0.5,0,1,0,1.5-0.2c0.5-0.2,0.9-0.6,1.2-1.1l0.1-0.1l0.1,0c0.4,0,0.7,0.1,1.1,0.2
	C140.3,66.9,140.6,67.3,140.6,67.6z"/>
<path class="st4" d="M130.5,67.3c-0.3-0.3-0.4-0.8-0.3-1.3c0.1-0.2,0.2-0.4,0.4-0.6c0.1-0.1,0.2-0.1,0.3-0.2c0.1,0,0.2-0.1,0.3-0.1
	c-0.1,0.2-0.3,0.3-0.4,0.5c-0.1,0.2-0.2,0.3-0.3,0.5C130.4,66.5,130.4,66.9,130.5,67.3z"/>
<path class="st4" d="M141.6,67.3c0.1-0.4,0.1-0.8,0-1.2c-0.1-0.2-0.1-0.3-0.3-0.5c-0.1-0.2-0.2-0.3-0.4-0.5c0.1,0,0.2,0.1,0.3,0.1
	c0.1,0.1,0.2,0.1,0.3,0.2c0.2,0.2,0.3,0.4,0.4,0.6C142,66.5,141.9,67,141.6,67.3z"/>
<path class="st4" d="M129.9,70.3c1,0.4,2.1,0.6,3.2,0.8c1.1,0.2,2.2,0.2,3.3,0.1c1.1-0.1,2.2-0.3,3.3-0.6c1.1-0.3,2.1-0.8,3.1-1.3
	l0.1,0.1c-0.8,0.9-1.8,1.6-2.9,2.1c-0.5,0.3-1.1,0.4-1.7,0.6c-0.6,0.1-1.2,0.2-1.8,0.3c-0.6,0-1.2,0-1.8,0c-0.6-0.1-1.2-0.1-1.8-0.3
	C131.9,71.6,130.7,71.2,129.9,70.3L129.9,70.3z"/>
<path class="st4" d="M134.9,73.8c0.4,0,0.8,0.1,1.2,0.1c0.4,0,0.7,0,1.1-0.1c0.4,0,0.7-0.1,1.1-0.2c0.4-0.1,0.7-0.2,1.1-0.3l0,0
	c-0.3,0.2-0.7,0.4-1,0.5c-0.4,0.1-0.7,0.2-1.1,0.3C136.4,74.3,135.6,74.2,134.9,73.8L134.9,73.8z"/>
<path class="st4" d="M136.3,57c0.3,0.8,0.4,1.5,0.5,2.2c0.1,0.4,0.1,0.7,0.2,1c0.1,0.3,0.2,0.7,0.5,1c-0.4-0.1-0.7-0.4-1-0.7
	c-0.2-0.3-0.4-0.7-0.4-1.1C136,58.6,136,57.8,136.3,57z"/>
<path class="st4" d="M131.2,58.2c0,1-0.6,1.8-1.4,1.8s-1.4-0.8-1.4-1.8c0-1.9,0.3-1.8,1.4-1.8C130.8,56.5,131.2,56.1,131.2,58.2z"/>
<path class="st1" d="M127.2,57.3c0,0,3.2-0.3,4.5,0.2c0.1-1.3-0.2-1.1-0.2-1.1S128.5,55.7,127.2,57.3z"/>
<path class="st4" d="M140.8,58.2c0,1,0.6,1.8,1.4,1.8c0.8,0,1.4-0.8,1.4-1.8c0-1.9-0.3-1.8-1.4-1.8
	C141.1,56.5,140.8,56.1,140.8,58.2z"/>
<path class="st1" d="M144.6,57.5c0,0-3.1-0.6-4.5-0.1c0-1.3,0.3-1.1,0.3-1.1S143.5,55.7,144.6,57.5z"/>
<path class="st1" d="M138.3,53c0,0-1.7-1.5,0-2.1s6.9,0.3,7.3,3.5C143.4,52.4,141.9,51.9,138.3,53z"/>
<path class="st1" d="M133.2,53.1c0,0,1.7-1.5,0-2.1s-6.9,0.1-7.4,3.4C128.1,52.4,129.6,51.9,133.2,53.1z"/>
<path class="st6" d="M134.2,65.6c-0.2,0.4,0,0.9,0.3,1.1c0.3,0.2,0.8,0.3,1.6,0.3c1.1,0,1.5-0.4,1.7-0.7c0.1-0.2,0.1-0.4,0.1-0.7
	c-0.1-0.4-0.4-1.3-1.3-2.1c-0.3-0.3-0.8-0.3-1.1,0C134.8,64.4,134.4,65.2,134.2,65.6z"/>
<path class="st3" d="M118.8,62.3l-0.4-0.4l-0.3-0.2l-0.4-0.2l-0.4,0.1L117,62l-0.2,0.5l-0.3-0.1c0,0-0.2-2.7,0.2-3.1
	c0.3,0.2,0.6,0.4,0.6,0.4l0.5,0.1l0.4-0.2C118.3,59.6,117.3,60.3,118.8,62.3z"/>
<path class="st3" d="M120.2,57c0,0-1.1-1.2-2.7,2.7c-0.3-0.2-0.7-0.6-0.7-0.6S118.7,55.3,120.2,57z"/>
<path class="st4" d="M117.1,58.9c0.1,0.2,0.2,0.4,0.4,0.5c0.1,0.1,0.3,0.2,0.5,0.2c0.2,0,0.4-0.1,0.5-0.3c0.2-0.2,0.3-0.4,0.4-0.6
	c-0.1,0.2-0.2,0.5-0.3,0.7c-0.1,0.2-0.3,0.4-0.6,0.5c-0.3,0.1-0.6,0-0.9-0.1c-0.3-0.1-0.4-0.3-0.6-0.5L117.1,58.9z"/>
<path class="st4" d="M120.4,57.6c-0.1-0.4-0.3-0.7-0.7-0.8c-0.3-0.1-0.6,0-0.9,0.2c-0.6,0.4-1.1,1-1.4,1.6c-0.7,1.3-0.9,2.8-0.3,4.2
	l-0.6,0.1c0.1-0.3,0.2-0.7,0.4-1l0.2-0.2c0.1-0.1,0.2-0.1,0.3-0.2c0.1-0.1,0.2-0.1,0.3-0.1c0.1,0,0.2,0,0.3,0.1
	c0.4,0.1,0.6,0.4,0.8,0.7c0.2,0.3,0.4,0.6,0.5,0.9c-0.2-0.3-0.4-0.5-0.7-0.7c-0.2-0.2-0.5-0.4-0.8-0.5c-0.3-0.1-0.4,0.1-0.5,0.4
	c-0.1,0.1-0.1,0.3-0.1,0.4l-0.1,0.5l-0.6,0.1c-0.4-0.7-0.5-1.6-0.5-2.4c0.1-0.8,0.3-1.6,0.8-2.3c0.4-0.7,1-1.3,1.8-1.7
	c0.4-0.2,0.9-0.3,1.3-0.1C120.3,56.8,120.4,57.2,120.4,57.6z"/>
<path class="st1" d="M128.4,42.3c0,0.2-0.1,0.4-0.1,0.6c-0.5,3.5,0.2,5.3,1.4,6c1.7,1,4.4-0.2,5.8-2.1c0.6-0.8,1.2-1.6,1.7-2.4
	c1.1,3.3,2.8,4.1,4.2,4.1c1,0,1.9-0.6,2.3-1.7c0.4-1.1,0.9-2.3,0.2-5.1"/>
<ellipse class="st7" cx="129.5" cy="58" rx="0.4" ry="0.5"/>
<ellipse class="st7" cx="142" cy="58" rx="0.4" ry="0.5"/>
<g>
	<path class="st8" d="M42.5,93.9c0.7,0.3,1.8,0.7,3.1,1.2c3.1,1,5.5,1.3,6.8,1.5c10.8,1.4,13.9,1.2,16.5,3.7
		c1.6,1.4,1.8,2.8,1.9,3.1c0.2,1.5-0.4,2.8-0.8,3.5c-0.4,0.8-1.3,2.2-3.1,3.1c-0.9,0.4-1.7,0.5-2.8,0.6c-1.1,0.1-2.8,0.2-4.9-0.2
		l-4-1.1c-2.6-0.7-5.4-0.1-7.5,1.5l-4.6,3.6c-3.4,2.6-7.9,2.9-11.5,0.6l-1.6-1c-3.1-1.9-6.9-1.9-10,0.1l-4.3,2.8
		c-1.3,0.8-2.9,1.1-4.3,0.7h0c-2.7-0.8-4.9-2.9-5.9-5.7l-0.2-0.7c-0.8-2.3-0.2-4.9,1.5-6.7h0c1.1-1.2,3-2.9,5.7-4.2
		c4.4-2.2,7.5-1.7,13.8-3.3c1.8-0.5,4.5-1.3,7.7-2.7C36.8,94.1,39.7,94,42.5,93.9z"/>
	<path class="st9" d="M35.2,37.9c0,0-2.9-9,7.6-8.7c7.5,0,14.1,8.4,15.5,14.5c1,4.4,0.8,14.4-0.9,20.3c-2.9,10.1,3.3,14,3.3,14
		s-6.2,11.7-23.5,7.9C36.9,67.5,35.2,37.9,35.2,37.9z"/>
	<path class="st10" d="M39.6,37.9c0,0,2.9-9-7.6-8.7c-7.5,0-14.1,8.4-15.5,14.5c-1,4.4-0.8,14.4,0.9,20.3c2.9,10.1-3.3,14-3.3,14
		s6.2,11.7,23.5,7.9C37.8,67.5,39.6,37.9,39.6,37.9z"/>
	<path class="st11" d="M23.1,55.5c0,0-2.7-3.5-4.2-3.5c-1.5,0-1.9,3.9-1.7,5.6c0.3,1.7,1.2,6.1,1.3,8.3c0.1,2.2,0.7,2.6,1.6,2.9
		c0.8,0.3,2.2,0,2.5-3.6C22.2,61.1,22,59.7,23.1,55.5z"/>
	<path class="st12" d="M19.5,54.2c0,0-0.5,2.1,0.7,3.9c-0.4,0.7-0.4,0.7-0.4,0.7h-0.5C19.2,58.9,18.3,54.7,19.5,54.2z"/>
	<path class="st11" d="M51.5,55.5c0,0,2.7-3.5,4.2-3.5s1.9,3.9,1.7,5.6c-0.3,1.7-1.2,6.1-1.3,8.3c-0.1,2.2-0.7,2.6-1.6,2.9
		c-0.8,0.3-2.2,0-2.5-3.6C52.5,61.1,52.7,59.7,51.5,55.5z"/>
	<path class="st12" d="M55.3,54.2c0,0,0.5,2.1-0.7,3.9c0.4,0.7,0.4,0.7,0.4,0.7h0.5C55.6,58.9,56.5,54.7,55.3,54.2z"/>
	<path class="st13" d="M31.8,93c0,0-2.9,0-4.2,3c-1.3,3,7.4,6.1,10,6.1c2.6,0,10.2-3.4,10.2-6s-3.9-3-3.9-3H31.8z"/>
	<path class="st14" d="M21,55.5c-0.4-0.4-0.8-0.9-1.3-1.1c-0.1,0-0.2-0.1-0.3,0c-0.1,0-0.1,0.1-0.2,0.2c-0.1,0.2-0.1,0.5-0.2,0.7
		c0,0.5,0,1.1,0.1,1.6c0.1,0.6,0.2,1,0.4,1.6c0.3,1.1,0.5,2.3,0.6,3.4c0.1,1.2,0,2.3-0.2,3.5l-0.4-0.1c0.1-0.5,0.3-0.9,0.6-1.3
		c0.2-0.2,0.4-0.4,0.7-0.4c0.3,0,0.5,0.2,0.6,0.3c-0.2-0.1-0.4-0.2-0.6-0.2c-0.2,0-0.4,0.2-0.5,0.4c-0.2,0.4-0.3,0.8-0.4,1.3
		l-0.4-0.1c0.1-1.1,0-2.2-0.1-3.4c-0.1-1.1-0.4-2.2-0.6-3.3c-0.1-0.5-0.3-1.1-0.4-1.7c0-0.6,0-1.2,0.1-1.8c0.1-0.3,0.1-0.6,0.3-0.9
		c0.1-0.1,0.2-0.3,0.5-0.3c0.2,0,0.4,0.1,0.5,0.1C20.4,54.5,20.8,55,21,55.5z"/>
	<path class="st14" d="M19.1,58.8c0.6-0.2,1.1-0.8,1.3-1.6c0.2,0.8,0,1.7-0.6,2.5L19.1,58.8z"/>
	<path class="st11" d="M42.2,79c-2.6-0.2-4.1,0-4.5,0.1c-0.1,0-0.2,0-0.3,0c-0.5-0.1-2-0.2-4.5-0.1c-0.6,0-1.1,0.5-1.1,1.1
		c-0.2,10.1-0.6,12-2.1,14.9c-0.2,0.4-0.2,0.8,0.1,1.2c2.3,3.5,7.8,3.5,7.8,3.5s5.5-0.1,7.8-3.5c0.2-0.4,0.3-0.8,0.1-1.2
		c-1.5-2.9-1.8-4.8-2.1-14.9C43.3,79.5,42.8,79,42.2,79z"/>
	<path class="st12" d="M30.1,82.3c0,0,2.3,9.3,7.3,9.3c5.9,0,7.3-9.7,7.3-9.7L30.1,82.3z"/>
	<path class="st11" d="M53.4,59.9c-0.6-3.4-2.5-8.5-3.2-13.7c-0.1-0.6-0.4-1.2-0.7-1.7c-3.7-6.9-11.9-6.8-11.9-6.8
		s-8.2-0.2-11.9,6.8c-0.3,0.5-0.6,1.1-0.7,1.7c-1,6.6-2.6,10.3-3.2,13.7c-0.4,2.2-0.3,4.4,0.4,6.5c1.2,4.3,3.6,11.9,6,15.6
		c3.4,5.4,7,6.8,9.5,6.8c2.5,0,6.1-1.4,9.5-6.8c2.4-3.8,4.8-11.3,6-15.6C53.6,64.3,53.7,62,53.4,59.9z"/>
	<path class="st14" d="M37.4,72.3c0.4,0.1,0.7,0.1,1,0.2c0.3,0,0.7,0,1-0.1c0.7-0.1,1.2-0.4,1.9-0.7l0,0c-0.3,0.2-0.6,0.5-0.9,0.7
		c-0.3,0.2-0.7,0.3-1,0.4C38.8,72.8,38,72.7,37.4,72.3L37.4,72.3z"/>
	<path class="st4" d="M33.8,55.3c0,1-0.6,1.8-1.4,1.8c-0.8,0-1.4-0.8-1.4-1.8c0-2,0.3-1.9,1.4-1.8C33.4,53.6,33.8,53.2,33.8,55.3z"
		/>
	<path class="st4" d="M45.7,55.3c0,1-0.6,1.8-1.4,1.8s-1.4-0.8-1.4-1.8c0-2,0.3-1.9,1.4-1.8C45.4,53.6,45.7,53.2,45.7,55.3z"/>
	<ellipse class="st7" cx="32.2" cy="54.9" rx="0.4" ry="0.5"/>
	<ellipse class="st7" cx="44.1" cy="54.9" rx="0.4" ry="0.5"/>
	<g>
		<path class="st7" d="M43.2,68.3c0,0-4.8-0.4-9.4,0c0.3,2.3,6,4.1,8.6,1.3c0.2-0.2,0.3-0.4,0.5-0.6C43,68.8,43.1,68.5,43.2,68.3z"
			/>
		<path class="st15" d="M43.2,68.3c-0.7,0.1-1.6,0.1-2.3,0.1c-0.8,0-1.6,0-2.3,0c-0.8,0-1.6-0.1-2.4-0.1c-0.8,0-1.6,0-2.3,0.1
			l0.1-0.1c0.1,0.4,0.4,0.8,0.7,1.1c0.4,0.3,0.7,0.5,1.2,0.7c0.8,0.4,1.8,0.5,2.7,0.6c0.9,0,1.8-0.1,2.7-0.5
			C42,69.7,42.7,69.1,43.2,68.3z M43.2,68.3c-0.3,1-0.9,1.8-1.8,2.4c-0.9,0.5-1.9,0.8-2.9,0.7c-1,0-2-0.3-2.9-0.8
			c-0.5-0.2-0.9-0.5-1.2-0.9c-0.3-0.4-0.6-0.8-0.7-1.4l0-0.1l0.1,0c0.8,0,1.6-0.1,2.4-0.2c0.8-0.1,1.6-0.2,2.4-0.2
			c0.8,0,1.6,0,2.4,0.1C41.7,68,42.4,68.1,43.2,68.3z"/>
	</g>
	<path class="st14" d="M38.5,58.4c0.2,0.6,0.3,1.1,0.4,1.7l0.4,1.6c0.1,0.5,0.3,1.1,0.5,1.6c0.2,0.5,0.4,1,0.7,1.4l0.3,0.4l-0.4,0.2
		c-1,0.4-2,1-2.9,1.8c0.3-0.5,0.7-1,1.1-1.4c0.4-0.4,1-0.8,1.5-1L40,65.2c-0.5-0.5-0.7-1.1-0.9-1.6c-0.2-0.6-0.3-1.1-0.4-1.7
		c-0.1-0.6-0.2-1.1-0.2-1.7C38.5,59.5,38.5,58.9,38.5,58.4z"/>
	<path class="st16" d="M27.5,49.2c0,0,0.1-1.6,2.9-2.6c2.8-1,4.9,0.2,5.7-0.6c0.2,0.8,0,1.9,0,1.9S28.8,46.8,27.5,49.2z"/>
	<path class="st16" d="M49,49.2c0,0-0.1-1.6-2.9-2.6s-4.9,0.2-5.7-0.6c-0.2,0.8,0,1.9,0,1.9S47.8,46.8,49,49.2z"/>
	<path class="st16" d="M41.7,54.7c0,0,2.9-1.7,6.7,0.2c-0.9-2.9-5.4-2.1-5.4-2.1s-0.8-0.3-0.9-1C41.7,53,41.6,53.6,41.7,54.7z"/>
	<path class="st16" d="M35.1,54.6c0,0-2.9-1.7-6.7,0.2c0.9-2.9,5.4-2.1,5.4-2.1s0.8-0.3,0.9-1C35,53,35.1,53.6,35.1,54.6z"/>
	<path class="st14" d="M53.6,55.5c0.3-0.5,0.6-1,1.1-1.3c0.1-0.1,0.3-0.1,0.5-0.1c0.2,0,0.4,0.2,0.5,0.3c0.2,0.3,0.2,0.6,0.3,0.9
		c0.1,0.6,0.1,1.2,0.1,1.8c0,0.6-0.2,1.2-0.4,1.7c-0.3,1.1-0.5,2.2-0.6,3.3C55,63.2,55,64.3,55,65.4l-0.4,0.1
		c-0.1-0.4-0.2-0.9-0.4-1.3c-0.1-0.2-0.3-0.4-0.5-0.4c-0.2,0-0.4,0.1-0.6,0.2c0.2-0.2,0.4-0.3,0.6-0.3c0.3,0,0.5,0.2,0.7,0.4
		c0.3,0.4,0.5,0.9,0.6,1.3l-0.4,0.1c-0.2-1.1-0.2-2.3-0.2-3.5c0.1-1.2,0.3-2.3,0.6-3.4c0.2-0.6,0.3-1.1,0.4-1.6
		c0.1-0.5,0.1-1.1,0.1-1.6c0-0.3-0.1-0.5-0.2-0.7c-0.1-0.1-0.1-0.2-0.2-0.2c-0.1,0-0.2,0-0.3,0C54.4,54.7,54,55.1,53.6,55.5z"/>
	<path class="st14" d="M54.3,57.2c0.2,0.8,0.7,1.4,1.3,1.6l-0.7,0.8C54.3,58.9,54.1,58,54.3,57.2z"/>
</g>
<path class="st17" d="M90.3,93.9h-7.5c-3,0-5.5-2.5-5.5-5.5V66.7c0-3,2.5-5.5,5.5-5.5h7.5c3,0,5.5,2.5,5.5,5.5v21.7
	C95.8,91.4,93.3,93.9,90.3,93.9z"/>
<path class="st18" d="M91.1,71.4c0.5,0,0.8-0.5,0.5-0.8l-2.1-2.7l-2.3-2.9c-0.2-0.3-0.8-0.3-1,0l-2.3,2.9l-2.1,2.7
	c-0.3,0.4,0,0.8,0.5,0.8h0.6c0.3,0,0.6,0.2,0.6,0.5v3.3c0,0.3,0.3,0.5,0.6,0.5h5.2c0.3,0,0.6-0.2,0.6-0.5v-3.3
	c0-0.3,0.3-0.5,0.6-0.5H91.1z"/>
<path class="st19" d="M91.1,83.4c0.5,0,0.8,0.5,0.5,0.8l-2.1,2.7l-2.3,2.9c-0.2,0.3-0.8,0.3-1,0l-2.3-2.9l-2.1-2.7
	c-0.3-0.4,0-0.8,0.5-0.8h0.6c0.3,0,0.6-0.2,0.6-0.5v-3.3c0-0.3,0.3-0.5,0.6-0.5h5.2c0.3,0,0.6,0.2,0.6,0.5v3.3
	c0,0.3,0.3,0.5,0.6,0.5H91.1z"/>
<path class="st20" d="M157.3,135.2h-41.8c-1.2,0-2.2-1-2.2-2.2v-8.4c0-1.2,1-2.2,2.2-2.2h41.8c1.2,0,2.2,1,2.2,2.2v8.4
	C159.6,134.2,158.6,135.2,157.3,135.2z"/>
<path class="st21" d="M58.4,135.2H17.7c-1.2,0-2.2-1-2.2-2.2v-8.4c0-1.2,1-2.2,2.2-2.2h40.7c1.2,0,2.2,1,2.2,2.2v8.4
	C60.6,134.2,59.6,135.2,58.4,135.2z"/>
<path class="st21" d="M72.5,18.6H2.3c-1.2,0-2.2-1-2.2-2.2l0-14c0-1.2,1-2.2,2.2-2.2l70.2,0c1.2,0,2.2,1,2.2,2.2v14
	C74.7,17.5,73.7,18.6,72.5,18.6z"/>
<path class="st20" d="M169.7,18.6h-65.9c-1.2,0-2.2-1-2.2-2.2v-14c0-1.2,1-2.2,2.2-2.2l65.9,0c1.2,0,2.2,1,2.2,2.2v14
	C171.9,17.5,170.9,18.6,169.7,18.6z"/>
<g>
	<path class="st7" d="M23.4,130.3h-1.8l-0.3,1h-1.1l1.9-5h0.9l1.9,5h-1.1L23.4,130.3z M21.8,129.5h1.2l-0.6-1.9L21.8,129.5z"/>
	<path class="st7" d="M26.7,130.6c0.2,0,0.3,0,0.4-0.2c0.1-0.1,0.2-0.2,0.2-0.4h0.9c0,0.3-0.1,0.5-0.2,0.7c-0.1,0.2-0.3,0.4-0.6,0.5
		s-0.5,0.2-0.8,0.2c-0.5,0-0.9-0.2-1.3-0.5s-0.5-0.8-0.5-1.4v-0.1c0-0.6,0.2-1,0.5-1.4c0.3-0.3,0.7-0.5,1.2-0.5
		c0.5,0,0.8,0.1,1.1,0.4c0.3,0.3,0.4,0.6,0.4,1.1h-0.9c0-0.2-0.1-0.3-0.2-0.5c-0.1-0.1-0.3-0.2-0.5-0.2c-0.2,0-0.4,0.1-0.5,0.3
		s-0.2,0.4-0.2,0.8v0.1c0,0.4,0.1,0.7,0.2,0.8C26.3,130.5,26.5,130.6,26.7,130.6z"/>
	<path class="st7" d="M30.6,131.4c-0.5,0-1-0.2-1.3-0.5s-0.5-0.8-0.5-1.3v-0.1c0-0.4,0.1-0.7,0.2-1c0.1-0.3,0.3-0.5,0.6-0.7
		c0.3-0.2,0.6-0.2,0.9-0.2c0.5,0,0.9,0.2,1.2,0.5c0.3,0.3,0.4,0.8,0.4,1.4v0.4h-2.4c0,0.2,0.1,0.4,0.3,0.6c0.2,0.1,0.4,0.2,0.6,0.2
		c0.4,0,0.7-0.1,0.9-0.4l0.5,0.5c-0.1,0.2-0.3,0.4-0.6,0.5C31.1,131.3,30.9,131.4,30.6,131.4z M30.4,128.4c-0.2,0-0.4,0.1-0.5,0.2
		s-0.2,0.3-0.2,0.6h1.4v-0.1c0-0.2-0.1-0.4-0.2-0.5S30.7,128.4,30.4,128.4z"/>
	<path class="st7" d="M34.7,128.6c-0.1,0-0.3,0-0.4,0c-0.4,0-0.6,0.1-0.7,0.4v2.4h-1v-3.7h0.9l0,0.4c0.2-0.3,0.5-0.5,0.8-0.5
		c0.1,0,0.2,0,0.3,0L34.7,128.6z"/>
	<path class="st7" d="M36.5,126.7v0.9h0.6v0.7h-0.6v1.8c0,0.1,0,0.2,0.1,0.3s0.2,0.1,0.3,0.1c0.1,0,0.2,0,0.3,0v0.7
		c-0.2,0.1-0.4,0.1-0.6,0.1c-0.7,0-1-0.3-1.1-1v-2H35v-0.7h0.5v-0.9H36.5z"/>
	<path class="st7" d="M37.5,129.5c0-0.4,0.1-0.7,0.2-1s0.3-0.5,0.6-0.7c0.3-0.2,0.6-0.2,0.9-0.2c0.5,0,0.9,0.2,1.2,0.5
		c0.3,0.3,0.5,0.7,0.5,1.2l0,0.3c0,0.6-0.2,1-0.5,1.4s-0.7,0.5-1.3,0.5s-1-0.2-1.3-0.5C37.6,130.6,37.5,130.1,37.5,129.5L37.5,129.5
		z M38.5,129.5c0,0.4,0.1,0.6,0.2,0.8c0.1,0.2,0.3,0.3,0.6,0.3c0.2,0,0.4-0.1,0.6-0.3c0.1-0.2,0.2-0.5,0.2-0.9
		c0-0.3-0.1-0.6-0.2-0.8c-0.1-0.2-0.3-0.3-0.6-0.3c-0.2,0-0.4,0.1-0.6,0.3C38.5,128.8,38.5,129.1,38.5,129.5z"/>
	<path class="st7" d="M43.6,130.3c0-0.1-0.1-0.2-0.2-0.3c-0.1-0.1-0.3-0.1-0.6-0.2c-0.9-0.2-1.3-0.6-1.3-1.1c0-0.3,0.1-0.6,0.4-0.8
		c0.3-0.2,0.6-0.3,1.1-0.3c0.5,0,0.8,0.1,1.1,0.3c0.3,0.2,0.4,0.5,0.4,0.9h-1c0-0.1,0-0.3-0.1-0.3c-0.1-0.1-0.2-0.1-0.4-0.1
		c-0.2,0-0.3,0-0.4,0.1c-0.1,0.1-0.1,0.2-0.1,0.3c0,0.1,0.1,0.2,0.2,0.3s0.3,0.1,0.5,0.2s0.5,0.1,0.6,0.2c0.5,0.2,0.8,0.5,0.8,1
		c0,0.3-0.1,0.6-0.4,0.8c-0.3,0.2-0.7,0.3-1.1,0.3c-0.3,0-0.6-0.1-0.8-0.2s-0.4-0.3-0.6-0.5s-0.2-0.4-0.2-0.6h0.9
		c0,0.2,0.1,0.3,0.2,0.4c0.1,0.1,0.3,0.1,0.5,0.1c0.2,0,0.3,0,0.4-0.1C43.5,130.5,43.6,130.4,43.6,130.3z"/>
	<path class="st7" d="M45.2,128.1c0-0.2,0.1-0.3,0.2-0.4c0.1-0.1,0.2-0.1,0.4-0.1c0.2,0,0.3,0,0.4,0.1c0.1,0.1,0.2,0.2,0.2,0.4
		c0,0.2-0.1,0.3-0.2,0.4s-0.2,0.1-0.4,0.1c-0.2,0-0.3,0-0.4-0.1C45.3,128.3,45.2,128.2,45.2,128.1z M45.2,130.9
		c0-0.2,0.1-0.3,0.2-0.4c0.1-0.1,0.2-0.1,0.4-0.1c0.2,0,0.3,0,0.4,0.1c0.1,0.1,0.2,0.2,0.2,0.4c0,0.2-0.1,0.3-0.2,0.4
		s-0.2,0.1-0.4,0.1c-0.2,0-0.3,0-0.4-0.1C45.3,131.1,45.2,131,45.2,130.9z"/>
	<path class="st7" d="M51.1,131.3h-0.8v-4l-1.2,0.4v-0.7l1.9-0.7h0.1V131.3z"/>
	<path class="st7" d="M55.1,131.3h-0.8v-4l-1.2,0.4v-0.7l1.9-0.7h0.1V131.3z"/>
</g>
<g>
	<path class="st7" d="M11.5,11.6h-0.9V9.4H8.4v2.2H7.5v-5h0.9v2.1h2.2V6.6h0.9V11.6z"/>
	<path class="st7" d="M14.1,11.6c-0.5,0-1-0.2-1.3-0.5c-0.3-0.3-0.5-0.8-0.5-1.3V9.7c0-0.4,0.1-0.7,0.2-1c0.1-0.3,0.3-0.5,0.6-0.7
		c0.3-0.2,0.5-0.2,0.9-0.2c0.5,0,0.9,0.2,1.2,0.5c0.3,0.3,0.4,0.8,0.4,1.4V10h-2.4c0,0.3,0.1,0.5,0.3,0.7s0.4,0.3,0.7,0.3
		c0.4,0,0.7-0.2,0.9-0.5l0.4,0.4c-0.1,0.2-0.3,0.4-0.6,0.5S14.4,11.6,14.1,11.6z M14,8.5c-0.2,0-0.4,0.1-0.6,0.2
		c-0.1,0.2-0.2,0.4-0.3,0.7h1.6V9.3c0-0.3-0.1-0.5-0.2-0.6S14.2,8.5,14,8.5z"/>
	<path class="st7" d="M17.4,10.4l0.8-2.5h0.9l-1.5,4.3c-0.2,0.6-0.6,0.9-1.1,0.9c-0.1,0-0.3,0-0.4-0.1v-0.6l0.2,0
		c0.2,0,0.4,0,0.5-0.1c0.1-0.1,0.2-0.2,0.3-0.4l0.1-0.3l-1.3-3.7h0.9L17.4,10.4z"/>
	<path class="st7" d="M19.6,11.2c0-0.1,0-0.2,0.1-0.3s0.2-0.1,0.3-0.1c0.1,0,0.3,0,0.3,0.1s0.1,0.2,0.1,0.3c0,0.1,0,0.2-0.1,0.3
		s-0.2,0.1-0.3,0.1s-0.3,0-0.3-0.1S19.6,11.3,19.6,11.2z M20.4,10.1h-0.7l-0.1-3.5h0.9L20.4,10.1z"/>
	<path class="st7" d="M27.2,10.3l0.8-3.7h0.9l-1.1,5h-0.8l-0.9-3.6l-1,3.6h-0.8l-1.1-5h0.9l0.8,3.7l0.9-3.7h0.7L27.2,10.3z"/>
	<path class="st7" d="M30.2,8.3c0.3-0.3,0.6-0.5,1-0.5c0.8,0,1.2,0.5,1.2,1.4v2.4h-0.8V9.2c0-0.3-0.1-0.4-0.2-0.5
		c-0.1-0.1-0.3-0.2-0.5-0.2c-0.3,0-0.6,0.1-0.7,0.4v2.6h-0.8V6.3h0.8V8.3z"/>
	<path class="st7" d="M35.4,11.6c0-0.1-0.1-0.2-0.1-0.3c-0.3,0.3-0.6,0.4-1,0.4c-0.4,0-0.7-0.1-0.9-0.3c-0.2-0.2-0.4-0.5-0.4-0.8
		c0-0.4,0.1-0.7,0.4-0.9s0.7-0.3,1.3-0.3h0.5V9.1c0-0.2-0.1-0.3-0.2-0.5s-0.3-0.2-0.5-0.2c-0.2,0-0.3,0-0.5,0.1
		C34.1,8.7,34,8.8,34,8.9h-0.8c0-0.2,0.1-0.4,0.2-0.6s0.3-0.3,0.5-0.4c0.2-0.1,0.5-0.2,0.8-0.2c0.4,0,0.8,0.1,1,0.3
		c0.3,0.2,0.4,0.5,0.4,0.9v1.7c0,0.3,0,0.6,0.1,0.8v0.1H35.4z M34.5,11c0.2,0,0.3,0,0.5-0.1s0.3-0.2,0.3-0.3V9.8h-0.4
		c-0.3,0-0.5,0.1-0.7,0.2c-0.2,0.1-0.2,0.3-0.2,0.5c0,0.2,0.1,0.3,0.2,0.4C34.2,10.9,34.3,11,34.5,11z"/>
	<path class="st7" d="M38.1,7v0.9h0.7v0.6h-0.7v2.1c0,0.1,0,0.2,0.1,0.3s0.2,0.1,0.3,0.1c0.1,0,0.2,0,0.3,0v0.6
		c-0.2,0.1-0.4,0.1-0.5,0.1c-0.6,0-1-0.4-1-1.1V8.5h-0.6V7.9h0.6V7H38.1z"/>
	<path class="st7" d="M39.6,8.1l-0.4-0.3c0.2-0.3,0.3-0.6,0.3-0.9V6.3h0.7v0.5c0,0.2-0.1,0.5-0.2,0.7C39.9,7.7,39.8,7.9,39.6,8.1z"
		/>
	<path class="st7" d="M42.2,10.6c0-0.1-0.1-0.3-0.2-0.3c-0.1-0.1-0.3-0.1-0.6-0.2c-0.3-0.1-0.5-0.1-0.7-0.2
		c-0.4-0.2-0.6-0.5-0.6-0.9c0-0.3,0.1-0.6,0.4-0.8c0.3-0.2,0.6-0.3,1-0.3c0.4,0,0.8,0.1,1.1,0.3C42.9,8.4,43,8.6,43,9h-0.8
		c0-0.2-0.1-0.3-0.2-0.4c-0.1-0.1-0.3-0.2-0.5-0.2c-0.2,0-0.3,0-0.4,0.1c-0.1,0.1-0.2,0.2-0.2,0.3c0,0.1,0.1,0.2,0.2,0.3
		c0.1,0.1,0.3,0.1,0.7,0.2c0.3,0.1,0.6,0.2,0.8,0.3c0.2,0.1,0.3,0.2,0.4,0.4c0.1,0.1,0.1,0.3,0.1,0.5c0,0.3-0.1,0.6-0.4,0.8
		c-0.3,0.2-0.6,0.3-1.1,0.3c-0.3,0-0.6-0.1-0.8-0.2c-0.2-0.1-0.4-0.3-0.6-0.5C40,10.8,40,10.6,40,10.4h0.8c0,0.2,0.1,0.3,0.2,0.5
		c0.1,0.1,0.3,0.2,0.5,0.2c0.2,0,0.4,0,0.5-0.1C42.2,10.8,42.2,10.7,42.2,10.6z"/>
	<path class="st7" d="M47.7,11.2c-0.2,0.3-0.6,0.4-1,0.4c-0.4,0-0.7-0.1-0.9-0.4c-0.2-0.2-0.3-0.6-0.3-1V7.9h0.8v2.4
		c0,0.5,0.2,0.7,0.6,0.7c0.4,0,0.7-0.1,0.8-0.4V7.9h0.8v3.7h-0.8L47.7,11.2z"/>
	<path class="st7" d="M52.6,9.8c0,0.6-0.1,1-0.4,1.4s-0.6,0.5-1,0.5c-0.4,0-0.7-0.1-1-0.4V13h-0.8V7.9h0.8l0,0.4
		c0.2-0.3,0.6-0.4,1-0.4c0.5,0,0.8,0.2,1.1,0.5C52.5,8.7,52.6,9.1,52.6,9.8L52.6,9.8z M51.8,9.7c0-0.4-0.1-0.7-0.2-0.9
		c-0.1-0.2-0.4-0.3-0.6-0.3c-0.3,0-0.6,0.1-0.7,0.4v1.6c0.2,0.3,0.4,0.4,0.7,0.4c0.3,0,0.5-0.1,0.6-0.3S51.8,10.1,51.8,9.7z"/>
	<path class="st7" d="M54.1,10.1c0-0.3,0-0.5,0.1-0.7c0.1-0.2,0.2-0.4,0.4-0.6c0.2-0.2,0.4-0.4,0.4-0.5c0.1-0.1,0.1-0.3,0.1-0.5
		c0-0.2-0.1-0.4-0.2-0.5c-0.1-0.1-0.3-0.2-0.5-0.2c-0.2,0-0.4,0.1-0.5,0.2c-0.1,0.1-0.2,0.3-0.2,0.4h-0.8c0-0.4,0.1-0.7,0.4-1
		c0.3-0.2,0.6-0.4,1.1-0.4c0.5,0,0.8,0.1,1.1,0.3c0.3,0.2,0.4,0.6,0.4,1c0,0.4-0.2,0.7-0.5,1.1l-0.4,0.4c-0.2,0.2-0.2,0.4-0.2,0.8
		H54.1z M54,11.2c0-0.1,0-0.2,0.1-0.3s0.2-0.1,0.3-0.1c0.1,0,0.3,0,0.3,0.1c0.1,0.1,0.1,0.2,0.1,0.3c0,0.1,0,0.2-0.1,0.3
		s-0.2,0.1-0.3,0.1s-0.3,0-0.3-0.1S54,11.3,54,11.2z"/>
</g>
<g>
	<path class="st22" d="M113,11h-0.9l-2.2-3.5V11H109V6h0.9l2.2,3.5V6h0.9V11z"/>
	<path class="st22" d="M113.7,9.1c0-0.4,0.1-0.7,0.2-1c0.1-0.3,0.3-0.5,0.6-0.7s0.6-0.2,0.9-0.2c0.5,0,0.9,0.2,1.2,0.5
		c0.3,0.3,0.5,0.7,0.5,1.3l0,0.2c0,0.4-0.1,0.7-0.2,1c-0.1,0.3-0.3,0.5-0.6,0.7c-0.3,0.2-0.6,0.2-0.9,0.2c-0.5,0-0.9-0.2-1.3-0.5
		S113.7,9.7,113.7,9.1L113.7,9.1z M114.6,9.1c0,0.4,0.1,0.7,0.2,0.9c0.2,0.2,0.4,0.3,0.7,0.3c0.3,0,0.5-0.1,0.7-0.3s0.2-0.5,0.2-1
		c0-0.4-0.1-0.7-0.2-0.9c-0.2-0.2-0.4-0.3-0.7-0.3c-0.3,0-0.5,0.1-0.6,0.3C114.7,8.4,114.6,8.7,114.6,9.1z"/>
	<path class="st22" d="M118.9,6.4v0.9h0.7v0.6h-0.7v2.1c0,0.1,0,0.2,0.1,0.3s0.2,0.1,0.3,0.1c0.1,0,0.2,0,0.3,0v0.6
		c-0.2,0.1-0.4,0.1-0.5,0.1c-0.6,0-1-0.4-1-1.1V7.9h-0.6V7.3h0.6V6.4H118.9z"/>
	<path class="st22" d="M121,7.7c0.3-0.3,0.6-0.5,1-0.5c0.8,0,1.2,0.5,1.2,1.4V11h-0.8V8.6c0-0.3-0.1-0.4-0.2-0.5
		c-0.1-0.1-0.3-0.2-0.5-0.2c-0.3,0-0.6,0.1-0.7,0.4V11h-0.8V5.7h0.8V7.7z"/>
	<path class="st22" d="M124.1,6.3c0-0.1,0-0.2,0.1-0.3s0.2-0.1,0.3-0.1s0.3,0,0.3,0.1s0.1,0.2,0.1,0.3c0,0.1,0,0.2-0.1,0.3
		s-0.2,0.1-0.3,0.1s-0.3,0-0.3-0.1S124.1,6.4,124.1,6.3z M125,11h-0.8V7.3h0.8V11z"/>
	<path class="st22" d="M126.7,7.3l0,0.4c0.3-0.3,0.6-0.5,1.1-0.5c0.8,0,1.2,0.4,1.2,1.3V11h-0.8V8.6c0-0.2-0.1-0.4-0.2-0.5
		c-0.1-0.1-0.3-0.2-0.5-0.2c-0.3,0-0.6,0.2-0.7,0.5V11h-0.8V7.3H126.7z"/>
	<path class="st22" d="M129.6,9.1c0-0.6,0.1-1,0.4-1.4c0.3-0.3,0.6-0.5,1.1-0.5c0.4,0,0.8,0.1,1,0.4l0-0.4h0.7v3.6
		c0,0.5-0.2,0.9-0.5,1.1c-0.3,0.3-0.7,0.4-1.2,0.4c-0.3,0-0.5-0.1-0.8-0.2c-0.3-0.1-0.5-0.3-0.6-0.4l0.4-0.5
		c0.3,0.3,0.6,0.5,0.9,0.5c0.3,0,0.5-0.1,0.7-0.2c0.2-0.1,0.2-0.4,0.2-0.7v-0.3c-0.2,0.3-0.6,0.4-1,0.4c-0.4,0-0.8-0.2-1.1-0.5
		C129.8,10.2,129.6,9.7,129.6,9.1z M130.5,9.1c0,0.4,0.1,0.7,0.2,0.9s0.4,0.3,0.6,0.3c0.3,0,0.6-0.1,0.7-0.4V8.3
		c-0.2-0.3-0.4-0.4-0.7-0.4c-0.3,0-0.5,0.1-0.6,0.3C130.5,8.4,130.5,8.7,130.5,9.1z"/>
	<path class="st22" d="M136.3,7.3l0,0.4c0.3-0.3,0.6-0.5,1.1-0.5c0.5,0,0.8,0.2,1,0.6c0.3-0.4,0.6-0.6,1.1-0.6
		c0.4,0,0.7,0.1,0.9,0.3c0.2,0.2,0.3,0.6,0.3,1V11h-0.8V8.5c0-0.2-0.1-0.4-0.2-0.5c-0.1-0.1-0.3-0.2-0.5-0.2c-0.2,0-0.3,0-0.5,0.2
		c-0.1,0.1-0.2,0.2-0.3,0.4l0,2.5h-0.8V8.5c0-0.4-0.2-0.7-0.7-0.7c-0.3,0-0.6,0.1-0.7,0.4V11h-0.8V7.3H136.3z"/>
	<path class="st22" d="M143.8,10.6c-0.2,0.3-0.6,0.4-1,0.4c-0.4,0-0.7-0.1-0.9-0.4c-0.2-0.2-0.3-0.6-0.3-1V7.3h0.8v2.4
		c0,0.5,0.2,0.7,0.6,0.7c0.4,0,0.7-0.1,0.8-0.4V7.3h0.8V11h-0.8L143.8,10.6z"/>
	<path class="st22" d="M147,10.4c0.2,0,0.4-0.1,0.5-0.2c0.1-0.1,0.2-0.3,0.2-0.4h0.8c0,0.2-0.1,0.4-0.2,0.6s-0.3,0.4-0.5,0.5
		c-0.2,0.1-0.5,0.2-0.7,0.2c-0.5,0-0.9-0.2-1.2-0.5c-0.3-0.3-0.5-0.8-0.5-1.4V9c0-0.6,0.2-1,0.5-1.4c0.3-0.3,0.7-0.5,1.2-0.5
		c0.4,0,0.8,0.1,1.1,0.4c0.3,0.3,0.4,0.6,0.4,1h-0.8c0-0.2-0.1-0.4-0.2-0.5c-0.1-0.1-0.3-0.2-0.5-0.2c-0.3,0-0.5,0.1-0.6,0.3
		c-0.1,0.2-0.2,0.5-0.2,0.9v0.1c0,0.4,0.1,0.7,0.2,0.9S146.7,10.4,147,10.4z"/>
	<path class="st22" d="M150,7.7c0.3-0.3,0.6-0.5,1-0.5c0.8,0,1.2,0.5,1.2,1.4V11h-0.8V8.6c0-0.3-0.1-0.4-0.2-0.5
		c-0.1-0.1-0.3-0.2-0.5-0.2c-0.3,0-0.6,0.1-0.7,0.4V11h-0.8V5.7h0.8V7.7z"/>
</g>
<g>
	<path class="st7" d="M121.8,130.3H120l-0.3,1h-1.1l1.9-5h0.9l1.9,5h-1.1L121.8,130.3z M120.2,129.5h1.2l-0.6-1.9L120.2,129.5z"/>
	<path class="st7" d="M125.1,130.6c0.2,0,0.3,0,0.4-0.2c0.1-0.1,0.2-0.2,0.2-0.4h0.9c0,0.3-0.1,0.5-0.2,0.7
		c-0.1,0.2-0.3,0.4-0.6,0.5s-0.5,0.2-0.8,0.2c-0.5,0-0.9-0.2-1.3-0.5s-0.5-0.8-0.5-1.4v-0.1c0-0.6,0.2-1,0.5-1.4
		c0.3-0.3,0.7-0.5,1.2-0.5c0.5,0,0.8,0.1,1.1,0.4c0.3,0.3,0.4,0.6,0.4,1.1h-0.9c0-0.2-0.1-0.3-0.2-0.5c-0.1-0.1-0.3-0.2-0.5-0.2
		c-0.2,0-0.4,0.1-0.5,0.3s-0.2,0.4-0.2,0.8v0.1c0,0.4,0.1,0.7,0.2,0.8C124.7,130.5,124.9,130.6,125.1,130.6z"/>
	<path class="st7" d="M128.9,131.4c-0.5,0-1-0.2-1.3-0.5s-0.5-0.8-0.5-1.3v-0.1c0-0.4,0.1-0.7,0.2-1c0.1-0.3,0.3-0.5,0.6-0.7
		c0.3-0.2,0.6-0.2,0.9-0.2c0.5,0,0.9,0.2,1.2,0.5c0.3,0.3,0.4,0.8,0.4,1.4v0.4h-2.4c0,0.2,0.1,0.4,0.3,0.6c0.2,0.1,0.4,0.2,0.6,0.2
		c0.4,0,0.7-0.1,0.9-0.4l0.5,0.5c-0.1,0.2-0.3,0.4-0.6,0.5C129.5,131.3,129.2,131.4,128.9,131.4z M128.8,128.4
		c-0.2,0-0.4,0.1-0.5,0.2s-0.2,0.3-0.2,0.6h1.4v-0.1c0-0.2-0.1-0.4-0.2-0.5S129,128.4,128.8,128.4z"/>
	<path class="st7" d="M133.1,128.6c-0.1,0-0.3,0-0.4,0c-0.4,0-0.6,0.1-0.7,0.4v2.4h-1v-3.7h0.9l0,0.4c0.2-0.3,0.5-0.5,0.8-0.5
		c0.1,0,0.2,0,0.3,0L133.1,128.6z"/>
	<path class="st7" d="M134.9,126.7v0.9h0.6v0.7h-0.6v1.8c0,0.1,0,0.2,0.1,0.3s0.2,0.1,0.3,0.1c0.1,0,0.2,0,0.3,0v0.7
		c-0.2,0.1-0.4,0.1-0.6,0.1c-0.7,0-1-0.3-1.1-1v-2h-0.5v-0.7h0.5v-0.9H134.9z"/>
	<path class="st7" d="M135.9,129.5c0-0.4,0.1-0.7,0.2-1s0.3-0.5,0.6-0.7c0.3-0.2,0.6-0.2,0.9-0.2c0.5,0,0.9,0.2,1.2,0.5
		c0.3,0.3,0.5,0.7,0.5,1.2l0,0.3c0,0.6-0.2,1-0.5,1.4s-0.7,0.5-1.3,0.5s-1-0.2-1.3-0.5C136,130.6,135.9,130.1,135.9,129.5
		L135.9,129.5z M136.8,129.5c0,0.4,0.1,0.6,0.2,0.8c0.1,0.2,0.3,0.3,0.6,0.3c0.2,0,0.4-0.1,0.6-0.3c0.1-0.2,0.2-0.5,0.2-0.9
		c0-0.3-0.1-0.6-0.2-0.8c-0.1-0.2-0.3-0.3-0.6-0.3c-0.2,0-0.4,0.1-0.6,0.3C136.9,128.8,136.8,129.1,136.8,129.5z"/>
	<path class="st7" d="M142,130.3c0-0.1-0.1-0.2-0.2-0.3c-0.1-0.1-0.3-0.1-0.6-0.2c-0.9-0.2-1.3-0.6-1.3-1.1c0-0.3,0.1-0.6,0.4-0.8
		c0.3-0.2,0.6-0.3,1.1-0.3c0.5,0,0.8,0.1,1.1,0.3c0.3,0.2,0.4,0.5,0.4,0.9h-1c0-0.1,0-0.3-0.1-0.3c-0.1-0.1-0.2-0.1-0.4-0.1
		c-0.2,0-0.3,0-0.4,0.1c-0.1,0.1-0.1,0.2-0.1,0.3c0,0.1,0.1,0.2,0.2,0.3s0.3,0.1,0.5,0.2s0.5,0.1,0.6,0.2c0.5,0.2,0.8,0.5,0.8,1
		c0,0.3-0.1,0.6-0.4,0.8c-0.3,0.2-0.7,0.3-1.1,0.3c-0.3,0-0.6-0.1-0.8-0.2s-0.4-0.3-0.6-0.5s-0.2-0.4-0.2-0.6h0.9
		c0,0.2,0.1,0.3,0.2,0.4c0.1,0.1,0.3,0.1,0.5,0.1c0.2,0,0.3,0,0.4-0.1C141.9,130.5,142,130.4,142,130.3z"/>
	<path class="st7" d="M143.6,128.1c0-0.2,0.1-0.3,0.2-0.4c0.1-0.1,0.2-0.1,0.4-0.1c0.2,0,0.3,0,0.4,0.1c0.1,0.1,0.2,0.2,0.2,0.4
		c0,0.2-0.1,0.3-0.2,0.4s-0.2,0.1-0.4,0.1c-0.2,0-0.3,0-0.4-0.1C143.7,128.3,143.6,128.2,143.6,128.1z M143.6,130.9
		c0-0.2,0.1-0.3,0.2-0.4c0.1-0.1,0.2-0.1,0.4-0.1c0.2,0,0.3,0,0.4,0.1c0.1,0.1,0.2,0.2,0.2,0.4c0,0.2-0.1,0.3-0.2,0.4
		s-0.2,0.1-0.4,0.1c-0.2,0-0.3,0-0.4-0.1C143.7,131.1,143.6,131,143.6,130.9z"/>
	<path class="st7" d="M149.5,131.3h-0.8v-4l-1.2,0.4v-0.7l1.9-0.7h0.1V131.3z"/>
	<path class="st7" d="M154.5,131.3h-3.3v-0.6l1.7-1.8c0.2-0.3,0.4-0.5,0.5-0.7s0.2-0.4,0.2-0.5c0-0.2-0.1-0.4-0.2-0.6
		c-0.1-0.1-0.3-0.2-0.5-0.2c-0.3,0-0.5,0.1-0.6,0.2c-0.1,0.2-0.2,0.4-0.2,0.7h-0.8c0-0.3,0.1-0.6,0.2-0.8c0.1-0.2,0.3-0.4,0.6-0.6
		c0.3-0.1,0.6-0.2,0.9-0.2c0.5,0,0.9,0.1,1.1,0.4c0.3,0.2,0.4,0.6,0.4,1c0,0.2-0.1,0.5-0.2,0.8c-0.1,0.3-0.4,0.6-0.7,0.9l-1.2,1.3
		h2.3V131.3z"/>
</g>
<path class="st21" d="M37.4,16.1h4.4c0.8,0,1.4,0.7,1,1.2l-2.2,2.8l-2.2,2.8c-0.4,0.5-1.5,0.5-1.9,0l-2.2-2.8L32,17.3
	c-0.4-0.5,0.1-1.2,1-1.2H37.4z"/>
<path class="st20" d="M136.8,16.1h4.4c0.8,0,1.4,0.7,1,1.2l-2.2,2.8l-2.2,2.8c-0.4,0.5-1.5,0.5-1.9,0l-2.2-2.8l-2.2-2.8
	c-0.4-0.5,0.1-1.2,1-1.2H136.8z"/>
<rect x="108" y="13.5" class="st23" width="45.1" height="0.7"/>
<g>
	<path class="st7" d="M60,8.3c0.1-0.2,0.2-0.2,0.4-0.2c0.3,0,0.7,0,1,0c0.1,0,0.1,0,0.2,0c0.7-0.4,1.3-0.8,2-1.1
		c0.1,0,0.2-0.1,0.3-0.1C63.9,6.9,64,7,64,7.1c0,0,0,0,0,0.1c0,1.4,0,2.8,0,4.2c0,0.1,0,0.1,0,0.2c-0.1,0.2-0.3,0.3-0.4,0.2
		c-0.2-0.1-0.5-0.3-0.7-0.4c-0.4-0.3-0.9-0.5-1.3-0.8c0,0-0.1,0-0.1,0c-0.3,0-0.7,0-1,0c-0.2,0-0.3-0.1-0.4-0.2C60,9.6,60,9,60,8.3z
		"/>
	<path class="st7" d="M68.6,9.3c0,0.9-0.2,1.8-0.7,2.6c-0.1,0.1-0.2,0.3-0.3,0.4c-0.1,0.1-0.2,0.2-0.4,0.1c-0.1,0-0.2-0.2-0.2-0.3
		c0-0.1,0-0.1,0.1-0.2c0.2-0.3,0.3-0.5,0.5-0.8c0.2-0.4,0.3-0.8,0.3-1.3c0.1-0.6,0-1.2-0.2-1.8c-0.1-0.4-0.3-0.8-0.6-1.2
		c0-0.1-0.1-0.1-0.1-0.2c-0.1-0.1-0.1-0.3,0.1-0.4c0.1-0.1,0.3-0.1,0.4,0c0,0.1,0.1,0.1,0.1,0.2c0.4,0.6,0.7,1.3,0.8,2.1
		C68.6,8.8,68.6,9.1,68.6,9.3z"/>
	<path class="st7" d="M67.1,9.3c0,0.7-0.2,1.4-0.7,2c-0.1,0.1-0.3,0.2-0.4,0.1c-0.1-0.1-0.2-0.3-0.1-0.4c0.2-0.3,0.4-0.6,0.5-1
		c0.2-0.6,0.1-1.2-0.2-1.8C66.1,8,66,7.8,65.9,7.6c-0.1-0.2,0-0.4,0.2-0.5c0.1,0,0.2,0,0.3,0.1c0.4,0.5,0.6,1.1,0.7,1.8
		C67.1,9.2,67.1,9.2,67.1,9.3z"/>
	<path class="st7" d="M65.5,9.3c0,0.5-0.1,0.8-0.4,1.1c-0.1,0.1-0.2,0.2-0.3,0.1c-0.1,0-0.2-0.1-0.2-0.3c0-0.1,0-0.2,0.1-0.2
		c0.1-0.2,0.2-0.4,0.2-0.7c0-0.2,0-0.5-0.1-0.7c0-0.1-0.1-0.1-0.1-0.2c-0.1-0.1,0-0.3,0.1-0.4C64.8,8,65,8,65.1,8.2
		c0.2,0.2,0.3,0.5,0.4,0.8C65.5,9,65.5,9.2,65.5,9.3z"/>
</g>
<g>
	<path class="st7" d="M157.3,8.3c0.1-0.2,0.2-0.2,0.4-0.2c0.3,0,0.7,0,1,0c0.1,0,0.1,0,0.2,0c0.7-0.4,1.3-0.8,2-1.1
		c0.1,0,0.2-0.1,0.3-0.1c0.1,0,0.2,0.2,0.2,0.3c0,0,0,0,0,0.1c0,1.4,0,2.8,0,4.2c0,0.1,0,0.1,0,0.2c-0.1,0.2-0.3,0.3-0.4,0.2
		c-0.2-0.1-0.5-0.3-0.7-0.4c-0.4-0.3-0.9-0.5-1.3-0.8c0,0-0.1,0-0.1,0c-0.3,0-0.7,0-1,0c-0.2,0-0.3-0.1-0.4-0.2
		C157.3,9.6,157.3,9,157.3,8.3z"/>
	<path class="st7" d="M166,9.3c0,0.9-0.2,1.8-0.7,2.6c-0.1,0.1-0.2,0.3-0.3,0.4c-0.1,0.1-0.2,0.2-0.4,0.1c-0.1,0-0.2-0.2-0.2-0.3
		c0-0.1,0-0.1,0.1-0.2c0.2-0.3,0.3-0.5,0.5-0.8c0.2-0.4,0.3-0.8,0.3-1.3c0.1-0.6,0-1.2-0.2-1.8c-0.1-0.4-0.3-0.8-0.6-1.2
		c0-0.1-0.1-0.1-0.1-0.2c-0.1-0.1-0.1-0.3,0.1-0.4c0.1-0.1,0.3-0.1,0.4,0c0,0.1,0.1,0.1,0.1,0.2c0.4,0.6,0.7,1.3,0.8,2.1
		C166,8.8,166,9.1,166,9.3z"/>
	<path class="st7" d="M164.4,9.3c0,0.7-0.2,1.4-0.7,2c-0.1,0.1-0.3,0.2-0.4,0.1c-0.1-0.1-0.2-0.3-0.1-0.4c0.2-0.3,0.4-0.6,0.5-1
		c0.2-0.6,0.1-1.2-0.2-1.8c-0.1-0.2-0.2-0.4-0.3-0.5c-0.1-0.2,0-0.4,0.2-0.5c0.1,0,0.2,0,0.3,0.1c0.4,0.5,0.6,1.1,0.7,1.8
		C164.4,9.2,164.4,9.2,164.4,9.3z"/>
	<path class="st7" d="M162.9,9.3c0,0.5-0.1,0.8-0.4,1.1c-0.1,0.1-0.2,0.2-0.3,0.1c-0.1,0-0.2-0.1-0.2-0.3c0-0.1,0-0.2,0.1-0.2
		c0.1-0.2,0.2-0.4,0.2-0.7c0-0.2,0-0.5-0.1-0.7c0-0.1-0.1-0.1-0.1-0.2c-0.1-0.1,0-0.3,0.1-0.4c0.1-0.1,0.3-0.1,0.4,0
		c0.2,0.2,0.3,0.5,0.4,0.8C162.9,9,162.9,9.2,162.9,9.3z"/>
</g>
</svg>
