<?xml version="1.0" encoding="utf-8"?>
<!-- Generator: Adobe Illustrator 22.0.0, SVG Export Plug-In . SVG Version: 6.00 Build 0)  -->
<svg version="1.1" id="Camada_1" xmlns="http://www.w3.org/2000/svg" xmlns:xlink="http://www.w3.org/1999/xlink" x="0px" y="0px"
	 viewBox="0 0 178.7 182.9" style="enable-background:new 0 0 178.7 182.9;" xml:space="preserve">
<style type="text/css">
	.st0{fill:url(#SVGID_1_);}
	.st1{fill:#D3816F;}
	.st2{fill:#E1AD94;}
	.st3{fill:#CA7D6C;}
	.st4{fill:#303E8D;}
	.st5{fill:url(#SVGID_2_);}
	.st6{fill:#C4D1EA;}
	.st7{fill:url(#SVGID_3_);}
	.st8{fill:#7F4B2E;}
	.st9{fill:url(#SVGID_4_);}
	.st10{fill:none;}
	.st11{fill:url(#SVGID_5_);}
	.st12{fill:url(#SVGID_6_);}
	.st13{fill:#6F413A;}
	.st14{fill:#6A341B;}
	.st15{fill:#FFFFFF;}
	.st16{fill:#EDEEF0;}
	.st17{fill:url(#SVGID_7_);}
	.st18{fill:#505C6F;}
	.st19{fill:#9A999E;}
	.st20{fill:#D8D9DD;}
	.st21{opacity:0.29;}
	.st22{fill:url(#SVGID_8_);}
	.st23{fill:#48494A;}
	.st24{fill:#101011;}
	.st25{fill:#191B1F;}
	.st26{fill:url(#SVGID_9_);}
	.st27{fill:#9C372A;}
	.st28{fill:#B63F28;}
	.st29{fill:url(#SVGID_10_);}
	.st30{fill:url(#SVGID_11_);}
	.st31{fill:#BA007C;}
	.st32{fill:#4A72B2;}
	.st33{fill:#D8AC31;}
	.st34{fill:#2A5CA2;}
	.st35{fill:#CD9825;}
</style>
<g>
	
		<radialGradient id="SVGID_1_" cx="68.3527" cy="18.7507" r="90.4838" gradientTransform="matrix(1.0061 -5.190356e-04 -5.190356e-04 1 -0.2874 2.445680e-02)" gradientUnits="userSpaceOnUse">
		<stop  offset="0.797" style="stop-color:#E1AD94"/>
		<stop  offset="0.8545" style="stop-color:#E0AB92"/>
		<stop  offset="0.9038" style="stop-color:#DEA28A"/>
		<stop  offset="0.9502" style="stop-color:#D9957F"/>
		<stop  offset="0.9945" style="stop-color:#D48471"/>
		<stop  offset="1" style="stop-color:#D3816F"/>
	</radialGradient>
	<path class="st0" d="M154.1,38.4c0,0,5.9-3.2,4.8-10.8s-10.6-12.1-10.6-12.1l2.8-10.4c0,0,0.8-1.9-1.3-2.8c-3.4-0.4-3.6,2-3.6,2
		s-3.1,8.8-3.9,13.4c0.4,1.7-1.2,6.4-1.2,6.4l2.8,12.1C143.8,36.2,148.1,38.8,154.1,38.4z"/>
	<path class="st1" d="M150.9,24.9c0,0.3,0.1,0.5,0.1,0.7c0.5,1.1,2,1.3,2.1,1.3c0.8,0,1.9,0,3.3,0.5c1.2,0.4,2,1,2.6,1.4
		c0-1.4-0.7-4.3-0.7-4.3l-6-1L150.9,24.9z"/>
	<g>
		<path class="st2" d="M151.8,13.7l-0.8-0.3c-1-0.3-2,0.2-2.3,1.2l-2.1,6.5c-0.3,1,0.2,2,1.2,2.3l0.8,0.3c1,0.3,2-0.2,2.3-1.2
			l2.1-6.5C153.2,15,152.7,14,151.8,13.7z"/>
		<path class="st3" d="M151.8,13.7c-0.5-0.1-1.1-0.4-1.6-0.3c-0.6,0.1-1,0.4-1.3,0.9c-0.4,1-0.6,2.1-0.9,3.2l-0.9,3.2
			c-0.1,0.3-0.2,0.5-0.2,0.7c0,0.2,0,0.5,0.1,0.7c0.1,0.4,0.5,0.8,0.9,0.9l0.8,0.3c0.2,0.1,0.4,0.1,0.7,0.1c0.4,0,0.9-0.3,1.1-0.7
			c0.1-0.2,0.2-0.4,0.3-0.7l0.3-0.8l0.6-1.6l1.2-3.1c0.1-0.3,0.2-0.5,0.2-0.8c0-0.3,0-0.6-0.1-0.8C152.7,14.3,152.3,13.9,151.8,13.7
			z M151.8,13.7c0.5,0.2,1,0.6,1.2,1.1c0.1,0.3,0.1,0.5,0.1,0.8c0,0.3-0.1,0.5-0.2,0.8l-0.9,3.2l-0.5,1.6l-0.2,0.8
			c-0.1,0.3-0.1,0.5-0.3,0.9c-0.3,0.6-0.9,1-1.6,1.1c-0.3,0-0.7,0-1-0.1l-0.8-0.3c-0.6-0.2-1.2-0.7-1.4-1.4c-0.1-0.3-0.1-0.7-0.1-1
			c0.1-0.3,0.2-0.6,0.3-0.9l1.2-3.1c0.4-1,0.7-2.1,1.2-3.1c0.3-0.5,0.8-0.8,1.4-0.9C150.7,13.3,151.2,13.5,151.8,13.7z"/>
	</g>
	<path class="st2" d="M142.2,34.2c0,0-4.1-8.7-4-11.9c0.1-2.5,0.7-2.6,0.7-2.6s2.4-2.5,6.5-3.2c1.8-0.1,2.1,0.4,2.4,1.3
		c0.3,0.9,0.4,2.5-4.6,5.2c2.1-0.6,5.5-0.6,7.7,1.7"/>
	<g>
		<path class="st3" d="M142.3,17.4c1-0.5,2-0.9,3.1-1.2l0,0l0,0c0.4-0.1,0.9-0.1,1.4,0c0.5,0.1,1,0.5,1.1,1c0.2,0.4,0.4,0.9,0.3,1.4
			c-0.1,0.5-0.3,1-0.6,1.4c-0.6,0.8-1.3,1.3-2,1.9c-0.7,0.5-1.5,1-2.3,1.4l-0.3-0.7c1.4-0.4,2.8-0.4,4.2-0.1c1.4,0.3,2.7,1,3.5,2.1
			c-1-0.9-2.3-1.5-3.6-1.7c-1.3-0.2-2.7-0.1-3.9,0.3c-0.2,0.1-0.4-0.1-0.4-0.2c0-0.2,0-0.3,0.2-0.4l0,0c0.7-0.4,1.5-0.9,2.2-1.4
			c0.7-0.5,1.4-1,1.8-1.7c0.2-0.3,0.4-0.7,0.5-1c0.1-0.3-0.1-0.7-0.2-1.1c-0.1-0.4-0.4-0.6-0.7-0.7c-0.4-0.1-0.8-0.1-1.2-0.1l0,0
			C144.4,16.8,143.3,17.1,142.3,17.4z"/>
	</g>
	<g>
		<path class="st2" d="M159.6,16.9L159.6,16.9c-1.2-0.4-2.5,0.3-2.8,1.4l-1.6,4.9c-0.4,1.2,0.3,2.5,1.4,2.8l0,0
			c1.2,0.4,2.5-0.3,2.8-1.4l1.6-4.9C161.4,18.6,160.8,17.3,159.6,16.9z"/>
		<path class="st3" d="M159.6,16.9c-1-0.3-2.1,0.1-2.6,1c-0.4,0.9-0.6,1.9-0.9,2.9l-0.4,1.5c-0.1,0.5-0.3,1-0.4,1.4
			c-0.1,0.9,0.5,1.9,1.4,2.1c0.9,0.3,1.9-0.1,2.4-0.9c0.2-0.4,0.4-0.9,0.5-1.4l0.5-1.4c0.3-1,0.7-1.9,1-2.9
			C161.2,18.3,160.6,17.2,159.6,16.9z M159.6,16.9c1,0.3,1.7,1.3,1.6,2.4c-0.2,1-0.5,2-0.8,2.9l-0.4,1.5c-0.2,0.5-0.2,1-0.5,1.5
			c-0.5,1-1.8,1.5-2.9,1.1c-1.1-0.4-1.8-1.5-1.7-2.6c0.1-0.6,0.3-1,0.5-1.5l0.5-1.4c0.4-1,0.6-1.9,1.1-2.9
			C157.5,17,158.6,16.5,159.6,16.9z"/>
	</g>
	<g>
		<path class="st2" d="M155.8,15.2l-0.6-0.2c-1-0.3-2.1,0.2-2.4,1.2l-2.1,6.3c-0.3,1,0.2,2.1,1.2,2.4l0.6,0.2c1,0.3,2.1-0.2,2.4-1.2
			l2.1-6.3C157.4,16.7,156.9,15.6,155.8,15.2z"/>
		<path class="st3" d="M155.8,15.2c-0.5-0.2-1.1-0.4-1.6-0.2c-0.5,0.1-1,0.5-1.2,1c-0.4,1-0.6,2.1-0.9,3.2l-0.9,3.2
			c-0.4,1,0.1,2,0.9,2.3c0.2,0.1,0.6,0.2,0.8,0.2c0.2,0.1,0.4,0.1,0.7,0c0.4-0.1,0.9-0.4,1.1-0.8c0.1-0.2,0.2-0.5,0.3-0.7l0.3-0.8
			l0.6-1.6l1.2-3.1c0.2-0.5,0.3-1.1,0.1-1.6C156.8,15.8,156.4,15.4,155.8,15.2z M155.8,15.2c0.5,0.2,1,0.6,1.2,1.1
			c0.2,0.5,0.2,1.1,0,1.6l-0.9,3.2l-0.5,1.6l-0.2,0.8c-0.1,0.3-0.1,0.5-0.3,0.8c-0.3,0.6-0.9,1-1.5,1.2c-0.3,0.1-0.7,0.1-1,0
			c-0.3-0.1-0.5-0.2-0.8-0.3c-0.6-0.2-1.2-0.7-1.4-1.3c-0.3-0.6-0.2-1.4,0.1-1.9l1.2-3.1c0.4-1,0.7-2.1,1.2-3.1
			c0.3-0.5,0.8-0.8,1.3-1C154.8,14.8,155.3,15.1,155.8,15.2z"/>
	</g>
	<path class="st4" d="M75.5,83.7h-4.9c0,0-3.7,0.1-7.6,3.1c0,0-0.5,0.4-1,0.9c-14.8,14.7-11.4,27.8-11.4,27.8
		c2.3,8.7,11.4,15.2,22.1,15.1"/>
	
		<radialGradient id="SVGID_2_" cx="129.7896" cy="65.1088" r="48.9521" gradientTransform="matrix(0.4488 -0.8936 0.2936 0.1474 52.4291 171.4958)" gradientUnits="userSpaceOnUse">
		<stop  offset="0" style="stop-color:#192376"/>
		<stop  offset="0.1126" style="stop-color:#253181"/>
		<stop  offset="0.2531" style="stop-color:#2C3988"/>
		<stop  offset="0.4508" style="stop-color:#2F3D8C"/>
		<stop  offset="1" style="stop-color:#303E8D"/>
	</radialGradient>
	<path class="st5" d="M118.6,121.9c-8.5-11.2,18.4-30.9,23.4-37c6.1-7.4,13.8-43.5,13.6-44.2c0.8-0.2,1.8-2.4,1.3-4.8
		c-3.7-2.6-14.7-3-15.5-2.7s-2,4.8-0.8,6c-2.6,2.8-5.5,20.3-10.8,29.6c-3.6,6.2-11.8,11.4-16.7,14.1c-2.9,1.6-6.3,2.2-9.5,1.5
		c-0.5-0.1-1-0.2-1.4-0.4"/>
	<path class="st6" d="M76.9,82.9c0-0.2,0.1-0.5,0.1-0.7c0.6-0.1,1.1-0.3,1.7-0.4c0,0,0.1,0,0.1,0H82l8.8-0.3h6.8c0,0,0.1,0,0.1,0
		l1.8,1.3c0,0,0,0,0,0l1.4,0.7c0,0,0,0,0,0c0.9,0.3,2.1,0.6,3.4,0.8c2,0.2,3.7,0.1,5-0.2c-1.3,5.3-1.3,15.1-1.3,15.8
		c0,0,0,0.1,0,0.1c-0.3,0.6-4.2,7.3-36.7,7c-0.1,0-0.2-0.1-0.2-0.2c0.8-17.2-2.6-21.7-3.5-22.6c0.3-0.1,1.1-0.4,1.5-0.5
		c2.9-0.8,5.2-0.8,7.6-0.7C76.7,83.1,76.8,83,76.9,82.9z"/>
	
		<radialGradient id="SVGID_3_" cx="88.2855" cy="53.208" r="36.4171" gradientTransform="matrix(4.106125e-02 0.9992 -0.9393 3.860250e-02 134.64 -37.057)" gradientUnits="userSpaceOnUse">
		<stop  offset="0.703" style="stop-color:#5E7085"/>
		<stop  offset="0.8447" style="stop-color:#718094"/>
		<stop  offset="0.8604" style="stop-color:#738296"/>
		<stop  offset="1" style="stop-color:#8F9DB2"/>
	</radialGradient>
	<path class="st7" d="M99.4,81.8l-21.5,0c0,0-2-0.1-2.3,2.1l0,2c0,0.3,0,0.6,0.1,0.9c0,0,0.1,0.4,0.4,0.8c0.7,1,2.6,1.6,2.6,1.6
		c5.3,1.3,10.2,1.3,10.2,1.3s3.9,0,10.2-1.4c0.5-0.1,1.5-0.3,2.3-1.2c0.6-0.8,0.7-1.6,0.8-2.1l0-1.5C101.8,81.4,99.4,81.8,99.4,81.8
		z"/>
	<path class="st1" d="M163.3,28.9"/>
	<path class="st8" d="M71.2,74c0,0-5.1,3.9-8.4-1.7c-0.5-0.8-1.3-1.4-2.2-1.6c-2.9-0.5-4.5-2.6-4-5c0.2-1.1-0.1-2.2-0.9-3.1
		c-2.2-2.3-2.7-6.4-1.1-9.1c0.5-0.8,0.6-1.8,0.2-2.7c-1.6-4-0.4-11.2,4.1-13.5c1.1-0.6,1.8-1.7,1.8-3c0-4.8,2.7-11.9,10.9-12.1
		c1.1,0,2.1-0.6,2.7-1.5c2.4-3.6,8.9-7.9,19.5-2.7c0.8,0.4,1.7,0.4,2.5,0.1c5.1-1.7,18.2-0.6,18.5,11.2c0,1.1,0.7,2,1.5,2.5
		c2.4,1.5,5,5.1,3.3,9.2c-0.6,1.3-0.1,2.9,1,3.8c2.2,1.7,3.4,3.7,2.2,6.5c-0.4,0.8-0.4,1.8,0,2.6c1.1,2.3,1.8,5.7-1.3,8.4
		c-0.7,0.6-1,1.6-0.9,2.6c0.1,1.9-0.9,4.8-3.4,5.5c-0.9,0.2-1.7,0.9-2.1,1.7c-1.3,2.5-4.4,5.9-11.2,1.4C94.6,67.3,81.9,60.4,71.2,74
		z"/>
	<radialGradient id="SVGID_4_" cx="88.7304" cy="51.3901" r="64.8064" gradientUnits="userSpaceOnUse">
		<stop  offset="0.3096" style="stop-color:#6A341B"/>
		<stop  offset="0.4107" style="stop-color:#6E391B"/>
		<stop  offset="0.6958" style="stop-color:#75431D"/>
		<stop  offset="1" style="stop-color:#78471D"/>
	</radialGradient>
	<path class="st9" d="M70.8,74.2c0,0-3.3,1.5-5.4,0.7c-0.5-0.2-2.9-3.6-3.7-3.7c-2.6-0.5-2.2-1.1-1.8-3.3c0.2-1-0.1-2.1-0.8-2.9
		c-2-2.2-2.4-6-1-8.5c0.4-0.8,0.5-1.7,0.2-2.5c-1.4-3.7-0.4-10.5,3.7-12.6c1-0.5,1.7-1.6,1.7-2.8c0-4.5,2.4-11.1,9.7-11.3
		c1,0,1.9-0.5,2.4-1.4c2.1-3.4,8-7.4,17.5-2.5c0.7,0.4,1.5,0.4,2.3,0.1c4.5-1.6,16.3-0.5,16.6,10.5c0,1,0.6,1.9,1.4,2.4
		c2.1,1.4,4.5,4.8,2.9,8.6c-0.5,1.3-0.1,2.7,0.9,3.6c1.9,1.6,3,3.5,2,6.1c-0.3,0.8-0.3,1.7,0,2.5c1,2.2,1.6,5.3-1.1,7.9
		c-0.7,0.6-0.9,1.5-0.8,2.4c0.1,1.7-0.9,4-2.5,5.7c-0.6,0.6-1.2,0.7-1.6,1.5c-1.2,2.3-8.2,1.1-11.7-1.7
		C93.2,66.8,80.4,61.5,70.8,74.2z"/>
	<path class="st10" d="M71.2,74c0,0-5.1,3.9-8.4-1.7c-0.5-0.8-1.3-1.4-2.2-1.6c-2.9-0.5-4.5-2.6-4-5c0.2-1.1-0.1-2.2-0.9-3.1
		c-2.2-2.3-2.7-6.4-1.1-9.1c0.5-0.8,0.6-1.8,0.2-2.7c-1.6-4-0.4-11.2,4.1-13.5c1.1-0.6,1.8-1.7,1.8-3c0-4.8,2.7-11.9,10.9-12.1
		c1.1,0,2.1-0.6,2.7-1.5c2.4-3.6,8.9-7.9,19.5-2.7c0.8,0.4,1.7,0.4,2.5,0.1c5.1-1.7,18.2-0.6,18.5,11.2c0,1.1,0.7,2,1.5,2.5
		c2.4,1.5,5,5.1,3.3,9.2c-0.6,1.3-0.1,2.9,1,3.8c2.2,1.7,3.4,3.7,2.2,6.5c-0.4,0.8-0.4,1.8,0,2.6c1.1,2.3,1.8,5.7-1.3,8.4
		c-0.7,0.6-1,1.6-0.9,2.6c0.1,1.9-0.9,4.8-3.4,5.5c-0.9,0.2-1.7,0.9-2.1,1.7c-1.3,2.5-4.4,5.9-11.2,1.4C94.6,67.3,81.9,60.4,71.2,74
		z"/>
	<path class="st2" d="M107.1,60c0,0,0.3-0.5,0.9-1c1.1-1,2.9-0.9,4,0.3c1.4,1.6,2.3,3.8,1.4,6.6c-0.1,0.3-0.2,0.6-0.4,0.8
		c-1.6,2.8-2.5,3.5-2.5,3.5c-1,0.8-2.3,1-3.3,0"/>
	<path class="st2" d="M69.5,60c0,0-0.3-0.5-0.9-1c-1.1-1-2.9-0.9-4,0.3c-1.4,1.6-2.3,3.8-1.4,6.6c0.1,0.3,0.2,0.6,0.4,0.8
		c1.6,2.8,2.5,3.5,2.5,3.5c1,0.8,2.3,1,3.3,0"/>
	<path class="st1" d="M67.4,67.6c0,0-1.9-3.1-1.4-4.2c0.4-1.1,1.4-1.7,1.9-1.8c-0.3-0.3-1.2-0.4-1.2-0.4L65.3,62L65,62.8L65,63.9
		l0.3,1.1l0.3,0.7l0.4,0.9l0.3,0.7L67.4,67.6z"/>
	<path class="st1" d="M67.6,65c0,0-0.3-1.1-1.3-1.1c-0.9,0-1.2,0.4-1.2,0.4l0.2,0.9l1.2-0.2l0.9,0.2L67.6,65z"/>
	<path class="st1" d="M109.2,67.6c0,0,1.9-3.1,1.4-4.2c-0.4-1.1-1.4-1.7-1.9-1.8c0.3-0.3,1.2-0.4,1.2-0.4l1.4,0.7l0.3,0.8l0.1,1.1
		l-0.3,1.1l-0.3,0.7l-0.4,0.9l-0.3,0.7L109.2,67.6z"/>
	<path class="st1" d="M109,65c0,0,0.3-1.1,1.3-1.1c0.9,0,1.2,0.4,1.2,0.4l-0.2,0.9l-1.2-0.2l-0.9,0.2L109,65z"/>
	<radialGradient id="SVGID_5_" cx="88.2661" cy="64.8192" r="22.2504" gradientUnits="userSpaceOnUse">
		<stop  offset="0.9239" style="stop-color:#D3816F"/>
		<stop  offset="1" style="stop-color:#E6B99B"/>
	</radialGradient>
	<path class="st11" d="M77.7,78.7h22.1v5.8c0,0.8-0.5,1.4-1.1,1.7c-3,1.1-11.3,3.6-20.1-0.1c-0.5-0.2-0.9-0.8-0.9-1.4
		C77.6,80,77.7,78.7,77.7,78.7z"/>
	
		<radialGradient id="SVGID_6_" cx="86.0161" cy="61.3609" r="27.4307" fx="84.8269" fy="62.1164" gradientTransform="matrix(0.4349 0.9005 -0.7741 0.3738 96.104 -39.0342)" gradientUnits="userSpaceOnUse">
		<stop  offset="0.4061" style="stop-color:#E6B99B"/>
		<stop  offset="0.5257" style="stop-color:#E4B497"/>
		<stop  offset="0.6902" style="stop-color:#DFA68B"/>
		<stop  offset="0.8797" style="stop-color:#D8907A"/>
		<stop  offset="1" style="stop-color:#D3816F"/>
	</radialGradient>
	<path class="st12" d="M107.2,60c0,0-2-12.3-4.5-14.5c-2.2-1.9-2.6-3.5-10.9-4.7c-2.3-0.3-4.6-0.3-6.9,0c-8.3,1.3-8.6,2.8-10.9,4.7
		C71.5,47.7,69.5,60,69.5,60s-2.3,8.5,3.7,17.5c3.9,4.5,8.3,6.5,11.4,7.3c2.5,0.7,5.1,0.7,7.5,0c3.1-0.9,7.5-2.8,11.4-7.3
		C109.5,68.5,107.2,60,107.2,60z"/>
	<g>
		<path class="st13" d="M85.2,72.4c2.3-0.2,4.5-0.6,6.4-1.6c1-0.5,1.9-1.1,2.6-1.8c0.8-0.7,1.4-1.6,2.1-2.6
			c-0.3,1.1-0.8,2.2-1.6,3.1c-0.3,0.5-0.8,0.9-1.2,1.3c-0.5,0.3-1,0.7-1.5,0.9c-1.1,0.5-2.2,0.9-3.4,1
			C87.5,72.8,86.3,72.7,85.2,72.4z"/>
	</g>
	<circle cx="96.7" cy="60.5" r="1.6"/>
	<circle cx="81.2" cy="60.5" r="1.6"/>
	<g>
		<path class="st14" d="M92.5,55.5c0,0,0,0-0.1-0.1c-0.5-1-0.4-2.4,0.7-2.7c1.7-0.4,4.8-0.6,7.6,0.2c0.9,0.3,1.4,1.2,1.2,2.1
			c-0.1,0.3-0.2,0.6-0.2,0.6S98.4,54.6,92.5,55.5z"/>
	</g>
	<g>
		<path class="st14" d="M76,55.7c0,0-0.1-0.2-0.2-0.6c-0.2-0.9,0.4-1.9,1.2-2.1c2.8-0.9,5.9-0.6,7.6-0.2c1.2,0.3,1.2,1.6,0.7,2.7
			c0,0.1-0.1,0.1-0.1,0.1C79.4,54.6,76,55.7,76,55.7z"/>
	</g>
	<path class="st15" d="M105.2,96"/>
	<g>
		<path class="st13" d="M67.5,61.6c-0.7,0.1-1.5,0.2-1.8,0.7c-0.1,0.2-0.2,0.5-0.3,0.8l0,0.5l0.1,0.5l0-0.1l0.6,2.1
			c0.1,0.3,0.2,0.7,0.4,1c0.1,0.3,0.3,0.6,0.7,0.7c-0.4,0.1-0.8-0.1-1.1-0.4c-0.3-0.3-0.5-0.6-0.7-1c-0.4-0.7-0.6-1.4-0.9-2.1l0,0
			l0,0c0-0.4-0.1-0.8,0-1.2c0.1-0.4,0.3-0.9,0.6-1.2c0.4-0.3,0.8-0.4,1.2-0.4C66.8,61.3,67.2,61.4,67.5,61.6z"/>
	</g>
	<g>
		<path class="st13" d="M67.5,65.5c-0.3-0.2-0.7-0.4-1.1-0.4c-0.2,0-0.3,0.1-0.4,0.2c-0.2,0-0.3,0.2-0.5,0.3l0,0
			c0-0.3,0.1-0.5,0.3-0.7c0.2-0.2,0.5-0.2,0.8-0.1C67,64.8,67.3,65.1,67.5,65.5L67.5,65.5z"/>
	</g>
	<g>
		<path class="st13" d="M109.1,61.6c0.3-0.2,0.7-0.3,1.1-0.3c0.4,0,0.9,0.1,1.2,0.4c0.4,0.3,0.6,0.8,0.6,1.2c0.1,0.4,0,0.8,0,1.2
			l0,0l0,0c-0.2,0.7-0.5,1.4-0.9,2.1c-0.2,0.3-0.4,0.7-0.7,1c-0.3,0.3-0.7,0.5-1.1,0.4c0.4-0.2,0.6-0.4,0.7-0.7
			c0.2-0.3,0.3-0.6,0.4-1l0.6-2.1l0,0.1l0.1-0.5l0-0.5c0-0.3-0.1-0.6-0.3-0.8C110.6,61.8,109.9,61.6,109.1,61.6z"/>
	</g>
	<g>
		<path class="st13" d="M109.1,65.1c0.2-0.3,0.5-0.6,1-0.7c0.2-0.1,0.5,0,0.7,0.1c0.2,0.2,0.3,0.4,0.3,0.6l0,0
			c-0.2-0.1-0.4-0.2-0.5-0.2c-0.1,0-0.2-0.1-0.4-0.1C109.8,64.8,109.4,65,109.1,65.1L109.1,65.1z"/>
	</g>
	<g>
		<line class="st10" x1="156.2" y1="35.3" x2="153.6" y2="39.4"/>
		<line class="st10" x1="156.2" y1="35.3" x2="153.6" y2="39.4"/>
	</g>
	<g>
		<line class="st10" x1="154.7" y1="34.7" x2="152.5" y2="39"/>
		<line class="st10" x1="154.7" y1="34.7" x2="152.5" y2="39"/>
	</g>
	<g>
		<line class="st10" x1="153.1" y1="34.2" x2="151.4" y2="38.7"/>
		<line class="st10" x1="153.1" y1="34.2" x2="151.4" y2="38.7"/>
	</g>
	<g>
		<line class="st10" x1="151.5" y1="33.9" x2="150.3" y2="38.5"/>
		<line class="st10" x1="151.5" y1="33.9" x2="150.3" y2="38.5"/>
	</g>
	<g>
		<line class="st10" x1="149.9" y1="33.7" x2="149.1" y2="38.4"/>
		<line class="st10" x1="149.9" y1="33.7" x2="149.1" y2="38.4"/>
	</g>
	<g>
		<line class="st10" x1="142.4" y1="32.9" x2="142.7" y2="38.8"/>
		<line class="st10" x1="142.4" y1="32.9" x2="142.7" y2="38.8"/>
	</g>
	<g>
		<line class="st10" x1="143.9" y1="32.7" x2="144" y2="38.6"/>
		<line class="st10" x1="143.9" y1="32.7" x2="144" y2="38.6"/>
	</g>
	<g>
		<line class="st10" x1="145.4" y1="33.2" x2="145.3" y2="38.4"/>
		<line class="st10" x1="145.4" y1="33.2" x2="145.3" y2="38.4"/>
	</g>
	<g>
		<line class="st10" x1="146.8" y1="33.1" x2="146.6" y2="38.3"/>
		<line class="st10" x1="146.8" y1="33.1" x2="146.6" y2="38.3"/>
	</g>
	<g>
		<line class="st10" x1="148.3" y1="33.2" x2="147.9" y2="38.3"/>
		<line class="st10" x1="148.3" y1="33.2" x2="147.9" y2="38.3"/>
	</g>
	<path class="st10" d="M141.7,39c0,0-0.5-1-0.6-5.3"/>
	<path class="st10" d="M154.5,39.8c0,0,2.1-1.2,2.6-3.9"/>
	<path class="st1" d="M85.3,66.9c0,0-0.2,1.1,1.4,1.8c0.9,0.4,1.9,0.4,2.8,0.2c1.8-0.4,2.6-1.1,2.1-2.2c-0.7,0.5-2,0.8-2,0.8
		l-1.4,0.2h-1.1L86,67.3L85.3,66.9z"/>
	<g>
		<path class="st13" d="M85.6,65.2c-0.1,0.3-0.2,0.6-0.2,0.9c0,0.3,0.2,0.5,0.4,0.6c0.4,0.3,1.1,0.4,1.7,0.5l-0.1,0l1.5-0.1
			c0.5,0,1-0.1,1.4-0.2c0.4-0.1,0.8-0.3,0.9-0.7c0.1-0.4,0-0.9-0.1-1.4c0.3,0.4,0.7,0.9,0.7,1.5c0,0.3-0.1,0.7-0.4,0.9
			c-0.2,0.3-0.5,0.4-0.8,0.5c-1.1,0.4-2.2,0.4-3.2,0.4l-0.1,0l0,0c-0.7-0.2-1.4-0.4-2-1c-0.3-0.3-0.4-0.8-0.3-1.2
			C85.1,65.7,85.3,65.4,85.6,65.2z"/>
	</g>
	<circle class="st16" cx="81" cy="60.2" r="0.5"/>
	<circle class="st16" cx="96.4" cy="60.2" r="0.5"/>
	<linearGradient id="SVGID_7_" gradientUnits="userSpaceOnUse" x1="90.4729" y1="146.3609" x2="90.4729" y2="126.3564">
		<stop  offset="0" style="stop-color:#672333"/>
		<stop  offset="0.2666" style="stop-color:#6A2433"/>
		<stop  offset="0.5306" style="stop-color:#732633"/>
		<stop  offset="0.7927" style="stop-color:#842A31"/>
		<stop  offset="1" style="stop-color:#972E2B"/>
	</linearGradient>
	<rect x="62.1" y="126.4" class="st17" width="56.8" height="20"/>
	<ellipse class="st18" cx="89" cy="131.3" rx="29.4" ry="8.4"/>
	<g>
		<path class="st19" d="M120.4,135.8H58.3c-2.2,0-4-1.8-4-4V97.3c0-2.2,1.8-4,4-4h62.1c2.2,0,4,1.8,4,4v34.4
			C124.4,134,122.6,135.8,120.4,135.8z"/>
	</g>
	<g>
		<path class="st13" d="M93.4,60.4c0.3-0.6,0.8-1,1.4-1.3c0.6-0.3,1.3-0.5,1.9-0.5c0.6,0,1.3,0.2,1.9,0.4c0.3,0.1,0.6,0.3,0.8,0.5
			c0.2,0.2,0.5,0.4,0.6,0.8c-0.5-0.3-1.1-0.4-1.6-0.6c-0.6-0.1-1.1-0.2-1.7-0.2c-0.5,0-1.1,0-1.6,0.2C94.5,59.9,94,60.1,93.4,60.4z"
			/>
	</g>
	<g>
		<path class="st13" d="M77.9,60.5c0.3-0.6,0.8-1.1,1.3-1.4c0.6-0.4,1.3-0.6,2-0.5c0.7,0,1.4,0.2,2,0.5c0.3,0.2,0.6,0.4,0.8,0.6
			c0.2,0.2,0.5,0.5,0.5,0.9c-0.5-0.4-1.1-0.6-1.6-0.7c-0.6-0.2-1.1-0.2-1.7-0.2c-0.6,0-1.1,0.1-1.6,0.2C79,59.9,78.5,60.2,77.9,60.5
			z"/>
	</g>
	<g>
		<path class="st20" d="M120.9,137.5H57.8c-1.9,0-3.5-1.6-3.5-3.5V98.5c0-1.9,1.6-3.5,3.5-3.5h63.2c1.9,0,3.5,1.6,3.5,3.5V134
			C124.4,135.9,122.8,137.5,120.9,137.5z"/>
	</g>
	<path class="st21" d="M42.7,164.9c0,0-7.8-0.5-12.2,10.3c-4.3,10.9,50.9-0.7,59.8,1.6c8.9,2.2,31.7,2.8,39.1,2.2
		c7.3-0.6,24-2.5,19.9-8c-4.8-6.4-11.6-9.7-22.2-10.5C116.4,159.8,42.7,164.9,42.7,164.9z"/>
	<path class="st2" d="M80.3,169.4c0,0-9.7,0.4-17.2,2.7c-8.3-6.1-4-14.2-4-14.2s15.8-4.6,18.8-5.6C77.6,161.8,80.3,169.4,80.3,169.4
		z"/>
	<path class="st1" d="M64.8,171.2c0,0,2.7-4.4,1.6-9.8c-3.2-1.3-2.7,0.7-2.7,0.7l-0.5,8L64.8,171.2z"/>
	<g>
		<radialGradient id="SVGID_8_" cx="51.6293" cy="167.0957" r="15.1568" gradientUnits="userSpaceOnUse">
			<stop  offset="0.7868" style="stop-color:#101011"/>
			<stop  offset="0.9077" style="stop-color:#16181B"/>
			<stop  offset="1" style="stop-color:#191B1F"/>
		</radialGradient>
		<path class="st22" d="M50.5,154.5c0,0-4.4-2-9.3,0c-0.1,0-0.2,0.1-0.3,0.2c-5.3,3.6-7,13.3-4.4,20.4c0.2,0.4,0.6,0.8,1.1,0.8
			c9.1,1.2,12.7,1.1,16.8-1.4c0.3-0.2,0.6-0.2,0.9-0.2c3.9,0.5,5.1,1,9-1.7c0.5-0.3,0.6-0.9,0.4-1.4c-1.2-2.5-2.9-6.5,0.4-11.5
			c0.5-0.7,0-1.6-0.9-1.8C51.3,154.9,50.5,154.5,50.5,154.5z"/>
		<path class="st23" d="M41.2,154.4c-0.1,0-0.2,0.1-0.3,0.2c-5.3,3.6-7,13.3-4.4,20.4c0.2,0.4,0.6,0.8,1.1,0.8
			c0.5,0.1,1,0.1,1.4,0.2c-1-2.3-4.4-11.6,1.9-19.5c1.5-1.8,2.9-2.1,5.7-2.8C45,153.5,43.1,153.6,41.2,154.4z"/>
		<path class="st23" d="M64.7,171.1c-0.3-0.6-0.6-1.4-0.9-2.2l-2.1,0.1c-0.6,0-1,0.5-1,1.1v0.6c0,0.1,0,0.2,0,0.3l0.5,1.9
			c0,0.1,0.1,0.3,0.1,0.4l0.4,0.8c0.7-0.3,1.6-0.8,2.6-1.5C64.8,172.2,65,171.6,64.7,171.1z"/>
		<path class="st10" d="M50.5,154.6c0,0-4.4-2-9.3,0c-0.1,0-0.2,0.1-0.3,0.2c-5.3,3.6-7,13.3-4.4,20.4c0.2,0.4,0.6,0.8,1.1,0.8
			c9.1,1.2,12.7,1.1,16.8-1.4c0.3-0.2,0.6-0.2,0.9-0.2c3.9,0.5,5.1,1,9-1.7c0.5-0.3,0.6-0.9,0.4-1.4c-1.2-2.5-2.9-6.5,0.4-11.5
			c0.5-0.7,0-1.6-0.9-1.8C51.3,155,50.5,154.6,50.5,154.6z"/>
		<path class="st10" d="M62,174.1c0,0-1.4-0.7-1.4-3.9"/>
		<path class="st15" d="M63.9,161.6c0,0,3.2,2.9,0.3,8.1c-2.6,0.5-6.8,0-11.4-0.4c-0.8-0.1-1.5-0.7-1.5-1.5
			c-0.1-1.9,0.1-3.7,0.3-4.7c0.1-0.5,0.4-0.8,0.9-0.9C54.3,161.9,59.2,161.1,63.9,161.6z"/>
		<path class="st24" d="M53.9,169.4c0,0,0.4-6.2,0.2-7.5c-1.2,0.2-1.2,0.2-1.2,0.2s-0.1,6-0.2,7.2C53.5,169.4,53.9,169.4,53.9,169.4
			z"/>
		<path class="st24" d="M53.7,170.5c0,0,3.3-7.4,3.2-8.8c-0.7,0.1-1,0.1-1.2,0.1c-0.1,0-0.2,0.1-0.3,0.2c-0.5,1.3-2.8,7.2-2.9,8.4
			C53.2,170.5,53.7,170.5,53.7,170.5z"/>
		<path class="st24" d="M55.7,169.6c0,0-3.1-7.6-3.1-9.1c1.3,0,1.3,0,1.3,0s3.1,8,3.4,9.3C56.4,169.9,55.7,169.6,55.7,169.6z"/>
		<path class="st24" d="M57.2,170.8c0.3-0.8,3-7.9,2.8-9.4c-0.7,0.1-1,0.1-1.2,0.1c-0.1,0-0.2,0.1-0.3,0.2c-0.5,1.3-2.4,7.2-2.6,8.7
			c0,0.1,0,0.1,0.1,0.1C56.6,170.7,57,170.8,57.2,170.8C57.1,170.9,57.2,170.9,57.2,170.8z"/>
		<path class="st24" d="M59.1,169.9c0,0-3.7-7.8-4-9.6c1.3,0,1.8-0.1,1.8-0.1s3.4,8.2,3.7,9.6C59.9,169.9,59.1,169.9,59.1,169.9z"/>
		<path class="st24" d="M60,170.8c0.6-1.5,3.2-7.9,3.1-9.3l-1.6-0.2c-0.4,1.2-2.5,7-2.9,9.1c-0.1,0.2,0.1,0.5,0.3,0.5l0.9,0.1
			C59.8,171.1,59.9,171,60,170.8z"/>
		<path class="st24" d="M62,169.5c0,0-3.5-7.6-3.8-9.3c1.3,0,1.8-0.1,1.8-0.1s3.2,8.1,3.6,9.5C62.8,169.5,62,169.5,62,169.5z"/>
		<path class="st25" d="M63.9,161.4c0,0,3.2,3,0.3,8.5c-2.6,0.6-6.9,0-11.6-0.4c-0.8-0.1-1.5-0.8-1.5-1.6c-0.1-2.1,0.1-3.9,0.3-4.9
			c0.1-0.5,0.4-0.9,0.9-1C54.1,161.6,59.1,160.9,63.9,161.4z"/>
		<path class="st24" d="M53.9,169.4c0,0,0.4-6.4,0.2-7.8c-1.2,0.2-1.2,0.2-1.2,0.2s-0.1,6.3-0.2,7.5
			C53.5,169.4,53.9,169.4,53.9,169.4z"/>
		<path class="st23" d="M54.1,161c0,0,1.1-1.2-0.9-1.1c-1.5,0.2-1.6,1-0.5,1.3"/>
		<path class="st23" d="M60.1,160.6c0,0,1.2-1.1-0.9-1c-1.6,0.2-1.7,0.9-0.6,1.1"/>
		<path class="st23" d="M57.2,160.8c0,0,1-1.2-1-1.1c-1.5,0.2-1.9,1-0.9,1.3"/>
		<path class="st23" d="M54,170c0,0,1,1.2-0.9,1c-1.4-0.2-1.5-1-0.5-1.2"/>
		<path class="st23" d="M60.1,170.7c0,0,0.8,1-0.9,0.9c-1-0.2-1.6-0.9-0.6-1.1"/>
		<path class="st23" d="M57.2,170.3c0,0,0.8,1-0.9,0.9c-1.2-0.2-1.5-0.9-0.7-1.1"/>
		<path class="st24" d="M53.7,170.5c0,0,3.3-7.7,3.1-9.3c-0.7,0.1-1,0.1-1.2,0.1c-0.1,0-0.2,0.1-0.3,0.2c-0.5,1.3-2.8,7.6-2.9,8.8
			C53.2,170.5,53.7,170.5,53.7,170.5z"/>
		<path class="st24" d="M56,170.1c-0.1,0-0.2-0.1-0.3-0.2c0,0,0-0.1-0.1-0.1c-0.1-0.4-2.9-8.9-3-9.1c0,0,0,0,0-0.1
			c0,0,0-0.1,0.1-0.1c0.2,0,0.3,0,0.4-0.1c0.1,0,0.3,0,0.4,0c0.1,0,0.1,0,0.2,0c0.2,0.1,0.3,0.3,0.3,0.4c0.1,0.4,1.4,4.1,3.3,9.3
			C56.7,170.3,56.2,170.2,56,170.1z"/>
		<path class="st24" d="M59,170.1c-0.5-1.1-3.2-7.3-3.8-9.4c-0.1-0.2,0.1-0.4,0.3-0.4c0.6,0,1,0,1.2,0c0.1,0,0.2,0.1,0.3,0.2
			c0.5,1.3,3.3,8.5,3.6,9.8c-0.5,0-1.1,0-1.3,0C59.1,170.2,59,170.2,59,170.1z"/>
		<path class="st24" d="M60,170.8c0.6-1.6,3.2-8.2,3-9.6l-1.6-0.2c-0.4,1.2-2.4,7.3-2.9,9.4c-0.1,0.2,0.1,0.5,0.3,0.5l0.9,0.1
			C59.8,171.1,59.9,171,60,170.8z"/>
		<path class="st24" d="M55.5,170.3l1.5,0.3c0.3-0.8,3.1-8.2,2.9-9.8c-0.7,0.1-1,0.1-1.2,0.1c-0.1,0-0.2,0.1-0.3,0.2
			C58,162.6,55.7,168.7,55.5,170.3"/>
		<path class="st24" d="M62,169.9c-0.5-1.1-3.1-7.3-3.6-9.5c0-0.2,0.1-0.3,0.3-0.4c0.6,0,1-0.1,1.2-0.1c0.1,0,0.3,0.1,0.3,0.2
			c0.5,1.3,3.2,8.4,3.5,9.8c-0.5,0.1-1.1,0.1-1.3,0.1C62.1,170.1,62,170,62,169.9z"/>
	</g>
	
		<linearGradient id="SVGID_9_" gradientUnits="userSpaceOnUse" x1="106.0633" y1="138.8299" x2="112.8762" y2="160.7825" gradientTransform="matrix(0.9322 -6.127213e-04 -6.127213e-04 0.9498 4.1485 7.719)">
		<stop  offset="0" style="stop-color:#C64C3C"/>
		<stop  offset="7.231060e-02" style="stop-color:#C85740"/>
		<stop  offset="0.1844" style="stop-color:#CA5D43"/>
		<stop  offset="0.4873" style="stop-color:#CA5F44"/>
		<stop  offset="0.7659" style="stop-color:#CA5E43"/>
		<stop  offset="0.8662" style="stop-color:#C6593E"/>
		<stop  offset="0.9375" style="stop-color:#C05036"/>
		<stop  offset="0.995" style="stop-color:#B7412A"/>
		<stop  offset="1" style="stop-color:#B63F28"/>
	</linearGradient>
	<path class="st26" d="M121.4,132.5c0,0,6.6-2.4,12.2,2.6c3.6,3.6,4.1,8.4,4,11.6c-0.1,2.7-2.6,6.3-5.1,7.1
		c-1.9,0.6-1.9,0.9-4.3,1.7c-5.8,2-31.3,14.5-48.6,15.8c0.3-8.2-0.8-12.9-5.8-17.4C78.1,148.3,109.5,136.6,121.4,132.5z"/>
	<path class="st27" d="M78.2,153.6c0,0-5.6-1.5-8.8,0.6c-0.4,0.3-0.5,0.9-0.2,1.3c2.2,3.1,4.4,10.9,2.1,14.6c-0.3,0.5,0,1.2,0.7,1.3
		c3.2,0.8,7.3,2.4,10.1-2.6C82.1,168.8,84.5,166.1,78.2,153.6z"/>
	<path class="st2" d="M102.5,150.6c0,0,10.3,4,18.5,5.8c4.4,9.4-3.7,14.9-3.7,14.9s-17-3.9-20.3-4.6
		C102.3,158.7,102.5,150.6,102.5,150.6z"/>
	<path class="st1" d="M110.8,153l1.2,2.5c0.2,0.4,0.2,0.9,0,1.3c-0.6,1-1.5,3.4-0.9,8.1c0.2,1.5-2.8,2.4-2.6,3.2
		c0.7,2.3,4.8,2.1,4.8,2.1l3.9-6.8l0.3-6.8l-2.1-3.6H110.8z"/>
	<path class="st28" d="M96.8,148.4c0,0,4.6-0.7,8,1.8c0.4,0.3,0.7,0.8,0.9,1.2c1.2,3.1,2.2,9.3-3.4,16.5c-0.6,0.8-1.6,1.3-2.6,1.3
		c-2.6,0-4.8,0.1-7.6-2.3"/>
	<linearGradient id="SVGID_10_" gradientUnits="userSpaceOnUse" x1="74.2137" y1="140.5382" x2="66.4532" y2="162.8885">
		<stop  offset="3.045685e-02" style="stop-color:#C64C3C"/>
		<stop  offset="0.2729" style="stop-color:#C95A42"/>
		<stop  offset="0.4873" style="stop-color:#CA5F44"/>
		<stop  offset="0.6607" style="stop-color:#C95C41"/>
		<stop  offset="0.8133" style="stop-color:#C4553A"/>
		<stop  offset="0.9575" style="stop-color:#BA462D"/>
		<stop  offset="1" style="stop-color:#B63F28"/>
	</linearGradient>
	<path class="st29" d="M94.9,146.3c0,0-31.7-11.9-39.9-13.4c-0.6-0.1-1.3-0.2-2-0.1c-6.1,0.5-9.4,5-9.9,6.8
		c-0.3,1.1-1.6,4.7-1.7,8.5c-0.1,3.6,1.8,6.9,4.9,8.5c7.4,4,20.1,8.2,46.1,11.3c1.6,0.2,3.1-0.6,4-2
		C100.2,160,100.7,148.2,94.9,146.3z"/>
	<g>
		<path class="st10" d="M118.8,156.4c0,0-0.8-1,1.1-0.8c1.1,0.3,1.7,1.1,0.6,1.2"/>
		<radialGradient id="SVGID_11_" cx="122.702" cy="163.559" r="22.9115" gradientUnits="userSpaceOnUse">
			<stop  offset="0.7868" style="stop-color:#101011"/>
			<stop  offset="0.9077" style="stop-color:#16181B"/>
			<stop  offset="1" style="stop-color:#191B1F"/>
		</radialGradient>
		<path class="st30" d="M104.8,168.5c-0.8,0.1-1.2,1-0.8,1.7c0.8,1.3,2.1,3.1,3.8,4c1.5,0.8,4,1,5.9,1c1.4,0,2.7-0.4,4-1
			c0.7-0.3,1.8-0.7,3.3-0.9c0.7-0.1,3.1,0,5,0.6c0.4,0.1,1.7,0.5,2.3,0.6c1.3,0.3,3.1,0.6,6.2,0.6c7.6,0.1,10.2-3.1,11.7-8.2
			c1.4-4.6,0.4-11-7.3-13.8c-4.2-1.2-7.8,1.6-10.7,2.1c-2.9,0.5-4.9,0.9-9.3-2.4c0,0-0.1,0-0.1-0.1c-3.8-2-6.5-1.8-8.1-1.2
			c-0.9,0.3-0.9,1.5-0.1,2c1.6,0.9,3.8,2.7,3.5,5.6c-0.8,3.7,0,5.2-1.6,6C111.1,166,109,167.9,104.8,168.5z"/>
		<path class="st15" d="M113.8,164.9c0,0-3.3-3.1,0.4-8.1c2.9-0.3,7.6,0.6,12.7,1.4c0.9,0.1,1.6,0.8,1.6,1.7
			c-0.1,1.9-0.5,3.7-0.7,4.6c-0.1,0.5-0.6,0.8-1.1,0.8C124.5,165.6,119,165.9,113.8,164.9z"/>
		<path class="st24" d="M125.6,158.1c0,0-1,6.1-0.9,7.4c1.3-0.1,1.3-0.1,1.3-0.1s0.7-6,0.9-7.1C126.1,158.2,125.6,158.1,125.6,158.1
			z"/>
		<path class="st24" d="M126,157c0,0-4.4,7-4.3,8.5c0.7,0,1.1,0,1.4,0c0.1,0,0.3,0,0.4-0.2c0.7-1.2,3.8-6.9,4-8.1
			C126.5,157.1,126,157,126,157z"/>
		<path class="st24" d="M123.7,157.8c0,0,2.8,7.8,2.7,9.3c-1.4-0.1-1.4-0.1-1.4-0.1s-2.8-8.2-3-9.5
			C122.9,157.4,123.7,157.8,123.7,157.8z"/>
		<path class="st24" d="M122.1,156.4c-0.4,0.8-4,7.6-3.9,9.1c0.7,0,1.1,0,1.4,0c0.1,0,0.3,0,0.3-0.2c0.6-1.3,3.3-7,3.6-8.5
			c0-0.1,0-0.1-0.1-0.2c-0.6-0.1-1-0.3-1.2-0.3C122.2,156.3,122.1,156.4,122.1,156.4z"/>
		<path class="st24" d="M119.9,157.1c0,0,3.4,8.2,3.6,9.9c-1.4-0.1-2-0.1-2-0.1s-3.1-8.5-3.3-9.9C119,157.1,119.9,157.1,119.9,157.1
			z"/>
		<path class="st24" d="M118.9,156.1c-0.8,1.4-4.3,7.6-4.2,9l1.8,0.3c0.6-1.2,3.3-6.8,4-8.8c0.1-0.2-0.1-0.5-0.3-0.5l-0.9-0.2
			C119.2,155.9,119,156,118.9,156.1z"/>
		<path class="st24" d="M116.6,157.3c0,0,3.2,7.9,3.4,9.7c-1.4-0.1-2-0.1-2-0.1s-2.9-8.3-3.2-9.8
			C115.7,157.2,116.6,157.3,116.6,157.3z"/>
		<path class="st10" d="M104.8,171.5c0,0,1.1-0.1,2.5-0.3c2.3-0.4,4.5-1.3,6.5-2.5c2.4-1.5,4.5-3.1,4.5-3.1"/>
		<path class="st10" d="M112.2,151.3c0,0,3.3,1.5,4.4,2.7s1.7,3,1.7,3"/>
		<path class="st23" d="M124.7,166.5c0,0-1.3,1.1,0.9,1.2c1.6,0,1.8-0.8,0.7-1.2"/>
		<path class="st23" d="M118,166.3c0,0-1.5,1,1,1.1c1.8,0,2-0.7,0.8-1.1"/>
		<path class="st23" d="M121.2,166.3c0,0-1.2,1.1,1,1.2c1.7,0,2.2-0.8,1.1-1.2"/>
		<path class="st23" d="M125.6,157.5c0,0-1-1.3,1.1-0.9c1.5,0.4,1.6,1.1,0.4,1.3"/>
		<path class="st23" d="M118.9,156.2c0,0-0.8-1,1.1-0.8c1.1,0.3,1.7,1.1,0.6,1.2"/>
		<path class="st23" d="M122,156.9c0,0-0.8-1.1,1-0.8c1.3,0.3,1.6,1,0.7,1.1"/>
		<path class="st10" d="M104.8,168.5c-0.8,0.1-1.2,1-0.8,1.7c0.8,1.3,2.1,3.1,3.8,4c1.5,0.8,4,1,5.9,1c1.4,0,2.7-0.4,4-1
			c0.7-0.3,1.8-0.7,3.3-0.9c0.7-0.1,3.1,0,5,0.6c0.4,0.1,1.7,0.5,2.3,0.6c1.3,0.3,3.1,0.6,6.2,0.6c7.6,0.1,10.2-3.1,11.7-8.2
			c1.4-4.6,0.4-11-7.3-13.8c-4.2-1.2-7.8,1.6-10.7,2.1c-2.9,0.5-4.9,0.9-9.3-2.4c0,0-0.1,0-0.1-0.1c-3.8-2-6.5-1.8-8.1-1.2
			c-0.9,0.3-0.9,1.5-0.1,2c1.6,0.9,3.8,2.7,3.5,5.6c-0.8,3.7,0,5.2-1.6,6C111.1,166,109,167.9,104.8,168.5z"/>
		<path class="st23" d="M139,153.1c-1.9-0.5-3.7-0.2-5.4,0.3c1.2-0.1,2.5,0,3.9,0.5c6.5,2.8,6.9,6.9,6.9,6.9l0.1,1.8
			c0.1,1-0.2,2.2-0.4,3.2c-0.8,3.3-2.3,5.9-4.3,6.9c-0.4,0.2-1.5,0.7-3.1,1c-0.6,0.1-1.6,0.4-3.2,0.3c-3.5-0.2-6.9-1.1-6.9-1.1
			s-5.6-2.1-9.4,0c-3.2,1.7-7.3,1.5-9.6,1.2c0.1,0,0.1,0.1,0.2,0.1c1.5,0.8,4,1,5.9,1c0.9,0,1.8-0.2,2.6-0.4l1.3-0.5l0.4-0.1
			c0.7-0.3,1.7-0.6,3.1-0.8c0.7-0.1,3.1,0,5,0.6c0.4,0.1,1.7,0.5,2.3,0.6c1.3,0.3,3.1,0.6,6.2,0.6c5,0,7.8-1.3,9.6-3.7l0.3-0.3
			c0.3-0.4,0.5-0.8,0.7-1.2l0.4-0.9c0.1-0.3,0.3-0.7,0.4-1l0.3-1c0.1-0.2,0.1-0.4,0.2-0.6l0.3-1.6
			C147.2,160.5,145.5,155.5,139,153.1z"/>
		<path class="st23" d="M117.4,165.5l-4.3-0.6c-0.1,0.2-0.3,0.3-0.6,0.4c-1.5,0.7-3.6,2.6-7.8,3.3c-0.8,0.1-1.2,1-0.8,1.7
			c0.2,0.4,0.6,0.9,0.9,1.4l0.9-0.1l2-0.5l2.5-0.7l3.3-1.7l3.8-2.6L117.4,165.5z"/>
		<path class="st23" d="M118.2,157.3l-1.5-2.9c-0.2-0.3-0.7-1.1-1-1.3l-1.8-1.3c-0.1,0-0.1-0.1-0.2-0.1l-0.9-0.4
			c-0.8,0.1-1.4,0.2-2,0.4c-0.9,0.3-0.9,1.5-0.1,2c1.2,0.7,2.7,1.8,3.3,3.5h2.5l1.5,0.7L118.2,157.3z"/>
		<g>
			<path class="st25" d="M112.4,164.8c-0.7-0.9-2.3-3.5,0.1-7.1c0.4-0.6,1.1-1,1.8-1c3.2,0,7.9,0.8,12.9,1.6c1,0.2,1.8,0.9,1.7,1.7
				c-0.1,2-0.5,3.8-0.8,4.8c-0.1,0.5-0.6,0.8-1.2,0.9c-2.3,0.2-8.1,0.5-13.7-0.4C112.8,165.1,112.6,165,112.4,164.8z"/>
			<path class="st24" d="M125.6,158.1c0,0-1,6.1-0.9,7.4c1.3-0.1,1.3-0.1,1.3-0.1s0.7-6,0.9-7.1
				C126.1,158.2,125.6,158.1,125.6,158.1z"/>
			<path class="st24" d="M126,157c0,0-4.4,7.5-4.3,9.1c0.7,0,1.1,0,1.4,0c0.1,0,0.3-0.1,0.4-0.2c0.7-1.3,3.8-7.4,4-8.6
				C126.5,157.1,126,157,126,157z"/>
			<path class="st24" d="M123.7,157.8c0,0,3.1,9.4,2.7,9.3l-1.2-0.1c-0.2,0-0.3-0.1-0.3-0.3c-0.5-1.4-2.7-8.1-2.9-9.3
				C122.9,157.4,123.7,157.8,123.7,157.8z"/>
			<path class="st24" d="M120.1,157.1c0.5,1.2,2.8,7.3,3.3,9.5c0.1,0.2-0.1,0.5-0.4,0.4c-0.6,0-1-0.1-1.3-0.1
				c-0.1,0-0.3-0.1-0.3-0.2c-0.5-1.4-2.9-8.7-3.1-10c0.6,0,1.2,0.1,1.5,0.1C119.9,156.9,120,156.9,120.1,157.1z"/>
			<path class="st24" d="M118.9,156.1c-0.8,1.5-4.3,7.8-4.2,9.3l2,0.2c0.6-1.2,3.2-6.8,3.9-8.9c0.1-0.2-0.1-0.5-0.3-0.5l-0.9-0.2
				C119.2,155.9,119,156,118.9,156.1z"/>
			<path class="st24" d="M123.9,156.8l-1.3-0.2c-0.2,0-0.3,0-0.4,0.2c-0.8,1.5-4.1,7.7-4,9.2c0.7,0,1.1,0,1.4,0c0.1,0,0.3,0,0.3-0.2
				C120.5,164.4,123.5,158.4,123.9,156.8"/>
			<path class="st24" d="M117,156.8c0,0,2.6,7.8,3,9.9c0,0.1-0.1,0.3-0.2,0.3c-0.6,0-1,0-1.3,0c-0.3,0-0.5-0.2-0.6-0.4
				c-0.6-1.7-2.6-8.6-2.8-9.8C115.9,156.7,117,156.8,117,156.8z"/>
		</g>
	</g>
	<g>
		<path class="st31" d="M93.7,123.8l0.2,0c0.5-0.1,0.8-0.5,0.7-1c-0.1-0.5-0.5-0.8-1-0.7l-0.8,0.1c-0.6-1.2-1.2-2.5-1.8-4.1l0.5-0.1
			c0.5-0.1,0.8-0.5,0.7-1s-0.5-0.8-1-0.7l-0.8,0.1c-1.2-3.6-1.6-5.1-2.4-9.6l0-1c0,0,0,0-0.1,0c-0.1-0.5-0.3-2.4-1.5-2.2
			c0,0,0,0,0,0c0,0,0,0,0,0c-0.1-0.4-0.6-2.4-0.8-2.5c-0.2,0.3,0,2,0.1,2.6c0,0,0,0,0,0c-1.1,0.2-0.8,2.1-0.6,2.6
			c-0.1,0-0.1,0-0.1,0l0.4,0.9c0.6,3.8,0.9,7.1,1,9.9l-0.7,0.1c-0.5,0.1-0.8,0.5-0.7,1c0.1,0.5,0.5,0.8,1,0.7l0.4-0.1
			c0,1.7-0.1,3.2-0.3,4.5l-0.7,0.1c-0.5,0.1-0.8,0.5-0.7,1c0.1,0.5,0.5,0.8,1,0.7l0.2,0c-0.7,3.7-1.7,5.2-1.7,5.2l2.8-0.5
			c0,0,0-3.1,3.3-3.8c3.3-0.5,4.3,2.4,4.3,2.4l2.8-0.5C97.1,128.1,95.6,127,93.7,123.8z M87.5,119.8l0-1.1l2.2-0.4l0.4,1l1.5,3.1
			l-4.5,0.8L87.5,119.8z"/>
	</g>
	<g>
		<path class="st32" d="M114.8,120.5l1.9-1.1l-1.7-0.5l-0.8,0.5l-0.2-1c0.4-0.1,0.7-0.1,0.7-0.1l-1.4-4.5c0,0,0,0,0,0
			c0.1-0.3,0.2-0.9,0.3-1.8c0.3-0.3,0.6-0.9,0.6-1.7l1,0l-1-0.3c0,0,0,0,0,0c-0.1-0.3-0.2-0.5-0.3-0.7l1.2-0.8l-1.5,0.5
			c-0.2-0.2-0.4-0.3-0.6-0.4l0.2-1.7l-0.6,1.6c-0.2,0-0.5-0.1-0.8-0.1l-1.1-1.1l0.7,1.3c-0.1,0.2-0.3,0.4-0.4,0.6l-1.2-0.3l1,0.6
			c-0.2,0.5-0.4,1.2-0.2,2c-0.1,0.3-0.2,0.5-0.2,0.6l-1.2-0.6c-0.3-1.4-0.5-3.5-0.5-4.2c0.2-0.6,0.4-1,0.3-1.2c0,0,0,0,0,0l0.9-0.9
			l-0.5-0.1c0.9-0.6,0.8-1,0.8-1s-0.2,0.4-0.7,0.6c0.9-0.6,0.4-1.6,0.4-1.6s0,0.4-0.3,0.6c0.2-0.3-0.1-0.7-0.5-1.1
			c0,0.7-0.6,0.5-0.7,0.3c-0.5,0.5-0.5,1.2-0.2,1.5c-0.1,0-0.2-0.1-0.4-0.3c-0.1,0.5,0.5,0.8,0.5,0.8l-0.5-0.1l0.2,0.9c0,0,0,0,0,0
			c-0.3,0.2-0.1,0.4-0.1,0.4c-0.3,0.2,0,0.6,0,0.5c-0.3,0.2,0,0.4,0,0.5c0,0.1,0.2,0.1,0.4,0.2c-0.3,1.4,0.1,5,0.2,5.6l-0.6,0.8
			c0,0,0,0.4,0.3,1.8c0.1,0.5,0,1.5-0.3,2.5c-1.4,2.9-2.8,6.3-3.2,8.2c0.2-0.1,0.5-0.1,0.8-0.2c-0.1,0.4-0.2,0.8-0.4,1l-1-0.2
			l-0.3,1.2l-0.6-0.1l-0.4,1.4l8.8,2.2l0.4-1.4l-0.6-0.1l0.3-1.2l-0.5-0.1c0-1.9,0.3-3.4,0.7-4.4c0.5-0.2,0.8-0.5,1.1-0.7
			c0-0.6,0.1-1.2,0.1-1.8l0.7-0.4c0,0,0.1,0.1,0.1,0.1c0.3,0,0.3-0.2,0.3-0.2s0.3,0.3,0.5-0.2c0,0,0.3,0.3,0.3-0.2
			C114.9,120.6,114.8,120.5,114.8,120.5z M113.1,119.2c0,0,0.1-0.1,0.1-0.1l0.2,0.9l-0.3,0.2C113,119.8,113.1,119.5,113.1,119.2z"/>
	</g>
	<g>
		<path class="st33" d="M78.7,125.3l-0.9-3.4l-0.8-3.1l-0.9-3.4l-0.6-2.2l0,0l-0.4-1.7l-1.4,0.4l0.2,0.8l-0.6,0.2l-1.2,0.3l-0.2-0.8
			l-1.4,0.4l0.2,0.8l-1.5,0.4l-0.4,0.1l-0.2-0.8l-1.4,0.4l0.2,0.8l-0.4,0.1l-1.5,0.4l-0.2-0.8l-1.4,0.4l0.2,0.8l-1.2,0.3l-0.6,0.2
			l-0.2-0.8l-1.4,0.4l0.2,0.8l0,0l0.8,3.1l0.9,3.4l0.8,3.1l0.9,3.4l-0.5,0.1l0.3,1.2l3.1-0.8l-0.3-1.2l-0.5,0.1l-0.7-2.7
			c0-0.3,0-0.7,0.8-0.9c1.1-0.3,1.3,0.6,1.3,0.6l0.6,2.5l-0.5,0.1l0.3,1.2l3.1-0.8l-0.3-1.2l-0.5,0.1l-0.7-2.8
			c0-0.3,0.1-0.7,0.8-0.9c1-0.3,1.3,0.4,1.4,0.6l0.7,2.5l-0.5,0.1l0.3,1.2l3.1-0.8l-0.3-1.2l-0.5,0.1l-0.6-2.5l0,0c0,0,0,0,0,0
			l-0.1-0.2c0-0.3,0-0.7,0.8-0.9c0.9-0.2,1.2,0.3,1.3,0.6l0.7,2.5l-0.5,0.1l0.3,1.2l3.1-0.8l-0.3-1.2L78.7,125.3z M68,118.1
			c0-0.3,0.1-0.7,0.8-0.9c1-0.3,1.3,0.4,1.4,0.6l0.7,2.5l-2.1,0.6L68,118.1z M72.9,119.9l-0.6-2.5l0,0c0,0,0,0,0,0l-0.1-0.2
			c0-0.3,0-0.7,0.8-0.9c0.9-0.2,1.2,0.3,1.3,0.6l0.7,2.6L72.9,119.9z M64,119.3c0-0.3,0-0.7,0.8-0.9c1.1-0.3,1.3,0.6,1.3,0.6
			l0.6,2.5l-2,0.5L64,119.3z"/>
	</g>
</g>
<g>
	<g>
		<path class="st34" d="M47.8,103c0,0-6.7-1.9-6.9-6.1c1.1-4.1,10.2-17-3.5-24S6.7,73.8,4,85.8S12,103,18.6,103
			c11.5,0,16.2-4.4,16.2-4.4S36.7,103.6,47.8,103z"/>
	</g>
	<g>
		<path class="st31" d="M129.8,113.4c0,0,4.2-0.1,5.4-3.6c-1.7-4.4-9.3-14.3,5-23s41.6-0.2,36.1,17c-5.5,17.2-37.3,8.9-37.3,8.9
			S136.9,115.5,129.8,113.4z"/>
	</g>
	<g>
		<path class="st35" d="M36.2,122.6c0,0-22.5-15-32.8,12.8c-1.3,3.4-2.9,9.5-0.2,13.9c4.9,7.9,22.9,7.7,31.9-1.2
			c3.5-3.5,8.3-11,8.4-18.2c0-1.7-0.6-3.4-1.6-4.8c-2.8-4,1.7-7.9,4.6-7.7C40.4,117,37.8,118,36.2,122.6z"/>
	</g>
	<g>
		<path class="st16" d="M14.1,85.9c0.1-0.1,0.1-0.2,0.3-0.2c0.1,0,0.2,0,0.3,0c0.1,0.1,0.2,0.2,0.4,0.5c0.1,0.3,0.4,1,0.8,2.2
			c0.5,1.4,0.8,2.3,1,2.8c0.2,0.4,0.3,0.6,0.3,0.8c0,0.1,0,0.2,0,0.3c0,0.2-0.1,0.3-0.3,0.3c-0.2,0.1-0.4,0-0.6-0.2
			c-0.1-0.1-0.2-0.4-0.5-1.1c-0.3-0.6-0.5-1.2-0.6-1.7L15,89l-0.2,0.1c-0.8,0.4-1.4,0.7-1.8,0.9L12.8,90l0.5,1.5
			c0.1,0.2,0.2,0.5,0.3,0.9c0.1,0.4,0.2,0.7,0.1,0.8c-0.1,0.1-0.2,0.2-0.3,0.3c-0.2,0.1-0.4,0-0.6-0.3c-0.1-0.2-0.4-1-0.9-2.6
			c-0.5-1.6-0.8-2.5-0.9-2.6c-0.1-0.1-0.1-0.2-0.1-0.3c0,0,0-0.1,0-0.2c0.1-0.2,0.2-0.4,0.4-0.4c0.1,0,0.1,0,0.1,0
			c0.2,0,0.4,0,0.4,0.1c0.1,0.1,0.2,0.4,0.4,0.9l0.3,0.9l0,0c0.2-0.1,0.7-0.3,1.5-0.7l0.5-0.3l-0.3-1c-0.1-0.5-0.2-0.7-0.2-0.8
			C14.1,86.1,14.1,86,14.1,85.9z"/>
		<path class="st16" d="M18.2,86.2c0.2-0.1,0.4-0.2,0.5-0.3c0.2-0.1,0.4-0.1,0.6,0c0.3,0,0.5,0.1,0.7,0.3s0.4,0.4,0.6,0.6
			c0.1,0.1,0.1,0.2,0.2,0.3c0.1,0.4,0.1,0.8-0.2,1.3s-0.7,0.8-1.2,1.1c-0.1,0.1-0.3,0.1-0.4,0.2c-0.1,0-0.2,0-0.2,0l-0.3,0l0.2,0.6
			c0.1,0.4,0.2,0.6,0.4,0.8c0.1,0.1,0.2,0.2,0.2,0.2s0.1,0,0.3,0l0.1,0c0.2-0.1,0.4-0.2,0.7-0.5c0.3-0.3,0.6-0.5,0.7-0.6
			c0.1,0,0.2,0,0.3,0c0.1,0.1,0.2,0.2,0.2,0.3c0.1,0.3-0.2,0.7-0.7,1.2c-0.2,0.2-0.4,0.4-0.5,0.4c-0.1,0.1-0.3,0.1-0.5,0.2
			c-0.2,0.1-0.4,0.1-0.5,0.1c-0.1,0-0.2,0-0.4-0.1c-0.2-0.1-0.5-0.2-0.7-0.5c-0.2-0.2-0.3-0.3-0.4-0.4s-0.2-0.4-0.3-0.8l-0.1-0.3
			c-0.4-1.4-0.4-2.6,0-3.4C17.9,86.5,18,86.3,18.2,86.2z M19.3,86.9c-0.1,0-0.2,0-0.3,0c-0.1,0-0.2,0.1-0.4,0.3
			c-0.1,0.1-0.2,0.4-0.2,0.7c-0.1,0.3-0.1,0.5,0,0.7l0,0.2l0.4-0.1c0.3-0.1,0.5-0.2,0.6-0.3c0.1-0.1,0.2-0.3,0.3-0.5
			c0.1-0.2,0.1-0.3,0.1-0.4c0-0.1-0.1-0.2-0.2-0.3S19.4,86.9,19.3,86.9z"/>
		<path class="st16" d="M21.4,83.6c0.1-0.1,0.1-0.1,0.2-0.1c0.1,0,0.3,0,0.4,0.1c0.2,0.1,0.2,0.2,0.3,0.3c0,0.1,0.1,0.3,0.1,0.7
			c0.1,0.7,0.4,1.9,0.9,3.6c0,0.1,0,0.2,0.1,0.3c0,0.1,0.1,0.2,0.1,0.2c0.4,1.1,0.7,1.7,1,1.8c0.2,0.1,0.3,0.2,0.3,0.3
			c0,0.1,0,0.2,0,0.4c-0.1,0.2-0.2,0.3-0.3,0.3c-0.1,0-0.3,0-0.6-0.1c-0.3-0.2-0.5-0.4-0.8-0.8c-0.2-0.4-0.5-1-0.7-1.9
			c-0.1-0.4-0.2-0.7-0.3-1c-0.4-1.4-0.6-2.4-0.7-2.9C21.2,84.1,21.3,83.7,21.4,83.6z"/>
		<path class="st16" d="M24,82.8c0.1-0.1,0.1-0.1,0.2-0.1c0.1,0,0.3,0,0.4,0.1c0.2,0.1,0.2,0.2,0.3,0.3c0,0.1,0.1,0.3,0.1,0.7
			c0.1,0.7,0.4,1.9,0.9,3.6c0,0.1,0,0.2,0.1,0.3c0,0.1,0.1,0.2,0.1,0.2c0.4,1.1,0.7,1.7,1,1.8c0.2,0.1,0.3,0.2,0.3,0.3
			c0,0.1,0,0.2,0,0.4c-0.1,0.2-0.2,0.3-0.3,0.3c-0.1,0-0.3,0-0.6-0.1c-0.3-0.2-0.5-0.4-0.8-0.8c-0.2-0.4-0.5-1-0.7-1.9
			c-0.1-0.4-0.2-0.7-0.3-1c-0.4-1.4-0.6-2.4-0.7-2.9C23.8,83.3,23.9,83,24,82.8z"/>
		<path class="st16" d="M28.3,83.4c0.1-0.1,0.2-0.1,0.3-0.1c0.3-0.1,0.6-0.1,1-0.1c0.4,0,0.7,0.1,0.9,0.3c0.3,0.2,0.5,0.4,0.6,0.6
			c0.1,0.2,0.3,0.6,0.5,1.2c0.1,0.5,0.2,0.8,0.2,0.9c0,0.1,0,0.3,0,0.6c0,0.4-0.1,0.6-0.1,0.8c0,0.2-0.1,0.3,0,0.3
			c0,0-0.1,0.2-0.2,0.4c-0.2,0.2-0.3,0.4-0.4,0.5c-0.2,0.2-0.4,0.3-0.7,0.4c-0.3,0.1-0.7,0.1-1,0c-0.3-0.1-0.6-0.3-0.9-0.5
			c-0.4-0.4-0.7-0.9-0.8-1.5c-0.1-0.3-0.2-0.6-0.2-0.9c-0.1-0.5-0.1-1,0-1.6c0.1-0.4,0.2-0.7,0.3-0.9C27.8,83.7,28,83.6,28.3,83.4z
			 M29.5,84.3c-0.2,0-0.4,0-0.6,0c-0.1,0-0.2,0.1-0.3,0.2c-0.1,0.1-0.1,0.2-0.2,0.3c-0.1,0.1-0.1,0.2-0.1,0.3c0,0.1,0,0.2,0,0.5
			c0,0.3,0,0.6,0.1,1.1c0,0.1,0,0.2,0.1,0.3c0.2,0.6,0.4,1,0.8,1.2c0.2,0.1,0.4,0.1,0.6,0c0.1,0,0.3-0.1,0.3-0.1
			c0.1-0.1,0.1-0.2,0.2-0.4c0.1-0.2,0.1-0.3,0.2-0.4s0-0.2,0-0.4c0-0.2,0-0.3,0-0.4c0-0.2,0-0.4-0.1-0.7c0,0,0-0.1-0.1-0.2
			c0-0.1,0-0.1-0.1-0.2c-0.1-0.5-0.3-0.8-0.4-0.9C30,84.4,29.8,84.3,29.5,84.3z"/>
	</g>
	<g>
		<path class="st16" d="M138.7,95.3c0.1-0.1,0.2-0.1,0.3-0.1c0.1,0,0.1,0,0.2,0.1c0.1,0.1,0.2,0.1,0.6,0.1c0.7,0.1,1.2,0.3,1.5,0.8
			c0.2,0.3,0.3,0.5,0.3,0.8c0,0.1,0,0.2-0.1,0.3c0,0.1-0.1,0.2-0.3,0.3c-0.1,0.1-0.3,0.2-0.4,0.3c-0.1,0-0.2,0.1-0.2,0.1
			c0,0,0.1,0.1,0.3,0.2c0.3,0.2,0.5,0.4,0.7,0.6c0.2,0.2,0.2,0.5,0.2,0.7c0,0.2-0.1,0.3-0.2,0.5c-0.1,0.1-0.3,0.3-0.5,0.4
			s-0.4,0.2-0.6,0.2c-0.5,0.1-0.8,0.2-1.1,0.2c-0.2,0-0.4,0-0.4,0.1c-0.1,0-0.1,0.1-0.2,0.1c-0.1,0-0.2-0.1-0.3-0.2
			c-0.1-0.1-0.1-0.2-0.1-0.3c0-0.2,0.1-1,0.1-2.3c0-1.3,0.1-2.1,0.1-2.4c0-0.1,0-0.1,0-0.2C138.5,95.5,138.6,95.4,138.7,95.3z
			 M140.6,98.9c-0.2-0.1-0.4-0.2-0.6-0.3c-0.2-0.1-0.3-0.1-0.4-0.1c0,0-0.1,0-0.1,0c-0.1,0-0.1,0-0.2,0l-0.2,0l0,0.4
			c0,0.3,0,0.5,0,0.7c0,0.2,0,0.3,0,0.3c0,0,0.1,0,0.1,0.1c0.1,0,0.2,0,0.5,0c0.2,0,0.4-0.1,0.6-0.1c0.1,0,0.3-0.1,0.4-0.2
			c0.1-0.1,0.2-0.2,0.2-0.2c0,0,0-0.1,0-0.1C140.9,99.2,140.8,99.1,140.6,98.9z M140.3,96.4c-0.2-0.1-0.4-0.2-0.7-0.2
			c0,0-0.1,0-0.2,0l-0.1,0l0,0.7c0,0.5,0,0.7,0,0.8l0,0c0.1,0,0.2-0.1,0.6-0.2s0.6-0.3,0.7-0.3l0.2-0.2l-0.1-0.2
			C140.6,96.5,140.4,96.4,140.3,96.4z"/>
		<path class="st16" d="M144.2,96.9c0.1,0,0.2,0,0.2,0c0.2,0,0.5,0.1,0.7,0.2c0.3,0.1,0.5,0.3,0.6,0.5c0.2,0.2,0.3,0.4,0.3,0.6
			c0,0.2,0,0.5,0,1c0,0.4-0.1,0.6-0.1,0.7c0,0.1-0.1,0.2-0.1,0.4c-0.1,0.3-0.2,0.4-0.3,0.5c-0.1,0.1-0.1,0.2-0.1,0.2
			c0,0-0.1,0.1-0.3,0.2c-0.2,0.1-0.3,0.2-0.5,0.3c-0.2,0.1-0.4,0.1-0.6,0.1c-0.3,0-0.5-0.1-0.7-0.3c-0.2-0.2-0.4-0.4-0.5-0.6
			c-0.2-0.4-0.2-0.8-0.2-1.3c0-0.3,0.1-0.5,0.1-0.7c0.1-0.4,0.2-0.7,0.5-1.1c0.2-0.3,0.3-0.4,0.5-0.5
			C143.8,97,143.9,96.9,144.2,96.9z M144.8,97.9c-0.2-0.1-0.3-0.2-0.4-0.2c-0.1,0-0.2,0-0.2,0c-0.1,0-0.1,0.1-0.2,0.2
			c-0.1,0.1-0.1,0.1-0.1,0.2c0,0.1,0,0.2-0.1,0.4c-0.1,0.2-0.2,0.5-0.2,0.8c0,0.1,0,0.1,0,0.2c0,0.5,0,0.8,0.2,1.1
			c0.1,0.1,0.2,0.2,0.4,0.2c0.1,0,0.2,0,0.3,0s0.1-0.1,0.3-0.2c0.1-0.1,0.2-0.2,0.2-0.2c0-0.1,0.1-0.1,0.1-0.3
			c0-0.1,0.1-0.2,0.1-0.3c0.1-0.1,0.1-0.3,0.1-0.5c0,0,0-0.1,0-0.1c0-0.1,0-0.1,0-0.1c0-0.4,0-0.6,0-0.8
			C145.1,98.1,145,98,144.8,97.9z"/>
		<path class="st16" d="M149.3,97.4c0.2-0.1,0.3-0.2,0.5-0.2c0.3,0,0.5,0.2,0.6,0.4c0.1,0.3,0.1,0.7,0,1.4c-0.1,0.6-0.2,1.5-0.4,2.7
			c-0.1,0.4-0.2,0.5-0.5,0.5c-0.2,0-0.3-0.1-0.3-0.1c-0.1-0.1-0.1-0.2-0.1-0.4c0-0.1,0-0.3,0.1-0.6c0.2-0.9,0.3-1.6,0.3-2.2
			c0-0.4,0-0.6,0-0.6c-0.1,0-0.3,0.3-0.7,0.9c-0.4,0.6-0.8,1.3-1.1,1.8c-0.2,0.3-0.3,0.5-0.4,0.6c-0.1,0.1-0.2,0.1-0.3,0.1
			c0,0-0.1,0-0.1,0c-0.2-0.1-0.3-0.2-0.3-0.5c0-0.3,0-0.7,0-1.3c0-0.4,0.1-0.7,0.1-0.9c0.1-0.7,0.2-1.2,0.2-1.4s0.1-0.3,0.2-0.4
			c0.1,0,0.1-0.1,0.2-0.1c0.1,0,0.2,0,0.3,0.1s0.1,0.2,0.1,0.2c0,0,0,0.4-0.1,1.2c0,0.4-0.1,0.6-0.1,0.6c0,0.2,0,0.3,0,0.3
			c0,0,0.2-0.2,0.5-0.7C148.5,98.1,149,97.6,149.3,97.4z"/>
		<path class="st16" d="M153.2,98c0.1-0.1,0.2-0.1,0.3-0.1c0.1,0,0.2,0,0.2,0.1c0.1,0.1,0.1,0.3,0.1,0.6c0,0,0,0.1,0,0.2
			s0,0.2,0,0.2c0,0.1,0,0.2,0,0.2c0.1,0.9,0.1,1.7,0,2.5c0,0.5-0.1,1-0.2,1.2c-0.3,0.8-0.7,1.1-1.3,1.1c-0.3,0-0.5-0.1-0.7-0.3
			c-0.2-0.2-0.3-0.4-0.5-0.7c-0.1-0.2-0.1-0.4-0.2-0.7c0-0.3-0.1-0.5,0-0.6c0,0,0-0.1,0-0.1c0.1-0.2,0.2-0.3,0.4-0.2
			c0.1,0,0.2,0.1,0.2,0.1c0,0.1,0.1,0.3,0.1,0.5c0.1,0.8,0.3,1.1,0.7,1.2l0,0c0.1,0,0.1,0,0.2,0c0,0,0.1-0.1,0.1-0.2
			c0.2-0.3,0.3-0.7,0.3-1.3c0-0.3,0-0.7,0-1.3c0-0.6,0-1-0.1-1.4c0-0.4,0-0.6,0-0.7C153.1,98.2,153.1,98.1,153.2,98z M153.1,96.6
			c0.1-0.1,0.2-0.1,0.3-0.1c0.1,0,0.2,0.1,0.3,0.2c0.1,0.1,0.1,0.2,0.1,0.4c0,0.1,0,0.2-0.1,0.3c-0.1,0.1-0.2,0.1-0.3,0.1
			c-0.1,0-0.1,0-0.2-0.1c-0.2-0.1-0.3-0.3-0.3-0.4C153,96.7,153,96.6,153.1,96.6z"/>
		<path class="st16" d="M156.4,97.9c0.1,0,0.2,0,0.2,0c0.2,0,0.5,0.1,0.7,0.2s0.5,0.3,0.6,0.5c0.2,0.2,0.3,0.4,0.3,0.6
			c0,0.2,0,0.5,0,1c0,0.4-0.1,0.6-0.1,0.7s-0.1,0.2-0.1,0.4c-0.1,0.3-0.2,0.4-0.3,0.5c-0.1,0.1-0.1,0.2-0.1,0.2c0,0-0.1,0.1-0.3,0.2
			c-0.2,0.1-0.3,0.2-0.5,0.3c-0.2,0.1-0.4,0.1-0.6,0.1c-0.3,0-0.5-0.1-0.7-0.3c-0.2-0.2-0.4-0.4-0.5-0.6c-0.2-0.4-0.2-0.8-0.2-1.3
			c0-0.3,0.1-0.5,0.1-0.7c0.1-0.4,0.2-0.7,0.5-1.1c0.2-0.3,0.3-0.4,0.5-0.5C155.9,98,156.1,98,156.4,97.9z M157,98.9
			c-0.2-0.1-0.3-0.2-0.4-0.2c-0.1,0-0.2,0-0.2,0c-0.1,0-0.1,0.1-0.2,0.2c-0.1,0.1-0.1,0.1-0.1,0.2c0,0.1,0,0.2-0.1,0.4
			c-0.1,0.2-0.2,0.5-0.2,0.8c0,0.1,0,0.1,0,0.2c0,0.5,0,0.8,0.2,1.1c0.1,0.1,0.2,0.2,0.4,0.2c0.1,0,0.2,0,0.3,0
			c0.1,0,0.1-0.1,0.3-0.2c0.1-0.1,0.2-0.2,0.2-0.2s0.1-0.1,0.1-0.3c0-0.1,0.1-0.2,0.1-0.3c0.1-0.1,0.1-0.3,0.1-0.5c0,0,0-0.1,0-0.1
			c0-0.1,0-0.1,0-0.2c0-0.4,0-0.6,0-0.8S157.2,99,157,98.9z"/>
		<path class="st16" d="M162.3,98.2c0.1,0,0.1,0,0.1,0c0.1,0,0.2,0,0.3,0.1c0.1,0.1,0.2,0.1,0.2,0.2c0,0,0,0.1,0,0.2
			c0,0.2,0,0.4-0.1,0.6c0,0.2-0.1,0.7-0.2,1.4c0,0.3-0.1,0.7-0.1,1.2s-0.1,0.8-0.1,0.9c0,0.1-0.1,0.1-0.1,0.2
			c-0.1,0.1-0.2,0.1-0.3,0.1c-0.1,0-0.1-0.1-0.2-0.2c-0.2-0.2-0.2-0.6-0.2-1.2c0-0.3,0-0.5,0-0.5s-0.1,0.1-0.2,0.2
			c-0.2,0.2-0.3,0.4-0.6,0.7s-0.4,0.3-0.5,0.4c-0.1,0-0.3,0.1-0.4,0.1c-0.3,0-0.6-0.2-0.8-0.6c-0.1-0.3-0.2-0.7-0.3-1.2s0-1.1,0-1.8
			c0-0.2,0-0.4,0.1-0.5c0-0.1,0.1-0.1,0.1-0.2c0.1-0.1,0.2-0.1,0.3-0.1c0.1,0,0.2,0.1,0.3,0.2c0.1,0.1,0.1,0.3,0,0.7
			c-0.1,0.7-0.1,1.3,0,1.9c0.1,0.6,0.2,0.8,0.3,0.9c0,0,0.1-0.1,0.4-0.3c0.5-0.6,1-1.4,1.3-2.6C162,98.4,162.1,98.2,162.3,98.2z"/>
		<path class="st16" d="M163.8,98.9c0.1-0.1,0.2-0.1,0.3-0.1c0.1,0,0.2,0.1,0.3,0.1c0.1,0.1,0.1,0.2,0.1,0.3c0,0.1,0,0.2,0,0.2
			l-0.1,0.3l0.4-0.3c0.2-0.2,0.4-0.3,0.5-0.4c0.1-0.1,0.3-0.1,0.5-0.1c0.1,0,0.1,0,0.2,0c0.4,0.1,0.7,0.2,0.8,0.5c0,0.1,0,0.2,0,0.3
			c-0.1,0.2-0.2,0.2-0.4,0.2c-0.1,0-0.2,0-0.3-0.1c-0.2-0.1-0.3-0.1-0.4-0.1c-0.2,0-0.4,0.2-0.7,0.5c-0.1,0.2-0.2,0.5-0.4,0.9
			c-0.1,0.4-0.2,0.7-0.2,0.9c0,0,0,0,0,0c0,0,0,0,0,0c0,0,0,0.1,0,0.1c0,0.1,0,0.1-0.1,0.2c-0.1,0.1-0.2,0.2-0.3,0.1
			c-0.2,0-0.3-0.1-0.4-0.3c-0.1-0.3-0.2-1-0.1-2.1c0-0.3,0-0.6,0-0.6C163.5,99.2,163.6,99,163.8,98.9z"/>
	</g>
	<g>
		<path class="st16" d="M11.4,138.6c0.1,0.4-0.1,0.9-0.5,1c-0.4,0.1-0.8-0.1-1-0.6c-0.1-0.4,0.1-0.9,0.5-1
			C10.9,137.9,11.2,138.2,11.4,138.6z M12.1,146.8l-1.4-6l0.9-0.2l1.8,5.9L12.1,146.8z"/>
		<path class="st16" d="M15.3,134.2c0.1-0.1,0.2-0.2,0.3-0.2c0.1,0,0.2,0,0.3,0c0.1,0.1,0.2,0.2,0.3,0.5c0.1,0.3,0.3,1,0.7,2.2
			c0.4,1.4,0.7,2.3,0.9,2.8c0.1,0.4,0.2,0.6,0.3,0.8c0,0.1,0,0.2,0,0.3c-0.1,0.2-0.2,0.3-0.3,0.3c-0.2,0.1-0.4,0-0.5-0.2
			c-0.1-0.1-0.2-0.4-0.5-1.1c-0.2-0.6-0.4-1.2-0.6-1.7l-0.2-0.8l-0.2,0.1c-0.9,0.4-1.5,0.7-1.8,0.8l-0.2,0.1l0.4,1.5
			c0.1,0.2,0.2,0.5,0.2,0.9c0.1,0.4,0.1,0.7,0.1,0.8c-0.1,0.1-0.2,0.2-0.3,0.3c-0.2,0.1-0.4,0-0.6-0.3c-0.1-0.2-0.3-1-0.8-2.6
			c-0.4-1.6-0.7-2.5-0.8-2.6c-0.1-0.1-0.1-0.2-0.1-0.3c0,0,0-0.1,0-0.2c0.1-0.2,0.2-0.4,0.4-0.4c0.1,0,0.1,0,0.1,0
			c0.2,0,0.4,0,0.4,0.1c0.1,0.1,0.2,0.4,0.4,1l0.3,0.9l0,0c0.2-0.1,0.7-0.3,1.5-0.7l0.5-0.3l-0.2-1c-0.1-0.5-0.2-0.7-0.2-0.8
			C15.2,134.4,15.2,134.3,15.3,134.2z"/>
		<path class="st16" d="M19.5,134.8c0.1,0,0.2-0.1,0.3-0.1c0.3-0.1,0.6-0.1,1-0.1c0.4,0,0.7,0.1,0.9,0.3c0.3,0.2,0.5,0.4,0.6,0.6
			c0.1,0.2,0.3,0.6,0.4,1.2c0.1,0.5,0.2,0.8,0.2,0.9s0,0.3,0,0.6c-0.1,0.4-0.1,0.6-0.2,0.8c-0.1,0.2-0.1,0.3-0.1,0.3
			c0,0.1-0.1,0.2-0.2,0.4s-0.3,0.4-0.5,0.5c-0.2,0.2-0.5,0.3-0.7,0.4c-0.3,0.1-0.7,0.1-1,0c-0.3-0.1-0.6-0.3-0.9-0.5
			c-0.4-0.4-0.6-0.9-0.8-1.5c-0.1-0.3-0.1-0.6-0.2-0.9c-0.1-0.5,0-1,0.1-1.6c0.1-0.4,0.2-0.7,0.3-0.9
			C19,135.1,19.2,134.9,19.5,134.8z M20.7,135.7c-0.2,0-0.4,0-0.6,0c-0.1,0-0.2,0.1-0.3,0.2c-0.1,0.1-0.1,0.2-0.2,0.3
			c-0.1,0.1-0.1,0.2-0.1,0.3c0,0.1,0,0.2,0,0.5c0,0.3,0,0.6,0.1,1.1c0,0.1,0,0.2,0.1,0.3c0.2,0.6,0.4,1,0.7,1.2
			c0.2,0.1,0.4,0.1,0.6,0.1c0.2,0,0.3-0.1,0.3-0.1c0.1-0.1,0.1-0.2,0.3-0.4c0.1-0.1,0.1-0.3,0.2-0.4c0-0.1,0-0.2,0-0.4
			c0-0.2,0-0.3,0-0.4c0-0.2,0-0.4-0.1-0.7c0,0,0-0.1,0-0.2c0-0.1,0-0.1-0.1-0.2c-0.1-0.5-0.3-0.8-0.4-0.9
			C21.2,135.9,21,135.8,20.7,135.7z"/>
		<path class="st16" d="M23.1,131.9c0.1-0.1,0.1-0.1,0.2-0.1c0.1,0,0.3,0,0.4,0.1c0.1,0.1,0.2,0.2,0.3,0.3c0,0.1,0.1,0.3,0.1,0.7
			c0.1,0.7,0.3,1.9,0.8,3.6c0,0.1,0,0.2,0.1,0.3c0,0.1,0.1,0.2,0.1,0.2c0.3,1.1,0.6,1.7,0.9,1.9c0.2,0.1,0.3,0.2,0.3,0.3
			c0,0.1,0,0.2-0.1,0.4c-0.1,0.2-0.2,0.3-0.3,0.3c-0.1,0-0.3,0-0.6-0.1c-0.3-0.2-0.5-0.4-0.7-0.9c-0.2-0.4-0.4-1-0.7-1.9
			c-0.1-0.4-0.2-0.7-0.3-1c-0.3-1.4-0.5-2.4-0.6-2.9C22.9,132.4,22.9,132,23.1,131.9z"/>
		<path class="st16" d="M27.6,133.1c0.1-0.1,0.3-0.1,0.4-0.2c0.2-0.1,0.4-0.1,0.7,0c0.2,0,0.4,0,0.6,0c0.2,0,0.3,0,0.4,0.1
			c0.1,0,0.2,0.1,0.2,0.2c0,0.1,0.1,0.2,0.1,0.4c0.2,0.6,0.4,1.2,0.6,1.9c0.3,0.7,0.5,1.1,0.6,1.3c0,0.1,0.1,0.1,0.1,0.1
			c0,0.1,0,0.3-0.1,0.4c-0.1,0.1-0.2,0.2-0.3,0.2c-0.1,0-0.1,0-0.2,0c-0.1,0-0.2-0.1-0.4-0.3c-0.1-0.2-0.3-0.3-0.3-0.6
			c-0.1-0.2-0.2-0.3-0.2-0.3c0,0-0.1,0.2-0.2,0.5c-0.2,0.4-0.3,0.7-0.5,0.9c-0.2,0.2-0.4,0.4-0.7,0.4l-0.2,0c-0.1,0-0.3,0-0.5-0.2
			c-0.2-0.1-0.4-0.2-0.5-0.4c-0.3-0.4-0.5-0.8-0.6-1.2c0-0.2-0.1-0.3-0.1-0.5c-0.1-0.6,0-1.2,0.2-1.8
			C26.9,133.7,27.2,133.3,27.6,133.1z M28.5,133.9c-0.1,0-0.2,0-0.2,0c0,0-0.1,0.1-0.2,0.1c-0.3,0.2-0.4,0.5-0.6,1
			c-0.1,0.5-0.1,0.9,0,1.3c0,0.2,0.1,0.4,0.2,0.6c0.1,0.2,0.2,0.3,0.3,0.4c0.1,0,0.1,0,0.2,0c0.2-0.1,0.4-0.4,0.6-1
			c0.1-0.2,0.1-0.5,0.1-0.6c0-0.2,0-0.5,0-0.9c0-0.3,0-0.5-0.1-0.6C28.9,134,28.7,133.9,28.5,133.9z"/>
		<path class="st16" d="M30.8,129.6C30.8,129.6,30.8,129.6,30.8,129.6c0.3-0.1,0.5,0,0.6,0.1c0.1,0.1,0.3,0.6,0.5,1.6l0.3,1.2
			l0.7,2.7l-0.1,0.2c-0.1,0.1-0.2,0.2-0.3,0.2s-0.2,0-0.4-0.1l-0.2-0.1l-0.7-2.7c-0.4-1.3-0.6-2.1-0.6-2.4c-0.1-0.3-0.1-0.4,0-0.5
			C30.7,129.7,30.7,129.6,30.8,129.6z M32.4,136.4c0.1-0.2,0.2-0.3,0.4-0.3c0.2,0,0.3,0,0.4,0.1c0.1,0.1,0.2,0.2,0.3,0.4
			c0,0.2,0,0.3-0.1,0.5c-0.1,0.1-0.2,0.2-0.4,0.3c-0.2,0-0.3,0-0.5-0.1c-0.1-0.1-0.2-0.2-0.3-0.3C32.3,136.7,32.4,136.6,32.4,136.4z
			"/>
	</g>
	<g>
		<path class="st16" d="M169,102.7c0.1-0.1,0.3-0.1,0.4-0.1c0.1,0,0.2,0.1,0.3,0.2c0.1,0.1,0.1,0.2,0.1,0.4c0,0.1-0.1,0.2-0.2,0.3
			s-0.2,0.1-0.3,0.1c-0.1,0-0.2-0.1-0.3-0.2c-0.1-0.1-0.1-0.2-0.1-0.3C168.8,102.8,168.9,102.7,169,102.7z M170.3,97.4
			C170.3,97.4,170.3,97.4,170.3,97.4c0.2,0,0.3,0.1,0.4,0.3c0,0.1,0,0.5-0.2,1.3l-0.2,0.9l-0.5,2.1l-0.2,0.1
			c-0.1,0.1-0.2,0.1-0.3,0.1c-0.1,0-0.2-0.1-0.2-0.2l-0.1-0.1l0.5-2.2c0.2-1,0.4-1.7,0.4-1.9c0.1-0.2,0.1-0.3,0.2-0.3
			C170.2,97.4,170.2,97.4,170.3,97.4z"/>
	</g>
	<g>
		<path class="st16" d="M33.4,79.7C33.4,79.7,33.5,79.7,33.4,79.7c0.3-0.1,0.5,0,0.6,0.2c0.1,0.1,0.2,0.7,0.4,1.7l0.2,1.2l0.4,2.7
			l-0.2,0.2c-0.1,0.1-0.2,0.2-0.3,0.2s-0.2,0-0.4-0.1l-0.2-0.1l-0.4-2.8c-0.2-1.4-0.3-2.2-0.3-2.5c0-0.3,0-0.4,0.1-0.5
			C33.3,79.8,33.4,79.7,33.4,79.7z M34.3,86.7c0.1-0.2,0.3-0.2,0.4-0.3c0.2,0,0.3,0,0.4,0.1c0.1,0.1,0.2,0.2,0.2,0.4
			c0,0.2,0,0.3-0.1,0.5c-0.1,0.1-0.2,0.2-0.4,0.2c-0.2,0-0.3,0-0.5-0.2c-0.1-0.1-0.2-0.2-0.2-0.4C34.1,87,34.2,86.8,34.3,86.7z"/>
	</g>
</g>
</svg>
