<?xml version="1.0" encoding="utf-8"?>
<!-- Generator: Adobe Illustrator 22.0.0, SVG Export Plug-In . SVG Version: 6.00 Build 0)  -->
<svg version="1.1" id="Camada_1" xmlns="http://www.w3.org/2000/svg" xmlns:xlink="http://www.w3.org/1999/xlink" x="0px" y="0px"
	 viewBox="0 0 250 250" style="enable-background:new 0 0 250 250;" xml:space="preserve">
<style type="text/css">
	.st0{fill:#F1F0F0;}
	.st1{fill:#C12930;}
	.st2{fill:#CE7385;}
	.st3{fill:#EEF6F7;}
	.st4{fill:#C12A26;}
	.st5{fill:#CA616D;}
	.st6{fill:#C7525D;}
	.st7{fill:#CF767E;}
	.st8{fill:#225099;}
	.st9{fill:#F0F3F2;}
	.st10{fill:#F0F0F0;}
	.st11{fill:#EFF6F5;}
	.st12{fill:#214894;}
	.st13{fill:#D997A5;}
	.st14{fill:#C13042;}
	.st15{fill:#C12A2D;}
	.st16{fill:#7499C5;}
	.st17{fill:#FDF9F4;}
	.st18{fill:#C65368;}
	.st19{fill:#EAD2D6;}
	.st20{fill:#EFF5F3;}
	.st21{fill:#EFEFF0;}
	.st22{fill:#EAEDF0;}
	.st23{fill:#C12A2A;}
	.st24{fill:#204894;}
	.st25{fill:#FAF6F2;}
	.st26{fill:#F9F5F2;}
	.st27{fill:#97B2D1;}
	.st28{fill:#96B1D1;}
	.st29{fill:#204994;}
	.st30{fill:#B5C7DD;}
	.st31{fill:#C1292B;}
</style>
<g>
	<path class="st0" d="M5.3,156.9c-1.4-3.8-2.2-7.8-2.7-11.8c-0.9-6.4-1.8-12.9-1.6-19.5c1.3-1,2.8-0.7,4.2-0.7c40,0,80,0,120.1,0
		c40.2,0,80.4,0,120.6,0c1.4,0,2.9-0.4,4.2,0.7c0,2.2,0,4.5,0,6.7c-0.5,3.6-0.3,7.3-0.7,10.9c-0.4,4.1-1.5,8-2.3,12
		c-0.2,0.8-0.5,1.8-1.6,1.8c-1.4-0.1-2.9-0.1-4.3-0.1c-77.5,0-154.9,0-232.4,0C7.5,157.1,6.4,157.2,5.3,156.9z"/>
	<path class="st1" d="M245.6,92.5c2,6.8,3.1,13.8,3.8,20.9c0.1,0.6-0.3,1.3,0.5,1.7c0,0.5,0,1,0,1.4c-0.5,0.9-0.1,2-0.2,2.9
		c0.1,1.1-0.3,2.2,0.2,3.3c0,0.5,0,1,0,1.4c-1.3,1-2.8,0.7-4.2,0.7c-38.4,0-76.7,0-115.1,0c-1.4,0-2.9,0-4.3,0.1
		c-0.3,0-0.6-0.1-0.9-0.4c-0.6-0.9-0.5-1.8-0.5-2.8c0-8.8,0-17.6,0-26.4c0-1-0.1-1.9,0.5-2.8c0.2-0.3,0.5-0.4,0.8-0.6
		c1.2-0.4,2.4-0.3,3.6-0.3c37.2,0,74.4,0,111.6,0C242.9,91.7,244.4,91.4,245.6,92.5z"/>
	<path class="st1" d="M200.5,223.8c-7.5,6.3-16,10.9-24.9,14.8c-12.5,5.6-25.7,8.8-39.3,10.1c-0.4,0-0.8,0-1,0.5c-1.4,0-2.9,0-4.3,0
		c-1.1-0.4-2.2-0.4-3.4,0c-1.4,0-2.9,0-4.3,0c-1.3-0.4-2.6-0.4-3.9,0c-1.4,0-2.9,0-4.3,0c-2.4-1.2-5.1-1-7.6-1.4
		c-12.2-1.7-23.9-5.2-35-10.5c-7.8-3.7-15.4-7.9-22-13.5c0.4-1,1.3-1.1,2.2-1.2c0.7-0.1,1.4,0,2.2,0c47.1,0,94.3,0,141.4,0
		C197.7,222.6,199.5,222,200.5,223.8z"/>
	<path class="st2" d="M125.7,124.7c0.2,0,0.4,0,0.6-0.1c0.9-0.3,1.7-0.2,2.6-0.2c39.5,0,79,0,118.5,0c0.9,0,1.8-0.2,2.6,0.2
		c0,0.2,0,0.3,0,0.5c-0.9,0.5-1.9,0.2-2.8,0.2c-40.3,0-80.7,0-121,0c-0.3,0-0.6-0.1-0.9-0.3C125.1,124.8,125.3,124.6,125.7,124.7z"
		/>
	<path class="st3" d="M125.4,125.1c1,0,2.1,0.1,3.1,0.1c40.5,0,81,0,121.4,0c0,0.2,0,0.3,0,0.5c-41.6,0-83.2,0-124.7,0
		c-0.1-0.1-0.2-0.2-0.2-0.3c0-0.1,0-0.2,0.1-0.2C125.2,125.1,125.3,125.1,125.4,125.1z"/>
	<path class="st4" d="M250,124.7c-40.3,0-80.6,0-120.9,0c-1,0-1.9,0-2.9-0.1c0.8-0.7,1.8-0.4,2.8-0.4c40.3,0,80.7,0,121,0
		C250,124.4,250,124.5,250,124.7z"/>
	<path class="st5" d="M119.5,249.2c1.3-0.8,2.6-0.6,3.9,0C122,249.2,120.8,249.2,119.5,249.2z"/>
	<path class="st6" d="M250,122.8c-0.9-1-0.4-2.3-0.4-3.4c0.2-0.2,0.3-0.2,0.4,0C250,120.5,250,121.6,250,122.8z"/>
	<path class="st5" d="M127.7,249.2c1.1-0.6,2.2-0.9,3.4,0C129.9,249.2,128.8,249.2,127.7,249.2z"/>
	<path class="st7" d="M250,119.4c-0.1,0-0.3,0-0.4,0c0.1-1-0.5-2,0.4-2.8C250,117.5,250,118.4,250,119.4z"/>
	<path class="st8" d="M59.4,19.4c6.8-3.9,13.7-7.6,21.1-10.4c14.3-5.4,29-8.4,44.3-8.3c0.9,0.9,0.7,2.1,0.7,3.2c0,6.6,0,13.2,0,19.9
		c0,1-0.1,1.9,0.2,2.9c0.1,0.1,0.1,0.3,0.2,0.4c0.1,0.1,0.1,0.3,0.2,0.4c0.1,0.3,0.2,0.6,0.3,0.9c0.1,0.3,0.1,0.6,0.1,0.9
		c0,10.1,0.2,20.2-0.1,30.2c0,0.3-0.1,0.6-0.2,0.9c-0.1,0.3-0.3,0.5-0.4,0.8c-0.2,0.6-0.2,1.3-0.2,1.9c0,9.8-0.1,19.5,0,29.3
		c0,0.3,0,0.6,0,0.9c0,9.7-0.1,19.4,0,29.1c0,2-0.7,2.8-2.6,2.7c-0.6,0-1.1,0-1.7,0c-38.7,0-77.5,0-116.2,0c-1.3,0-2.8,0.4-3.9-0.7
		c-0.2-5,0.4-9.9,0.9-14.9c1.2-2.1,3.3-3.2,5.3-4.4c1.1-0.7,2.2-0.1,3.1,0.6c2.3,1.6,4.6,3.2,7.1,5.2c-0.6-2.7-1.5-5-2.3-7.4
		c-1.1-3.3-1-3.6,1.8-5.6c2.1-1.5,4.3-3,6.5-4.7c-3.1,0-6.1,0-9.1,0c-1.7,0-2.8-0.6-3.2-2.3c-0.7-2.8-2.4-5.4-2.3-8.5
		c0.7-3.6,2.7-6.6,3.8-10.1c2.2-0.8,3.1,1.5,4.8,2c-0.4-2.5-2-4.8-1.9-7.4c1.3-2.6,2.4-5.3,4.7-7.2c0.6-1.3,2-1.7,3-2.6
		c-0.5-0.4-1.7-0.4-1.2-1.6c4.7-6.4,9.5-12.7,15.2-18.2c2.1-2.1,4.3-4.1,6.5-6.1c0.4-0.4,0.8-0.8,1.4-0.7c0.8,0.8,0.3,1.7,0,2.5
		c-0.6,1.9-1.2,3.8-1.8,5.7c2.5-2.1,5.3-3.8,7.8-5.8c1.2-0.9,2.2-0.7,3.3,0.1c2.5,1.8,4.9,3.6,7.5,5.5c-0.7-3-1.7-5.7-2.6-8.4
		c-0.6-1.7-0.2-3.1,1.4-4.1c2.2-1.4,4.2-3.2,6.4-4.7c0.2-0.2,0.4-0.3,0.3-0.6c-2-0.3-4.1,0-6.1-0.1C60.7,20.4,59.6,20.8,59.4,19.4z"
		/>
	<path class="st1" d="M245.6,157.4c-2.9,11.1-7.5,21.6-13.3,31.4c-0.3,0.5-0.8,0.8-1.1,1.2c-1.1,1.1-2.6,0.7-3.9,0.7
		c-23.2,0-46.4,0-69.6,0c-44.5,0-89.1,0-133.6,0c-1.4,0-2.9,0.4-4.1-0.7c-1.8-1.4-2.5-3.5-3.5-5.4c-4.8-8.6-8.5-17.7-11-27.2
		c0.8-0.7,1.8-0.5,2.8-0.5c78.2,0,156.5,0,234.7,0C243.8,156.9,244.8,156.7,245.6,157.4z"/>
	<path class="st0" d="M231.2,190.6c-7.2,12.6-18.2,21.7-28.3,31.7c-0.3-0.1-0.6-0.2-0.9-0.2c-1-0.1-2.1-0.1-3.1-0.1
		c-48.9,0-97.8,0-146.7,0c-1,0-2.1,0-3.1,0.1c-0.3,0.1-0.6,0.1-0.9,0.2c-10.1-10-21.1-19.2-28.3-31.7c0.8-0.4,1.7-0.2,2.6-0.2
		c68.7,0,137.5,0,206.2,0C229.5,190.3,230.4,190.1,231.2,190.6z"/>
	<path class="st0" d="M245.6,92.5c-38.8,0-77.7,0-116.5,0c-1,0-1.9-0.1-2.9-0.1c-0.9-0.8-0.7-1.9-0.7-2.9c0-8.8,0-17.5,0-26.3
		c0-1-0.1-2.1,0.6-3c1.2-0.9,2.6-0.6,4-0.6c32.2,0,64.5,0,96.7,0c1.5,0,3.1,0.1,4.5-0.3C237.6,69.7,242.7,80.7,245.6,92.5z"/>
	<path class="st1" d="M231.4,59.3c-0.5,1.5-1.8,0.8-2.6,0.8c-33.2,0-66.4,0-99.6,0c-1,0-1.9,0.1-2.9,0.1c-0.2,0.1-0.4,0.1-0.4-0.2
		c-0.4-4.8-0.1-9.6-0.2-14.4c0-5.7,0.1-11.5,0.1-17.2c0.9-0.8,2.1-0.7,3.2-0.7c24.5,0,49,0,73.4,0c0.3,0,0.6,0.1,0.9,0.2
		c9.8,7.8,18.3,17,25.3,27.4C229.5,56.7,230.4,58,231.4,59.3z"/>
	<path class="st0" d="M126.2,0.6c17.7,0.1,34.6,3.8,50.7,11.1c8.5,3.8,16.3,8.6,23.8,14.1c0.2,0.2,0.4,0.5,0.6,0.7
		c-0.8,0.8-1.9,0.7-3,0.7c-23.1,0-46.3,0-69.4,0c-1,0-1.9,0.1-2.8-0.5c-0.7-0.9-0.6-2-0.6-3c0-6.7,0-13.4,0-20.2
		C125.5,2.6,125.4,1.5,126.2,0.6z"/>
	<path class="st0" d="M8.8,82.3c1,2.8,2,5.5,2.8,8.3c0.4,1.3,1,1.9,2.5,1.8c3.5-0.1,7,0,11.2,0c-3.3,2.4-5.9,4.4-8.7,6.2
		c-1.6,1-1.8,2-1.2,3.7c1.2,3.1,2.1,6.3,3.2,9.9c-3.4-2.5-6.3-4.5-9.2-6.7c-0.9-0.7-1.6-0.7-2.5,0c-1.6,1.3-3.4,2.4-5,3.7
		c1-8.5,3-16.8,5.8-24.9C8,83.7,8,82.8,8.8,82.3z"/>
	<path class="st9" d="M245.6,157.4c-0.9,0-1.8-0.1-2.6-0.1c-78.3,0-156.6,0-235,0c-0.9,0-1.8,0-2.6,0.1c0-0.2,0-0.3,0-0.5
		c0.7-0.8,1.6-0.5,2.5-0.5c78.5,0,156.9,0,235.4,0c0.8,0,1.8-0.3,2.5,0.5C245.7,157.1,245.6,157.2,245.6,157.4z"/>
	<path class="st10" d="M59.4,19.4c1.4,1.2,3,0.4,4.5,0.6c1.5,0.1,3-0.1,4.5,0.1c1.5,0.1,0.7,0.6,0,0.9c-2.9-0.7-5.7-0.1-8.6-0.4
		c2.7,0.4,5.5-0.8,8.1,0.8c-2.4,1.8-4.7,3.6-7.1,5.3c-1.1,0.8-1.4,1.6-0.9,2.8c1.1,3.3,2.2,6.6,3.5,10.6c-3.3-2.4-6.1-4.3-8.8-6.4
		c-1.2-1-2.1-0.9-3.3,0c-2.7,2.1-5.5,4-8.7,6.3c0.8-3.5,2.3-6.3,2.7-9.4c0.8-2.3,3.2-3,4.8-4.4C53,23.6,56.3,21.6,59.4,19.4z"/>
	<path class="st11" d="M231.2,190.6c-70.5,0-140.9,0-211.4,0c0-0.2,0-0.4,0.1-0.6c0.8,0,1.6-0.1,2.4-0.1c68.8,0,137.7,0,206.5,0
		c0.8,0,1.6,0.1,2.4,0.1C231.2,190.2,231.2,190.4,231.2,190.6z"/>
	<path class="st12" d="M1.1,124.2c40.4,0,80.7,0,121.1,0c3.1,0,3.1,0,3.1-3.2c0-9.5,0-19.1,0-28.6c0.1,0,0.2-0.1,0.2-0.1
		c0.1,0,0.1,0.1,0.2,0.1c-0.3,10.7-0.1,21.5-0.1,32.2c-0.1,0-0.2,0-0.3,0.1c-0.9,0.5-1.9,0.4-2.8,0.4c-39.6,0-79.1,0-118.7,0
		c-0.9,0-1.9,0.2-2.8-0.5C1,124.5,1,124.4,1.1,124.2z"/>
	<path class="st13" d="M202.8,221.9c0,0.2,0,0.3,0.1,0.4c-0.2,0.2-0.4,0.3-0.6,0.5c-1.8,0.2-3.5,0-5.3,0c-47.7,0-95.3,0-143,0
		c-1.8,0-3.5,0.2-5.3,0c-0.2-0.2-0.4-0.3-0.6-0.5c0.1-0.1,0.1-0.3,0.1-0.4c0.7-0.5,1.6-0.3,2.3-0.3c50,0,99.9,0,149.9,0
		C201.2,221.6,202.1,221.3,202.8,221.9z"/>
	<path class="st14" d="M48.7,222.7c0.6-0.8,1.5-0.4,2.2-0.4c49.7,0,99.4,0,149.1,0c0.8,0,1.6-0.3,2.2,0.4c-0.3,0.2-0.6,0.4-0.9,0.5
		c-1.7-0.3-3.3-0.3-5-0.3c-47.2,0-94.4,0-141.6,0c-1.7,0-3.4,0-5,0.3C49.3,223.1,49,222.9,48.7,222.7z"/>
	<path class="st15" d="M49.7,223.3c0.7-0.8,1.6-0.5,2.5-0.5c48.9,0,97.8,0,146.7,0c0.8,0,1.8-0.3,2.5,0.5c-0.3,0.2-0.5,0.4-0.8,0.5
		c-0.9-0.6-2-0.6-3-0.6c-48,0-96,0-144.1,0c-1,0-2.1,0-3,0.6C50.2,223.6,49.9,223.5,49.7,223.3z"/>
	<path class="st16" d="M1.1,124.6c40.4,0,80.8,0,121.2,0c1,0,2.1,0,3.1,0.1c0.1,0.1,0.1,0.2,0.1,0.3c0,0-0.2,0.1-0.2,0.1
		c-0.8,0.4-1.7,0.2-2.6,0.2c-39.7,0-79.4,0-119.1,0c-0.9,0-1.8,0.3-2.6-0.3C1,124.9,1,124.8,1.1,124.6z"/>
	<path class="st17" d="M1,125.1c9.8,0,19.6,0,29.4,0.1c31.6,0,63.2,0,94.9,0c0,0.1,0,0.3,0,0.4c-41.4,0-82.8,0-124.3,0
		C1,125.5,1,125.3,1,125.1z"/>
	<path class="st18" d="M203.3,28c-0.2,0-0.4,0.1-0.6,0.1c-0.6,0.2-1.3,0.1-1.9,0.1c-24.3,0-48.7,0-73,0c-0.7,0-1.4,0.2-2.1-0.2
		c-0.1-0.1-0.1-0.3,0-0.4c0.7-0.7,1.7-0.5,2.5-0.5c23.7,0,47.5,0,71.2,0c1.1,0,2.2,0.1,3.3,0.4C203,27.7,203.1,27.8,203.3,28z"/>
	<path class="st19" d="M202.8,27.5c-21.3,0-42.6,0-63.9,0.1c-4.4,0-8.8,0-13.2,0l-0.1-0.1c0-0.3,0.2-0.6,0.5-0.6c0.3,0,0.6,0,0.9,0
		c24.1,0,48.1,0,72.2,0c0.9,0,1.8-0.2,2.6,0.2C202.1,27.2,202.5,27.4,202.8,27.5z"/>
	<path class="st20" d="M201.8,27.1c-25.2,0-50.4,0-75.6,0c-0.1-0.1-0.2-0.2-0.1-0.3c0-0.1,0.1-0.2,0.1-0.2c25,0,50.1,0,75.1,0
		C201.5,26.7,201.7,26.9,201.8,27.1z"/>
	<path class="st21" d="M15.5,66.8c1,2.9,2,5.7,3.1,8.9c-2.6-0.9-3.8-3.1-6.1-3.4C13.5,70.5,14.5,68.6,15.5,66.8z"/>
	<path class="st16" d="M125.8,27.1c0,0.1-0.1,0.3-0.2,0.4c-0.1,0.1-0.2,0.1-0.3,0.1c-0.2-0.3-0.3-0.6-0.3-0.9c0-8.4,0-16.8,0-25.3
		c0-0.3,0.1-0.5,0.2-0.7c0.1-0.1,0.3-0.1,0.5,0c0.1,0.1,0.2,0.3,0.2,0.4C125.9,9.7,126.2,18.4,125.8,27.1z"/>
	<path class="st12" d="M125.2,0.7c0,8.9,0,17.9,0.1,26.8c-0.9-0.7-0.5-1.6-0.5-2.4c0-8.1,0-16.2,0-24.4
		C124.9,0.6,125.1,0.6,125.2,0.7z"/>
	<path class="st17" d="M125.8,27.1c0-8.8-0.1-17.6-0.1-26.4c0.2,0,0.4,0,0.5,0c0,8.7,0,17.3,0,26c0,0.2,0,0.3,0,0.5c0,0-0.2,0-0.2,0
		L125.8,27.1z"/>
	<path class="st22" d="M22.1,55.5c0.2,1.6,1.6,0.4,2.4,1.2c-1.2,1.3-2.6,2.3-4.3,3.1C20.1,57.9,21.4,56.8,22.1,55.5z"/>
	<path class="st17" d="M125.8,60.1c0.2,0,0.3,0,0.4,0.2c0,10.7,0,21.4,0,32.1c-0.2,0-0.3,0.1-0.5,0.1l-0.1-0.1
		c-0.4-0.6-0.4-1.4-0.4-2.1c0-9.3,0-18.5,0-27.8c0-0.7-0.1-1.4,0.4-2.1C125.7,60.3,125.7,60.2,125.8,60.1z"/>
	<path class="st0" d="M81.4,92.5c3.5,0,7,0,10.5,0c1.2,0,1.8-0.3,2.2-1.6c1-3.4,2.2-6.8,3.5-10.7c1.2,3.7,2.3,6.9,3.3,10.2
		c0.4,1.5,1.1,2.2,2.8,2.1c3.4-0.2,6.7,0,10.9,0c-3,2.2-5.2,4.1-7.8,5.6c-2.5,1.4-2.7,3-1.7,5.4c1.1,2.7,1.9,5.6,3,8.9
		c-3.2-2.3-6.1-4.3-8.8-6.4c-1.3-1-2.1-0.9-3.3,0.1c-2.7,2.1-5.5,4-8.7,6.4c1.1-3.4,1.8-6.5,3-9.3c1-2.4,0.4-3.5-1.6-4.8
		c-2.6-1.6-4.9-3.5-7.4-5.3C81.3,92.8,81.3,92.6,81.4,92.5z"/>
	<path class="st0" d="M69.3,92.9c-2.8,2-5.5,4.1-8.3,6c-1.2,0.8-1.5,1.6-1,2.9c1.1,3.2,2.2,6.5,3.4,10.5c-3.3-2.4-6-4.2-8.6-6.3
		c-1.4-1.1-2.4-1-3.7,0.1c-2.6,2-5.3,3.8-8.3,5.5c1-3.2,2-6.5,3.1-9.7c0.5-1.4,0.2-2.1-1-2.9c-2.8-1.9-5.6-4-9-6.5
		c4,0,7.4-0.1,10.8,0c1.8,0.1,2.5-0.6,3-2.2c0.9-3.2,2-6.4,3.3-10.1c1.1,3.4,2.2,6.3,3,9.3c0.6,2.3,1.6,3.3,4.1,3
		c3-0.3,6.1-0.1,9.1-0.1C69.1,92.6,69.2,92.8,69.3,92.9z"/>
	<path class="st0" d="M62.1,75.2c-2.5-1.8-5.1-3.6-7.6-5.5c-1.1-0.9-1.9-0.9-3.1,0c-2.7,2.1-5.5,4-8.6,5.7c1-3.2,2-6.5,3.1-9.7
		c0.5-1.4,0.2-2.2-1-3c-2.8-1.9-5.5-3.9-8.1-6.4c3,0,5.9-0.2,8.9,0.1c2.6,0.2,3.7-0.7,4.3-3.1c0.7-2.9,1.8-5.8,3-9.3
		c1,3.1,1.8,5.5,2.6,8c1.4,4.4,1.4,4.4,5.9,4.4c2.5,0,5.1,0,7.6,0c0.1,0.2,0.1,0.3,0.2,0.5c-2.7,1.9-5.3,4-8.1,5.8
		c-1.4,0.9-1.7,1.8-1.1,3.4c1,2.7,1.8,5.5,2.6,8.2C62.9,74.7,63.1,75.2,62.1,75.2z"/>
	<path class="st0" d="M107,75.4c-2.6-1.9-5.3-3.8-7.9-5.8c-1.1-0.9-1.9-0.9-3.1,0c-2.7,2.1-5.6,4.1-8.8,5.8c1-3,1.9-6.1,3.1-9.1
		c0.7-1.8,0.5-2.8-1.2-3.9c-2.7-1.7-5.3-3.8-8.5-6.1c4.2,0,7.6-0.1,11,0c1.5,0,2.1-0.5,2.5-1.9c1-3.4,2.1-6.7,3.4-10.5
		c1.1,3.4,2.3,6.3,3,9.3c0.6,2.6,1.9,3.2,4.3,3.1c2.9-0.2,5.9,0,9.6,0c-3.3,2.4-6,4.5-8.8,6.4c-1.4,0.9-1.5,1.7-1,3.1
		c0.9,2.5,1.6,5,2.5,7.5C107.3,73.9,107.7,74.5,107,75.4z"/>
	<path class="st0" d="M93.5,19.9c1.3-3.9,2.6-7.8,4.1-11.9c1.4,4,2.7,7.7,4,11.5c0.2,0.1,0.4,0.3,0.6,0.4c0.2,0.1,0.4,0.2,0.7,0.3
		c2.4,0.1,4.8,0,7.2,0.1c1,0,2.1-0.1,2.7,1.1c-2.4,1.8-4.8,3.7-7.3,5.4c-1,0.7-1.2,1.4-0.8,2.6c0.9,2.5,1.7,5.2,2.5,7.7
		c0.3,0.8,0.6,1.5,0.2,2.5c-2.7-2-5.5-3.9-8.1-5.9c-1.2-1-2.1-0.9-3.3,0.1c-2,1.6-4.1,3-6.2,4.5c-0.7,0.5-1.3,1.2-2.3,0.9
		c1.1-3.3,2-6.6,3.2-9.8c0.4-1.2,0.2-1.9-0.8-2.6c-2.4-1.7-4.7-3.5-7.1-5.3c0.5-1.2,1.6-1.2,2.6-1.2c2.5,0,5-0.1,7.4,0
		C93.1,20.2,93.3,20.1,93.5,19.9z"/>
	<path class="st23" d="M125.7,28c24.5,0,49.1,0,73.6,0c1.1,0,2.2,0.1,3.4,0.1c-0.8,0.7-1.8,0.4-2.8,0.4c-24.8,0-49.5,0-74.3,0
		C125.7,28.3,125.7,28.2,125.7,28z"/>
	<path class="st16" d="M125.6,60.3c0.2,10.7,0.2,21.3,0,32c-0.1,0.1-0.2,0.1-0.3,0.1c0,0,0,0,0,0c-0.3-0.4-0.2-0.9-0.2-1.4
		c0-9.8,0-19.6,0-29.4c0-0.5-0.1-1,0.2-1.4C125.4,60.2,125.5,60.3,125.6,60.3z"/>
	<path class="st24" d="M125.3,60.3c0,10.7,0,21.5,0,32.2c-0.7-0.5-0.5-1.3-0.5-2c0-9.4,0-18.8,0-28.2
		C124.8,61.6,124.6,60.8,125.3,60.3z"/>
	<path class="st25" d="M93.5,20.3c-2.3,1-4.7,0.3-7,0.5c-1.3,0.1-2.6-0.2-3.7,0.6c-0.5,0.1-0.8-0.3-1.1-0.7C81.5,20.4,81.6,20,82,20
		C85.8,19.9,89.7,19.4,93.5,20.3z"/>
	<path class="st26" d="M112.7,21.3c-2.7-1-5.5-0.2-8.3-0.5c-0.9-0.1-1.9,0.4-2.7-0.5c3.8-0.9,7.7-0.4,11.5-0.3
		c0.3,0,0.5,0.4,0.4,0.7C113.3,20.9,113,21.1,112.7,21.3z"/>
	<path class="st27" d="M113.6,20.8c-2.1-1-4.3-0.3-6.5-0.4c-1.8-0.1-3.6,0-5.4,0c0-0.2,0-0.3,0-0.5c4.2-0.3,8.4-0.4,12.5,0
		C114.2,20.3,114.1,20.7,113.6,20.8z"/>
	<path class="st28" d="M93.5,20.3c-3.2,0-6.4,0-9.6,0c-0.8,0-1.6-0.3-2.3,0.4c-0.5-0.1-0.6-0.4-0.6-0.9c4-0.5,8-0.3,12-0.1
		c0.2,0,0.4,0.1,0.6,0.1C93.5,20,93.5,20.2,93.5,20.3z"/>
	<path class="st29" d="M114.2,19.9c-4.2,0-8.4,0-12.5,0c-0.1-0.1-0.1-0.2-0.1-0.4c3.7,0,7.4,0,11.1-0.1
		C113.2,19.4,113.8,19.3,114.2,19.9z"/>
	<path class="st29" d="M93,19.8c-4,0-8,0.1-12,0.1C84.9,19,88.9,19.2,93,19.8z"/>
	<path class="st25" d="M67.9,21.3c-2.8-1.1-5.7-0.1-8.5-0.8c3,0.2,6.1-0.8,9,0.4C68.3,21.1,68.1,21.2,67.9,21.3z"/>
	<path class="st30" d="M62.1,75.2c0.5-0.2,0.5-0.6,0.6-1c0.4,0.5,0.8,1.1,0.3,1.6C62.7,76,62.3,75.5,62.1,75.2z"/>
	<path class="st11" d="M202.8,221.9c-1,0-1.9-0.1-2.9-0.1c-49.6,0-99.2,0-148.8,0c-1,0-1.9,0-2.9,0.1c0.7-0.9,1.6-0.5,2.5-0.5
		c49.9,0,99.8,0,149.7,0C201.2,221.3,202.1,221,202.8,221.9z"/>
	<path class="st31" d="M230.1,59.7c-34.4,0-68.8,0-103.2,0c0-0.1,0-0.2,0-0.2c34.4,0,68.9,0,103.3,0
		C230.1,59.5,230.1,59.6,230.1,59.7z"/>
</g>
</svg>
