<?xml version="1.0" encoding="utf-8"?>
<!-- Generator: Adobe Illustrator 22.0.0, SVG Export Plug-In . SVG Version: 6.00 Build 0)  -->
<svg version="1.1" id="Camada_1" xmlns="http://www.w3.org/2000/svg" xmlns:xlink="http://www.w3.org/1999/xlink" x="0px" y="0px"
	 viewBox="0 0 204 121.9" style="enable-background:new 0 0 204 121.9;" xml:space="preserve">
<style type="text/css">
	.st0{fill:#B47140;}
	.st1{fill:#A1653A;}
	.st2{fill:#EABD00;}
</style>
<g>
	<path class="st0" d="M193.6,1h-40.1v93.6c0.7,0,1.4,0.2,2,0.5l42.6,26.6c2.3,1.4,5.7,0,5.7-2.7v-109C203.7,5.1,199.3,1,193.6,1z"/>
</g>
<g>
	<path class="st1" d="M114.9,1h39.4v93.6c-0.7,0-1.4,0.2-2,0.5l-41.9,26.6c-2.3,1.4-5.5,0-5.5-2.7v-109C105,5.1,109.4,1,114.9,1z"/>
</g>
<path class="st2" d="M68.2,2.5l16.3,33c0.6,1.3,1.9,2.2,3.3,2.4l36.5,5.3c3.6,0.5,5.1,5,2.5,7.6l-26.4,25.7c-1,1-1.5,2.5-1.3,3.9
	l6.2,36.3c0.6,3.6-3.2,6.4-6.4,4.7l-32.6-17.1c-1.3-0.7-2.8-0.7-4.1,0l-32.6,17.1c-3.2,1.7-7-1.1-6.4-4.7l6.2-36.3
	c0.2-1.4-0.2-2.9-1.3-3.9L1.8,50.8c-2.6-2.6-1.2-7,2.5-7.6l36.5-5.3c1.4-0.2,2.7-1.1,3.3-2.4l16.3-33C61.9-0.8,66.6-0.8,68.2,2.5z"
	/>
</svg>
