<?xml version="1.0" encoding="utf-8"?>
<!-- Generator: Adobe Illustrator 22.0.0, SVG Export Plug-In . SVG Version: 6.00 Build 0)  -->
<svg version="1.1" id="Camada_1" xmlns="http://www.w3.org/2000/svg" xmlns:xlink="http://www.w3.org/1999/xlink" x="0px" y="0px"
	 viewBox="0 0 38.7 26.8" style="enable-background:new 0 0 38.7 26.8;" xml:space="preserve">
<style type="text/css">
	.st0{fill:#F2F2F2;}
</style>
<g>
	<g>
		<path class="st0" d="M24,22.4h0.2c0.4,0,0.8-0.4,0.8-0.8s-0.4-0.8-0.8-0.8h-0.7c-0.4-1.1-0.7-2.5-1-4h0.4c0.4,0,0.8-0.4,0.8-0.8
			s-0.4-0.8-0.8-0.8h-0.7c-0.4-2.5-0.7-5.5-0.7-9.1l0.2-0.9c0,0,0,0-0.1,0c0-0.5,0.1-2.2-1-2.2l0,0l0,0c0-0.4-0.1-2.3-0.3-2.4
			C20.1,0.9,20,2.5,19.9,3l0,0c-1,0-1,1.7-1,2.2c-0.1,0-0.1,0-0.1,0L19,6.1c0,3.6-0.3,6.6-0.7,9.1h-0.7c-0.4,0-0.8,0.4-0.8,0.8
			s0.4,0.8,0.8,0.8H18c-0.3,1.5-0.6,2.9-1,4h-0.7c-0.4,0-0.8,0.4-0.8,0.8s0.4,0.8,0.8,0.8h0.1c-1.2,3.2-2.4,4.4-2.4,4.4h2.6
			c0,0,0.5-2.8,3.5-2.9c3.1,0.1,3.5,2.9,3.5,2.9h2.6C26.4,26.8,25.2,25.6,24,22.4z M19,17.8l0.2-1h2.1l0.2,1l0.9,3h-4.2L19,17.8z"/>
	</g>
</g>
<g>
	<g>
		<path class="st0" d="M36.3,16.4l1.4-1.4h-1.5l-0.6,0.6l-0.4-0.9c0.3-0.2,0.6-0.3,0.6-0.3l-2.2-3.7l0,0c0-0.3,0-0.8-0.1-1.6
			c0.2-0.3,0.3-0.9,0.2-1.7l0.9-0.2h-1l0,0c-0.1-0.2-0.3-0.4-0.4-0.6l0.9-1l-1.3,0.8c-0.2-0.1-0.4-0.2-0.6-0.2L32,4.7l-0.2,1.5
			c-0.2,0-0.5,0-0.7,0.1l-1.2-0.8l0.9,1c-0.1,0.2-0.2,0.4-0.2,0.6h-1.1l1,0.3c-0.1,0.5-0.1,1.2,0.2,1.8c0,0.3,0,0.5-0.1,0.6
			l-1.2-0.2c-0.6-1.2-1.2-3-1.4-3.6c0-0.6,0.1-0.9,0-1.2l0,0l0.6-1H28c0.7-0.7,0.5-1.1,0.5-1.1S28.4,3.1,28,3.4c0.7-0.7,0-1.5,0-1.5
			s0.1,0.4-0.1,0.6c0.2-0.3-0.2-0.6-0.7-0.8c0.1,0.6-0.4,0.6-0.5,0.4c-0.3,0.5-0.1,1.1,0.1,1.4c-0.1,0.1-0.2-0.1-0.4-0.2
			c0,0.5,0.6,0.6,0.6,0.6h-0.5l0.4,0.7l0,0c-0.3,0.2,0,0.4,0,0.4C26.6,5.2,27,5.5,27,5.5c-0.2,0.3,0.1,0.3,0.1,0.5c-0.1,0,0,0,0.2,0
			c0.1,1.3,1.2,4.4,1.4,5l-0.4,0.8c0,0,0.1,0.3,0.7,1.6c0.2,0.4,0.3,1.3,0.3,2.3c-0.6,2.9-1.1,6.3-1,8c0.2-0.1,0.4-0.2,0.6-0.3
			c0,0.3,0,0.7-0.1,1H28v1.2h-0.5v1.3h8.3v-1.3h-0.5v-1.2h-0.5c-0.4-1.7-0.5-3.1-0.4-4.1c0.4-0.3,0.7-0.6,0.9-0.9
			c-0.1-0.6-0.2-1.1-0.3-1.6l0.6-0.5l0.1,0.1c0.3-0.1,0.2-0.2,0.2-0.2s0.3,0.2,0.4-0.2c0,0,0.3,0.2,0.3-0.2
			C36.4,16.5,36.4,16.5,36.3,16.4z M34.5,15.7c0,0,0-0.1,0.1-0.1l0.3,0.7l-0.2,0.2C34.6,16.2,34.6,15.9,34.5,15.7z"/>
	</g>
</g>
<g>
	<g>
		<path class="st0" d="M12.7,25.8v-2.7v-2.4V18v-1.7l0,0V15h-1.1v0.6h-0.5h-0.9V15H9.1v0.6H7.9H7.6V15H6.5v0.6H6.2H5V15H4v0.6H3.1
			H2.5V15H1.4v0.6l0,0V18v2.7v2.4v2.7H1v1h2.4v-1H3v-2.2c0-0.2,0.2-0.5,0.7-0.5c0.9,0,0.9,0.7,0.9,0.7v2H4.2v1h2.4v-1H6.2v-2.2
			c0-0.2,0.2-0.5,0.8-0.5c0.8,0,0.9,0.6,0.9,0.7v2H7.5v1h2.4v-1H9.5v-1.9l0,0l0,0v-0.2c0-0.2,0.2-0.5,0.7-0.5c0.7,0,0.8,0.5,0.9,0.7
			v2h-0.4v1h2.4v-1h-0.4V25.8z M6.2,18.5C6.3,18.3,6.4,18,7,18c0.8,0,0.9,0.6,0.9,0.7v2H6.2V18.5z M9.5,20.7v-1.9l0,0l0,0v-0.2
			c0-0.2,0.2-0.5,0.7-0.5c0.7,0,0.8,0.5,0.9,0.7v2L9.5,20.7z M3,18.6C3,18.4,3.2,18,3.7,18c0.9,0,0.9,0.7,0.9,0.7v2H3V18.6z"/>
	</g>
</g>
</svg>
