<?xml version="1.0" encoding="utf-8"?>
<!-- Generator: Adobe Illustrator 22.0.0, SVG Export Plug-In . SVG Version: 6.00 Build 0)  -->
<svg version="1.1" id="Camada_1" xmlns="http://www.w3.org/2000/svg" xmlns:xlink="http://www.w3.org/1999/xlink" x="0px" y="0px"
	 viewBox="0 0 146.2 146.5" style="enable-background:new 0 0 146.2 146.5;" xml:space="preserve">
<style type="text/css">
	.st0{fill:#5964AF;}
	.st1{fill:#FFFFFF;}
</style>
<circle class="st0" cx="73.3" cy="73.5" r="73"/>
<path class="st1" d="M108.4,55.4H106c-2.1,0-2.8-1.8-2.8-1.8H103c-3.8-9.1-12.7-15-23.8-15H54.5c-2.8,0-5,2.3-5,5v9.1
	c0,2.5-2.1,2.6-2.5,2.6h-1.3c-2.8,0-5.1,2.3-5.1,5.1v6.8c0,2.8,2.3,5.1,5.1,5.1h1.2c0,0,2.5,0.2,2.5,2.8v28.4c0,2.8,2.3,5,5,5h9.2
	c2.8,0,5-2.3,5-5v-9.2c0-2.8,2.3-5,5-5h5.4c11.1,0,19.8-5.9,23.8-15l0,0c0,0,0.7-1.8,2.8-1.8h0.2h2.5c2.8,0,5.1-2.3,5.1-5.1v-6.9
	C113.4,57.7,111.1,55.4,108.4,55.4z M76.9,72.4h-8.1v-17h8.1c5.1,0,8.4,3.5,8.4,8.4C85.3,68.9,82,72.4,76.9,72.4z"/>
</svg>
