<?xml version="1.0" encoding="utf-8"?>
<!-- Generator: Adobe Illustrator 22.0.0, SVG Export Plug-In . SVG Version: 6.00 Build 0)  -->
<svg version="1.1" id="Camada_1" xmlns="http://www.w3.org/2000/svg" xmlns:xlink="http://www.w3.org/1999/xlink" x="0px" y="0px"
	 viewBox="0 0 146.2 146.5" style="enable-background:new 0 0 146.2 146.5;" xml:space="preserve">
<style type="text/css">
	.st0{fill:#DD7017;}
	.st1{fill:#FCD51A;}
</style>
<g>
	<path class="st0" d="M70.5,145.9c-1.8-0.1-110.3-6.3-48.8-119c0.8-1.6,3.2-1,3.2,0.8c0.2,12.2,2.4,24,9.2,26.4
		c1.2,0.4,2.4-0.5,2.3-1.7c-1.1-18.2,14.5-65.1,64-48.1c1.5,0.5,1.4,2.5,0.1,3.2C87.3,14.3,73.3,33.8,88,38.8
		c11.9,4.1,21.4,8.7,23.9,14.5c0.6,1.4,2.5,1.5,3.2,0.2c3.8-7.7,6-14.7,5.2-20.7c-0.2-1.8,2-2.7,3.1-1.3
		C146.4,62.1,169.2,145.9,70.5,145.9L70.5,145.9z"/>
	<path class="st1" d="M73.1,75.8c-12.3,0-30.1,30.6-24.6,45.1s24.6,13.5,24.6,13.5s19.1,0.9,24.6-13.5
		C103.2,106.4,85.4,75.8,73.1,75.8z"/>
</g>
</svg>
