<?xml version="1.0" encoding="utf-8"?>
<!-- Generator: Adobe Illustrator 22.0.0, SVG Export Plug-In . SVG Version: 6.00 Build 0)  -->
<svg version="1.1" id="Camada_1" xmlns="http://www.w3.org/2000/svg" xmlns:xlink="http://www.w3.org/1999/xlink" x="0px" y="0px"
	 viewBox="0 0 266.7 206.3" style="enable-background:new 0 0 266.7 206.3;" xml:space="preserve">
<style type="text/css">
	.st0{fill:#AF5700;}
</style>
<path class="st0" d="M137.2,7.7h-9.7c-18.3,0-26.5,22.9-12.4,34.5l0,0c14.1,11.6,5.9,34.5-12.4,34.5H26.3
	c-10.8,0-19.5,8.7-19.5,19.5v14.1c0,10.8,8.7,19.5,19.5,19.5h76.4c18.3,0,26.5,22.9,12.4,34.5l0,0c-14.1,11.6-5.9,34.5,12.4,34.5
	h9.7c4.5,0,8.9-1.6,12.4-4.5l92.1-76c9.4-7.8,9.4-22.2,0-30l-92.1-76C146.1,9.2,141.7,7.7,137.2,7.7z"/>
</svg>
